<?xml version="1.0" standalone="no"?>
<!DOCTYPE svg PUBLIC "-//W3C//DTD SVG 1.1//EN" "http://www.w3.org/Graphics/SVG/1.1/DTD/svg11.dtd" >
<svg xmlns="http://www.w3.org/2000/svg" width="100%" height="100%">
<metadata>
Created by FontXChange 20110222 at Tue Jan 12 17:09:41 2016
 By Tux27
\\2512012 Kai Bernau and Susana Carvalho with Christian Schwartz under exclusive license to Schwartzco Inc./Commercial Type. All rights reserved.
</metadata>
<defs>
<font id="PopularSans-Bold" horiz-adv-x="580" >
  <font-face 
    font-family="PopularSans"
    font-weight="700"
    font-stretch="normal"
    units-per-em="1000"
    panose-1="0 0 0 0 0 0 0 0 0 0"
    ascent="812"
    descent="-188"
    x-height="536"
    cap-height="765"
    bbox="-222 -232 3602 1202"
    underline-thickness="50"
    underline-position="-41"
    stemh="120"
    stemv="159"
    unicode-range="U+0020-FB02"
  />
<missing-glyph horiz-adv-x="500" 
 />
    <glyph glyph-name="f_f" unicode="ff" horiz-adv-x="715" 
d="M241 426v-426h-155v426h-77v110h77v64c0 143 77 186 193 186c41 0 73 -5 78 -6v-111c-3 1 -20 4 -44 4c-47 0 -72 -20 -72 -80v-57h209v72c0 142 77 186 193 186c41 0 73 -5 78 -6v-111c-3 1 -20 3 -44 3c-47 0 -72 -19 -72 -80v-64h105v-110h-105v-426h-155v426h-209z
" />
    <glyph glyph-name="fi" unicode="fi" horiz-adv-x="645" 
d="M427 629v144h161v-144h-161zM428 0v536h159v-536h-159zM240 426v-426h-155v426h-76v110h76v72c0 142 77 186 189 186c43 0 69 -5 75 -6v-111c-4 1 -20 3 -41 3c-43 0 -68 -19 -68 -80v-64h103v-110h-103z" />
    <glyph glyph-name="fl" unicode="fl" horiz-adv-x="645" 
d="M428 0v788h159v-788h-159zM240 426v-426h-155v426h-76v110h76v72c0 142 77 186 189 186c43 0 69 -5 75 -6v-111c-4 1 -20 3 -41 3c-43 0 -68 -19 -68 -80v-64h103v-110h-103z" />
    <glyph glyph-name=".notdef" horiz-adv-x="500" 
 />
    <glyph glyph-name="space" unicode=" " horiz-adv-x="228" 
 />
    <glyph glyph-name="exclam" unicode="!" horiz-adv-x="310" 
d="M95 243l-32 545h184l-33 -545h-119zM242 0h-175v152h175v-152z" />
    <glyph glyph-name="quotedbl" unicode="&#x22;" horiz-adv-x="461" 
d="M283 504l-20 261h142l-25 -261h-97zM76 504l-20 261h142l-24 -261h-98z" />
    <glyph glyph-name="numbersign" unicode="#" horiz-adv-x="647" 
d="M256 373h111l21 142h-111zM126 99l25 179h-107v95h122l20 142h-112v95h125l24 155h90l-22 -155h109l24 155h92l-24 -155h112v-95h-125l-20 -142h115v-95h-130l-25 -179h-92l25 179h-110l-26 -179h-90z" />
    <glyph glyph-name="dollar" unicode="$" horiz-adv-x="643" 
d="M284 455v180c-65 -9 -91 -46 -91 -87c0 -49 31 -81 91 -93zM354 108h2c70 9 99 47 99 96c0 54 -33 78 -101 92v-188zM354 -116h-70v105c-158 10 -252 89 -260 226h156c7 -54 38 -95 104 -106v200l-34 6c-128 22 -214 80 -214 217c0 114 92 203 248 215v81h70v-81
c160 -12 235 -103 245 -212h-156c-3 43 -29 86 -89 99v-191l37 -6c150 -25 223 -94 223 -208c0 -142 -92 -229 -260 -240v-105z" />
    <glyph glyph-name="percent" unicode="%" horiz-adv-x="898" 
d="M128 -40l534 821h114l-534 -821h-114zM220 381c-97 0 -175 61 -175 181c0 121 82 180 175 180c95 0 177 -59 177 -180c0 -120 -82 -181 -177 -181zM219 466c42 0 69 32 69 96s-27 97 -69 97s-67 -31 -67 -97c0 -64 25 -96 67 -96zM676 -7c-97 0 -175 61 -175 181
c0 121 81 180 175 180c95 0 176 -59 176 -180c0 -120 -81 -181 -176 -181zM675 78c41 0 69 32 69 96s-28 97 -69 97c-43 0 -68 -31 -68 -97c0 -64 25 -96 68 -96z" />
    <glyph glyph-name="ampersand" unicode="&#x26;" horiz-adv-x="749" 
d="M256 600c0 -42 18 -73 62 -119c57 40 95 77 95 129c0 45 -30 77 -77 77c-50 0 -80 -37 -80 -87zM262 346l-4 -3c-41 -30 -70 -65 -70 -121c0 -76 44 -121 123 -121c50 0 90 21 123 55zM718 -1h-36c-78 0 -115 18 -168 71c-55 -53 -125 -86 -217 -86
c-181 0 -263 86 -263 222c0 91 49 156 159 222c-54 57 -78 101 -78 173c0 104 81 186 222 186c130 0 210 -69 210 -166c0 -91 -65 -154 -154 -218l117 -128c19 43 36 91 52 137h136c-28 -77 -59 -161 -101 -234c47 -52 61 -56 121 -56v-123z" />
    <glyph glyph-name="quotesingle" unicode="'" horiz-adv-x="255" 
d="M76 504l-20 261h142l-24 -261h-98z" />
    <glyph glyph-name="parenleft" unicode="(" horiz-adv-x="338" 
d="M333 -130h-114c-72 100 -161 251 -161 459c0 210 89 359 161 459h114c-69 -122 -132 -268 -132 -459c0 -190 63 -336 132 -459z" />
    <glyph glyph-name="parenright" unicode=")" horiz-adv-x="329" 
d="M5 -130c69 123 132 269 132 459c0 191 -63 337 -132 459h113c73 -100 161 -249 161 -459c0 -208 -88 -359 -161 -459h-113z" />
    <glyph glyph-name="asterisk" unicode="*" horiz-adv-x="435" 
d="M220 542h-4l-62 -125l-95 66l103 97v4l-137 20l37 112l122 -69l2 2l-27 139h117l-26 -140l2 -2l122 68l37 -111l-137 -21v-3l103 -98l-95 -66z" />
    <glyph glyph-name="plus" unicode="+" horiz-adv-x="613" 
d="M368 300v-196h-125v196h-190v116h190v194h125v-194h191v-116h-191z" />
    <glyph glyph-name="comma" unicode="," horiz-adv-x="268" 
d="M30 -117l52 276h164l-110 -276h-106z" />
    <glyph glyph-name="hyphen" unicode="-" horiz-adv-x="405" 
d="M47 255v121h312v-121h-312z" />
    <glyph glyph-name="period" unicode="." horiz-adv-x="271" 
d="M51 0v159h169v-159h-169z" />
    <glyph glyph-name="slash" unicode="/" horiz-adv-x="552" 
d="M-24 -130l455 918h120l-454 -918h-121z" />
    <glyph glyph-name="zero" unicode="0" horiz-adv-x="682" 
d="M40 367c0 260 120 384 300 384c190 0 302 -122 302 -384c0 -257 -115 -382 -302 -382c-192 0 -300 123 -300 382zM340 105c76 0 127 74 127 263c0 192 -54 265 -127 265c-76 0 -126 -72 -126 -265c0 -197 48 -263 126 -263z" />
    <glyph glyph-name="one" unicode="1" horiz-adv-x="409" 
d="M161 0v508h-145v102h19c44 0 82 10 107 31c24 21 37 54 37 101h141v-742h-159z" />
    <glyph glyph-name="two" unicode="2" horiz-adv-x="619" 
d="M205 495h-159c2 159 101 257 274 257c183 0 257 -97 257 -210c0 -109 -53 -169 -166 -274l-151 -140v-1h319v-127h-548v92l261 250c85 81 120 129 120 190c0 63 -37 102 -97 102c-54 0 -110 -32 -110 -139z" />
    <glyph glyph-name="three" unicode="3" horiz-adv-x="630" 
d="M316 320h-66v112h53c63 0 108 40 108 102s-48 98 -102 98c-72 0 -106 -42 -109 -108h-155c3 112 75 228 269 228c168 0 258 -89 258 -198c0 -80 -45 -142 -125 -168v-2c87 -21 144 -79 144 -180c0 -116 -96 -219 -278 -219c-200 0 -271 113 -278 230h164
c8 -73 57 -108 117 -108c67 0 115 43 115 107c0 66 -44 106 -115 106z" />
    <glyph glyph-name="four" unicode="4" horiz-adv-x="646" 
d="M175 284h203v320h-2s-13 -36 -42 -80zM621 164h-90v-164h-156v164h-350v111l318 466h188v-455h90v-122z" />
    <glyph glyph-name="five" unicode="5" horiz-adv-x="624" 
d="M425 240c0 83 -47 133 -117 133c-52 0 -90 -17 -116 -54h-133l37 422h443v-126h-321l-16 -189h2c27 34 81 65 152 65c134 0 230 -87 230 -247c0 -141 -96 -259 -281 -259c-205 0 -263 113 -270 224h155c7 -72 49 -102 114 -102c67 0 121 47 121 133z" />
    <glyph glyph-name="six" unicode="6" horiz-adv-x="642" 
d="M588 565h-148c-11 46 -42 73 -94 73c-85 0 -138 -80 -142 -247h4c30 60 96 95 174 95c121 0 226 -80 226 -238c0 -143 -95 -263 -279 -263c-165 0 -289 98 -289 350c0 275 115 417 308 417c161 0 229 -82 240 -187zM333 105c56 0 114 40 114 133c0 84 -49 131 -114 131
c-67 0 -114 -43 -114 -131c0 -93 56 -133 114 -133z" />
    <glyph glyph-name="seven" unicode="7" horiz-adv-x="546" 
d="M70 0l279 614h-336v127h518v-90l-298 -651h-163z" />
    <glyph glyph-name="eight" unicode="8" horiz-adv-x="638" 
d="M59 549c0 117 92 203 260 203s260 -86 260 -204c0 -90 -54 -140 -119 -163v-3c81 -20 144 -72 144 -179c0 -123 -114 -219 -285 -219c-179 0 -285 91 -285 219c0 103 64 159 143 179v3c-65 22 -118 74 -118 164zM319 641c-59 0 -107 -34 -107 -106
c0 -70 48 -105 107 -105c58 0 106 35 106 105c0 72 -48 106 -106 106zM319 92c68 0 125 38 125 115c0 78 -56 114 -125 114s-125 -36 -125 -114c0 -77 58 -115 125 -115z" />
    <glyph glyph-name="nine" unicode="9" horiz-adv-x="641" 
d="M311 628c-55 0 -116 -37 -116 -126c0 -82 54 -126 116 -126c65 0 117 43 117 126c0 85 -60 126 -117 126zM49 179h147c10 -51 52 -77 102 -77c91 0 136 85 139 245h-3c-29 -53 -89 -86 -165 -86c-120 0 -236 80 -236 236c0 139 102 255 281 255s287 -117 287 -359
c0 -280 -122 -408 -307 -408c-145 0 -231 76 -245 194z" />
    <glyph glyph-name="colon" unicode=":" horiz-adv-x="278" 
d="M59 368v159h167v-159h-167zM226 0h-167v159h167v-159z" />
    <glyph glyph-name="semicolon" unicode=";" horiz-adv-x="299" 
d="M83 368v159h168v-159h-168zM138 -117h-106l52 276h164z" />
    <glyph glyph-name="less" unicode="&#x3c;" horiz-adv-x="613" 
d="M550 45l-496 252v72l496 253v-130l-316 -156l316 -157v-134z" />
    <glyph glyph-name="equal" unicode="=" horiz-adv-x="613" 
d="M66 400v115h480v-115h-480zM546 195h-480v115h480v-115z" />
    <glyph glyph-name="greater" unicode="&#x3e;" horiz-adv-x="613" 
d="M63 618l496 -252v-71l-496 -253v130l316 156l-316 157v133z" />
    <glyph glyph-name="question" unicode="?" horiz-adv-x="571" 
d="M394 580c0 56 -37 92 -102 92c-64 0 -118 -35 -118 -143h-152c-3 157 94 267 273 267c180 0 255 -93 255 -208c0 -92 -39 -142 -104 -196l-67 -56c-21 -17 -28 -26 -28 -54v-43h-137v64c0 63 8 79 61 122l57 47c38 32 62 58 62 108zM370 0h-175v152h175v-152z" />
    <glyph glyph-name="at" unicode="@" horiz-adv-x="989" 
d="M707 54c-76 0 -131 33 -139 97h-3c-31 -55 -78 -95 -155 -95c-98 0 -156 66 -156 178c0 137 85 277 225 277c65 0 105 -34 119 -74h2l11 58h128l-59 -277c-12 -58 8 -90 55 -90c64 0 131 62 131 214c0 190 -148 333 -355 333c-218 0 -392 -178 -392 -411
c0 -235 155 -384 366 -384c108 0 199 37 257 84l44 -45c-67 -56 -167 -104 -308 -104c-253 0 -437 181 -437 449c0 274 207 476 472 476c248 0 433 -159 433 -392c0 -208 -117 -294 -239 -294zM455 146c48 0 93 46 107 116l9 44c12 61 -10 116 -65 116
c-81 0 -118 -107 -118 -188c0 -54 22 -88 67 -88z" />
    <glyph glyph-name="A" unicode="A" horiz-adv-x="741" 
d="M363 624c-1 -4 -10 -49 -30 -111l-71 -223h202l-70 222c-21 67 -29 112 -29 112h-2zM560 0l-56 170h-281l-56 -170h-157l267 765h184l271 -765h-172z" />
    <glyph glyph-name="B" unicode="B" horiz-adv-x="708" 
d="M392 0h-325v765h318c173 0 264 -65 264 -195c0 -90 -66 -143 -133 -159v-4c96 -16 166 -83 166 -184c0 -148 -116 -223 -290 -223zM231 449h134c71 0 121 29 121 102c0 66 -44 100 -117 100h-138v-202zM231 117h149c83 0 134 30 134 117c0 73 -51 107 -137 107h-146v-224
z" />
    <glyph glyph-name="C" unicode="C" horiz-adv-x="746" 
d="M394 654c-103 0 -177 -94 -177 -276c0 -175 67 -271 176 -271c90 0 141 57 150 153h167c-8 -165 -126 -276 -313 -276c-238 0 -357 145 -357 388c0 252 132 404 354 404c187 0 306 -98 317 -270h-169c-8 90 -64 148 -148 148z" />
    <glyph glyph-name="D" unicode="D" horiz-adv-x="750" 
d="M67 0v765h261c226 0 383 -111 383 -373s-155 -392 -379 -392h-265zM231 124h89c132 0 217 66 217 264c0 189 -86 255 -212 255h-94v-519z" />
    <glyph glyph-name="E" unicode="E" horiz-adv-x="628" 
d="M67 0v765h504v-125h-340v-197h322v-122h-322v-197h349v-124h-513z" />
    <glyph glyph-name="F" unicode="F" horiz-adv-x="583" 
d="M231 295v-295h-164v765h481v-125h-317v-222h299v-123h-299z" />
    <glyph glyph-name="G" unicode="G" horiz-adv-x="790" 
d="M402 658c-119 0 -187 -97 -187 -279c0 -198 71 -276 187 -276c105 0 166 64 174 173l1 14h-181v118h334v-408h-130v104h-4c-36 -69 -109 -120 -222 -120c-218 0 -334 151 -334 387c0 248 145 405 362 405c184 0 295 -87 313 -243h-167c-10 74 -65 125 -146 125z" />
    <glyph glyph-name="H" unicode="H" horiz-adv-x="772" 
d="M231 318v-318h-164v765h164v-319h308v319h166v-765h-166v318h-308z" />
    <glyph glyph-name="I" unicode="I" horiz-adv-x="298" 
d="M67 0v765h164v-765h-164z" />
    <glyph glyph-name="J" unicode="J" horiz-adv-x="428" 
d="M86 -3h-63v130h37c127 0 146 46 146 138v500h162v-520c0 -190 -105 -248 -282 -248z" />
    <glyph glyph-name="K" unicode="K" horiz-adv-x="715" 
d="M231 232v-232h-164v765h164v-341l279 341h183l-275 -320l287 -445h-188l-210 321z" />
    <glyph glyph-name="L" unicode="L" horiz-adv-x="590" 
d="M67 0v765h164v-637h330v-128h-494z" />
    <glyph glyph-name="M" unicode="M" horiz-adv-x="951" 
d="M67 0v765h238l138 -411c22 -64 32 -113 32 -113h2s11 49 32 113l137 411h238v-765h-162v599h-3s-17 -71 -47 -162l-143 -437h-122l-144 437c-30 92 -45 161 -45 161h-3v-598h-148z" />
    <glyph glyph-name="N" unicode="N" horiz-adv-x="769" 
d="M67 0v765h181l247 -414c39 -66 55 -114 55 -114h3v528h150v-765h-173l-254 422c-41 67 -58 116 -58 116h-3v-538h-148z" />
    <glyph glyph-name="O" unicode="O" horiz-adv-x="802" 
d="M40 380c0 252 147 396 361 396c224 0 361 -141 361 -396c0 -252 -142 -396 -361 -396c-229 0 -361 142 -361 396zM401 104c116 0 184 94 184 276c0 183 -76 278 -184 278c-116 0 -183 -93 -183 -278c0 -184 63 -276 183 -276z" />
    <glyph glyph-name="P" unicode="P" horiz-adv-x="648" 
d="M319 262h-88v-262h-164v765h266c166 0 292 -70 292 -247c0 -186 -135 -256 -306 -256zM231 383h99c85 0 134 44 134 133c0 94 -49 131 -132 131h-101v-264z" />
    <glyph glyph-name="Q" unicode="Q" horiz-adv-x="802" 
d="M40 380c0 255 144 396 361 396c221 0 361 -143 361 -396c0 -148 -51 -265 -138 -316v-5c75 -12 114 -43 151 -111l-144 -82c-50 92 -92 125 -173 125c-18 0 -35 -3 -59 -3c-229 0 -359 138 -359 392zM401 102c118 0 184 86 184 276c0 186 -74 280 -184 280
c-113 0 -183 -95 -183 -280c0 -184 63 -276 183 -276z" />
    <glyph glyph-name="R" unicode="R" horiz-adv-x="694" 
d="M231 408h114c72 0 134 32 134 123c0 93 -71 120 -131 120h-117v-243zM493 0l-144 291h-118v-291h-164v765h299c49 0 105 -7 154 -28c72 -32 127 -91 127 -197c0 -121 -76 -182 -148 -210v-2l171 -328h-177z" />
    <glyph glyph-name="S" unicode="S" horiz-adv-x="679" 
d="M625 557h-168c-4 51 -38 100 -114 100c-71 0 -115 -38 -115 -92c0 -51 28 -82 101 -95l116 -21c136 -25 202 -98 202 -211c0 -164 -112 -254 -307 -254c-191 0 -298 92 -306 235h171c8 -66 54 -115 139 -115c91 0 133 46 133 104c0 53 -29 81 -109 96l-114 22
c-118 23 -197 94 -197 216c0 135 104 234 287 234c194 0 276 -100 281 -219z" />
    <glyph glyph-name="T" unicode="T" horiz-adv-x="642" 
d="M629 765v-129h-226v-636h-164v636h-226v129h616z" />
    <glyph glyph-name="U" unicode="U" horiz-adv-x="741" 
d="M59 267v498h164l-1 -446c0 -55 1 -118 30 -155c28 -35 68 -50 119 -50c55 0 96 15 123 50c28 37 26 100 26 155v446h162v-498c0 -193 -125 -283 -313 -283s-310 89 -310 283z" />
    <glyph glyph-name="V" unicode="V" horiz-adv-x="722" 
d="M268 0l-258 765h172l157 -496c23 -74 27 -114 27 -114h2s4 40 27 113l159 497h158l-256 -765h-188z" />
    <glyph glyph-name="W" unicode="W" horiz-adv-x="1047" 
d="M378 0h-164l-203 765h170l106 -435c19 -77 23 -129 23 -129h2s5 52 26 128l119 436h150l120 -435c21 -77 30 -129 30 -129h1s5 52 23 128l105 436h150l-202 -765h-161l-123 452c-21 77 -24 121 -24 121h-2s-4 -44 -24 -120z" />
    <glyph glyph-name="X" unicode="X" horiz-adv-x="731" 
d="M15 0l254 395l-236 370h189l147 -244h1l151 244h172l-237 -364l260 -401h-194l-167 274h-2l-167 -274h-171z" />
    <glyph glyph-name="Y" unicode="Y" horiz-adv-x="677" 
d="M257 0v320l-256 445h181l161 -301h2l163 301h168l-255 -442v-323h-164z" />
    <glyph glyph-name="Z" unicode="Z" horiz-adv-x="638" 
d="M43 638v127h560v-113l-383 -524h389v-128h-583v113l384 525h-367z" />
    <glyph glyph-name="bracketleft" unicode="[" horiz-adv-x="366" 
d="M87 -130v918h264v-96h-133v-726h133v-96h-264z" />
    <glyph glyph-name="backslash" unicode="\" horiz-adv-x="552" 
d="M456 -130l-454 918h120l454 -918h-120z" />
    <glyph glyph-name="bracketright" unicode="]" horiz-adv-x="366" 
d="M279 788v-918h-264v96h133v726h-133v96h264z" />
    <glyph glyph-name="asciicircum" unicode="^" horiz-adv-x="430" 
d="M268 788l155 -293h-110l-101 173h-1l-101 -173h-103l156 293h105z" />
    <glyph glyph-name="underscore" unicode="_" horiz-adv-x="370" 
d="M-12 -190v99h394v-99h-394z" />
    <glyph glyph-name="grave" unicode="`" horiz-adv-x="349" 
d="M216 788l51 -174h-121l-88 174h158z" />
    <glyph glyph-name="a" unicode="a" horiz-adv-x="564" 
d="M246 94c55 0 106 43 106 132v17c-84 -5 -126 -12 -151 -29c-18 -12 -26 -32 -26 -54c0 -39 27 -66 71 -66zM193 377h-152c6 107 91 171 231 171c173 0 233 -71 233 -214v-185c0 -29 9 -40 43 -40v-110h-53c-77 0 -114 15 -131 74h-2c-34 -50 -86 -79 -162 -79
c-112 0 -182 59 -182 159c0 62 28 106 81 134c57 30 138 35 252 40v29c0 59 -25 90 -79 90c-52 0 -77 -29 -79 -69z" />
    <glyph glyph-name="b" unicode="b" horiz-adv-x="626" 
d="M58 0v788h159v-332h2c27 49 83 92 163 92c124 0 215 -80 215 -278c0 -183 -89 -283 -227 -283c-80 0 -130 36 -158 87h-2v-74h-152zM325 93c70 0 110 60 110 175c0 113 -35 171 -111 171c-64 0 -109 -53 -109 -142v-58c0 -84 36 -146 110 -146z" />
    <glyph glyph-name="c" unicode="c" horiz-adv-x="575" 
d="M547 344h-156c-5 57 -32 99 -92 99c-83 0 -108 -84 -108 -173c0 -83 17 -174 107 -174c70 0 95 51 97 103h154c-4 -141 -110 -212 -251 -212c-173 0 -270 106 -270 281c0 174 104 281 271 281c143 0 244 -70 248 -205z" />
    <glyph glyph-name="d" unicode="d" horiz-adv-x="629" 
d="M414 228v64c0 94 -42 147 -108 147c-71 0 -115 -56 -115 -173c0 -109 33 -173 111 -173c73 0 112 58 112 135zM571 788v-788h-152v79h-2c-28 -47 -76 -93 -160 -93c-142 0 -228 89 -228 275c0 189 101 286 234 286c69 0 122 -32 147 -82h2v323h159z" />
    <glyph glyph-name="e" unicode="e" horiz-adv-x="581" 
d="M390 322v7c-5 76 -35 121 -95 121c-65 0 -99 -46 -107 -128h202zM547 156c-16 -104 -109 -170 -254 -170c-173 0 -265 111 -265 283c0 164 98 280 267 280c181 0 257 -119 257 -276v-42h-364c7 -96 43 -138 110 -138c63 0 83 31 93 63h156z" />
    <glyph glyph-name="f" unicode="f" horiz-adv-x="351" 
d="M241 426v-426h-155v426h-77v110h77v70c0 142 77 188 193 188c41 0 73 -5 78 -6v-111c-3 1 -20 3 -44 3c-47 0 -72 -19 -72 -80v-64h105v-110h-105z" />
    <glyph glyph-name="g" unicode="g" horiz-adv-x="626" 
d="M416 244v58c0 87 -45 137 -112 137c-66 0 -113 -53 -113 -161c0 -102 36 -160 113 -160c67 0 112 54 112 126zM299 -199c-167 0 -245 66 -253 167h153c10 -40 33 -63 102 -63c78 0 115 35 115 130v76h-3c-19 -43 -66 -94 -156 -94c-140 0 -228 81 -228 261
c0 175 102 269 232 269c82 0 131 -41 153 -84h2v73h152v-493c0 -162 -87 -242 -269 -242z" />
    <glyph glyph-name="h" unicode="h" horiz-adv-x="621" 
d="M410 0v314c0 38 -2 68 -16 88c-15 21 -39 31 -69 31c-71 0 -108 -45 -108 -123v-310h-159v788h159v-338h2c24 49 80 97 168 97c129 0 182 -67 182 -199v-348h-159z" />
    <glyph glyph-name="i" unicode="i" horiz-adv-x="275" 
d="M57 629v144h161v-144h-161zM58 0v536h159v-536h-159z" />
    <glyph glyph-name="j" unicode="j" horiz-adv-x="279" 
d="M61 629v144h161v-144h-161zM30 -206c-44 0 -70 8 -75 9v111c4 -2 18 -5 39 -5c47 0 68 22 68 76v551h159v-552c0 -146 -82 -190 -191 -190z" />
    <glyph glyph-name="k" unicode="k" horiz-adv-x="578" 
d="M214 139v-139h-156v788h156v-474l183 222h168l-179 -210l188 -326h-172l-122 219z" />
    <glyph glyph-name="l" unicode="l" horiz-adv-x="275" 
d="M58 0v788h159v-788h-159z" />
    <glyph glyph-name="m" unicode="m" horiz-adv-x="961" 
d="M58 0v536h153v-88h2c28 52 82 99 170 99c99 0 147 -44 167 -111h2c21 50 79 111 177 111c126 0 180 -67 180 -199v-348h-159v314c0 38 -2 68 -16 88c-14 22 -38 31 -67 31c-67 0 -104 -45 -104 -123v-310h-159v314c0 38 -2 68 -16 88c-14 21 -38 31 -67 31
c-67 0 -104 -45 -104 -122v-311h-159z" />
    <glyph glyph-name="n" unicode="n" horiz-adv-x="621" 
d="M410 0v313c0 38 -2 69 -16 89c-15 21 -39 31 -69 31c-71 0 -108 -45 -108 -123v-310h-159v536h153v-88h2c29 54 82 99 174 99c129 0 182 -67 182 -199v-348h-159z" />
    <glyph glyph-name="o" unicode="o" horiz-adv-x="599" 
d="M299 -14c-169 0 -271 107 -271 282c0 176 104 281 272 281c164 0 271 -104 271 -281c0 -175 -111 -282 -272 -282zM300 442c-79 0 -108 -75 -108 -174c0 -104 30 -175 108 -175c80 0 106 76 106 175c0 103 -28 174 -106 174z" />
    <glyph glyph-name="p" unicode="p" horiz-adv-x="626" 
d="M215 239c0 -84 36 -146 110 -146c70 0 110 60 110 175c0 113 -35 171 -111 171c-63 0 -109 -53 -109 -142v-58zM58 -188v724h153v-87h2c25 48 82 99 169 99c124 0 215 -80 215 -278c0 -179 -91 -283 -230 -283c-77 0 -125 38 -147 80h-3v-255h-159z" />
    <glyph glyph-name="q" unicode="q" horiz-adv-x="629" 
d="M571 536v-724h-159v255h-2c-21 -36 -71 -81 -153 -81c-142 0 -228 87 -228 275c0 189 101 286 234 286c69 0 125 -33 153 -84h2v73h153zM302 93c73 0 112 58 112 135v64c0 94 -42 147 -108 147c-70 0 -115 -56 -115 -173c0 -109 33 -173 111 -173z" />
    <glyph glyph-name="r" unicode="r" horiz-adv-x="407" 
d="M58 0v536h150v-113h2c30 81 105 122 177 122h9v-144h-28c-97 0 -152 -33 -152 -136v-265h-158z" />
    <glyph glyph-name="s" unicode="s" horiz-adv-x="516" 
d="M474 387h-140c-3 34 -28 61 -77 61s-75 -24 -75 -56c0 -30 16 -48 62 -54l91 -12c98 -13 155 -61 155 -158c0 -119 -97 -183 -233 -183c-160 0 -228 75 -235 171h146c2 -38 27 -69 90 -69c51 0 85 20 85 59c0 32 -14 48 -64 55l-86 12c-100 14 -157 63 -157 160
c0 93 70 176 222 176c140 0 209 -68 216 -162z" />
    <glyph glyph-name="t" unicode="t" horiz-adv-x="381" 
d="M109 687h136v-151h120v-110h-118v-237c0 -54 20 -78 74 -78c19 0 45 4 45 4v-116c-21 -2 -61 -6 -106 -6c-105 0 -170 45 -170 166v267h-79v109h18c68 0 80 14 80 111v41z" />
    <glyph glyph-name="u" unicode="u" horiz-adv-x="617" 
d="M212 536v-313c0 -38 3 -68 16 -88c14 -21 37 -31 68 -31c70 0 105 48 105 139v293h159v-536h-153v87h-2c-28 -54 -80 -97 -168 -97c-129 0 -184 63 -184 189v357h159z" />
    <glyph glyph-name="v" unicode="v" horiz-adv-x="551" 
d="M193 0l-191 536h160l86 -271c19 -59 30 -119 30 -119h2s11 60 30 119l86 271h153l-192 -536h-164z" />
    <glyph glyph-name="w" unicode="w" horiz-adv-x="840" 
d="M163 0l-156 536h153l71 -270c14 -55 20 -113 20 -113h3s11 59 27 112l80 271h129l80 -271c16 -54 26 -112 26 -112h4s9 59 23 112l70 271h139l-155 -536h-153l-65 213c-20 65 -37 162 -37 162h-2s-20 -98 -40 -162l-66 -213h-151z" />
    <glyph glyph-name="x" unicode="x" horiz-adv-x="550" 
d="M0 0l182 279l-168 257h171l92 -155h2l86 155h168l-168 -255l185 -281h-174l-106 176h-2l-100 -176h-168z" />
    <glyph glyph-name="y" unicode="y" horiz-adv-x="551" 
d="M207 -3l-200 539h164l88 -282c18 -58 24 -105 24 -105h3s6 47 23 105l83 282h155l-188 -553c-43 -125 -95 -182 -234 -182c-52 0 -76 6 -79 7v116c9 -2 31 -5 54 -5c60 0 88 17 103 65z" />
    <glyph glyph-name="z" unicode="z" horiz-adv-x="524" 
d="M44 421v115h448v-103l-268 -316h273v-117h-463v104l268 317h-258z" />
    <glyph glyph-name="braceleft" unicode="{" horiz-adv-x="393" 
d="M62 273h-30v109h30c45 0 60 19 60 68v153c0 147 80 189 256 189v-92c-107 0 -130 -29 -130 -112v-128c0 -60 -15 -116 -80 -129v-4c65 -14 80 -69 80 -132v-125c0 -83 23 -112 130 -112v-92c-176 0 -256 42 -256 181v158c0 49 -15 68 -60 68z" />
    <glyph glyph-name="bar" unicode="|" horiz-adv-x="269" 
d="M79 -130v918h108v-918h-108z" />
    <glyph glyph-name="braceright" unicode="}" horiz-adv-x="393" 
d="M362 385v-109h-30c-46 0 -60 -19 -60 -68v-153c0 -147 -81 -189 -257 -189v92c107 0 131 29 131 112v129c0 59 15 115 80 128v4c-65 14 -80 69 -80 132v125c0 83 -24 112 -131 112v92c176 0 257 -42 257 -181v-158c0 -49 14 -68 60 -68h30z" />
    <glyph glyph-name="asciitilde" unicode="~" horiz-adv-x="429" 
d="M7 254c0 90 39 170 122 170c63 0 122 -51 160 -51c21 0 38 14 40 52h93c0 -90 -33 -170 -116 -170c-62 0 -121 51 -160 51c-23 0 -37 -18 -39 -52h-100z" />
    <glyph glyph-name="uni00A0" unicode="&#xa0;" horiz-adv-x="228" 
 />
    <glyph glyph-name="exclamdown" unicode="&#xa1;" horiz-adv-x="310" 
d="M235 431l32 -545h-184l33 545h119zM88 674h175v-152h-175v152z" />
    <glyph glyph-name="cent" unicode="&#xa2;" horiz-adv-x="583" 
d="M411 199h146c-4 -129 -93 -200 -217 -210v-105h-68v104c-151 13 -236 117 -236 280c0 162 89 265 236 279v88h68v-87c125 -10 210 -80 215 -204h-148c-4 47 -24 87 -67 99v-348c50 14 69 59 71 104zM272 96v347c-62 -20 -83 -94 -83 -173c0 -73 14 -155 83 -174z" />
    <glyph glyph-name="sterling" unicode="&#xa3;" horiz-adv-x="629" 
d="M578 126v-126h-531v92l28 21c67 50 99 92 73 189h-123v97h92l-13 39c-64 191 53 314 234 314c170 0 251 -83 249 -223h-160c0 61 -21 115 -89 115c-67 0 -122 -47 -80 -190l16 -55h183v-97h-158c10 -67 -7 -117 -65 -167l-8 -7v-2h352z" />
    <glyph glyph-name="currency" unicode="&#xa4;" horiz-adv-x="611" 
d="M216 348c0 -55 35 -95 88 -95c54 0 89 40 89 95s-35 95 -89 95c-53 0 -88 -40 -88 -95zM119 348c0 30 7 58 18 83l-97 96l86 86l96 -98c24 12 52 19 82 19c31 0 60 -8 84 -20l98 100l86 -86l-101 -98c12 -24 19 -52 19 -82c0 -31 -7 -59 -19 -82l100 -98l-86 -86l-98 99
c-24 -12 -53 -18 -83 -18s-58 6 -82 17l-97 -99l-85 86l98 96c-12 25 -19 54 -19 85z" />
    <glyph glyph-name="yen" unicode="&#xa5;" horiz-adv-x="634" 
d="M240 0v148h-198v76h198v81h-200v76h188l-217 360h177l135 -242h2l135 242h164l-218 -360h188v-76h-198v-81h200v-76h-200v-148h-156z" />
    <glyph glyph-name="brokenbar" unicode="&#xa6;" horiz-adv-x="269" 
d="M187 788v-404h-108v404h108zM187 -130h-108v417h108v-417z" />
    <glyph glyph-name="section" unicode="&#xa7;" horiz-adv-x="605" 
d="M173 365c0 -39 33 -57 74 -76l95 -44c20 -9 34 -15 39 -18c33 7 51 31 51 62s-18 51 -74 76l-97 43c-16 7 -30 14 -34 17c-37 -8 -54 -33 -54 -60zM34 340c0 65 36 113 101 138v1c-32 27 -49 63 -49 117c0 105 90 172 219 172c153 0 213 -72 219 -171h-143
c-3 41 -23 69 -75 69c-51 0 -75 -24 -75 -56c0 -40 23 -53 72 -74l131 -57c103 -46 138 -91 138 -170c0 -65 -35 -110 -98 -134v-2c29 -24 48 -57 48 -106c0 -120 -92 -181 -227 -181c-151 0 -222 68 -228 176h141c4 -46 33 -74 88 -74c53 0 81 22 81 58c0 32 -18 47 -61 66
l-143 62c-84 37 -139 72 -139 166z" />
    <glyph glyph-name="dieresis" unicode="&#xa8;" horiz-adv-x="349" 
d="M210 636v137h137v-137h-137zM2 636v137h136v-137h-136z" />
    <glyph glyph-name="copyright" unicode="&#xa9;" horiz-adv-x="879" 
d="M45 380c0 224 168 397 394 397s395 -173 395 -397s-169 -396 -395 -396s-394 172 -394 396zM439 41c189 0 330 147 330 339s-141 340 -330 340s-329 -148 -329 -340s140 -339 329 -339zM633 332c-3 -108 -84 -163 -191 -163c-132 0 -205 80 -205 215
c0 132 79 214 206 214c108 0 185 -53 189 -157h-120c-3 43 -24 76 -69 76c-63 0 -83 -64 -83 -132c0 -62 14 -132 82 -132c54 0 72 38 74 79h117z" />
    <glyph glyph-name="ordfeminine" unicode="&#xaa;" horiz-adv-x="487" 
d="M219 405c45 0 77 33 77 91v12c-54 -2 -85 -3 -106 -18c-13 -9 -19 -23 -19 -39c0 -30 19 -46 48 -46zM185 614h-138c3 87 82 138 190 138c146 0 192 -61 192 -173v-133c0 -27 10 -35 32 -35v-92h-47c-59 0 -95 8 -112 57h-2c-24 -37 -68 -62 -127 -62
c-85 0 -142 50 -142 127c0 47 22 84 64 106c44 24 103 29 200 32v21c0 43 -21 61 -54 61s-54 -19 -56 -47z" />
    <glyph glyph-name="guillemotleft" unicode="&#xab;" horiz-adv-x="511" 
d="M354 464h116l-97 -206l98 -201h-116l-108 204zM135 464h116l-97 -206l99 -201h-117l-108 204z" />
    <glyph glyph-name="logicalnot" unicode="&#xac;" horiz-adv-x="612" 
d="M559 104h-125v196h-381v116h506v-312z" />
    <glyph glyph-name="registered" unicode="&#xae;" horiz-adv-x="493" 
d="M30 557c0 123 92 219 216 219c125 0 217 -96 217 -219s-92 -218 -217 -218c-124 0 -216 95 -216 218zM246 377c99 0 173 77 173 180s-74 181 -173 181s-172 -78 -172 -181s73 -180 172 -180zM216 578h28c22 0 38 10 38 33c0 19 -15 29 -37 29h-29v-62zM216 538v-86h-56
v225h101c39 0 79 -19 79 -68c0 -36 -25 -55 -46 -62l49 -95h-62l-41 86h-24z" />
    <glyph glyph-name="macron" unicode="&#xaf;" horiz-adv-x="349" 
d="M3 636v104h342v-104h-342z" />
    <glyph glyph-name="degree" unicode="&#xb0;" horiz-adv-x="425" 
d="M44 594c0 96 71 169 168 169c98 0 169 -73 169 -169s-71 -168 -169 -168c-97 0 -168 72 -168 168zM212 503c52 0 86 38 86 91s-34 92 -86 92c-51 0 -85 -39 -85 -92s34 -91 85 -91z" />
    <glyph glyph-name="plusminus" unicode="&#xb1;" horiz-adv-x="613" 
d="M368 369v-170h-125v170h-190v116h190v168h125v-168h191v-116h-191zM53 0v115h506v-115h-506z" />
    <glyph glyph-name="twosuperior" unicode="&#xb2;" horiz-adv-x="410" 
d="M137 664h-113c2 96 63 157 180 157c120 0 171 -56 171 -126c0 -65 -36 -103 -105 -158l-79 -65v-2h187v-86h-358v61l174 151c46 39 63 61 63 92c0 32 -21 52 -54 52c-36 0 -66 -19 -66 -76z" />
    <glyph glyph-name="threesuperior" unicode="&#xb3;" horiz-adv-x="417" 
d="M208 567h-50v71h41c33 0 61 19 61 52s-25 51 -57 51c-41 0 -58 -25 -59 -54h-113c2 63 46 136 179 136c108 0 166 -52 166 -117c0 -47 -28 -83 -85 -97v-2c63 -11 96 -47 96 -103c0 -67 -61 -129 -180 -129c-135 0 -178 69 -180 136h116c3 -35 30 -53 63 -53
c41 0 66 25 66 56c0 33 -24 53 -64 53z" />
    <glyph glyph-name="acute" unicode="&#xb4;" horiz-adv-x="349" 
d="M84 614l51 174h158l-88 -174h-121z" />
    <glyph glyph-name="paragraph" unicode="&#xb6;" horiz-adv-x="596" 
d="M430 765h99v-765h-99v765zM251 374c-125 3 -213 67 -213 197c0 136 95 194 222 194h89v-765h-98v374z" />
    <glyph glyph-name="periodcentered" unicode="&#xb7;" horiz-adv-x="271" 
d="M51 267v159h169v-159h-169z" />
    <glyph glyph-name="cedilla" unicode="&#xb8;" horiz-adv-x="516" 
d="M234 30h53l-35 -76h2c10 7 21 10 40 10c48 0 84 -34 84 -89c0 -48 -36 -94 -117 -94c-69 0 -104 37 -106 79h77c4 -12 13 -21 31 -21c23 0 32 13 32 32s-11 31 -32 31c-13 0 -21 -5 -27 -13h-65z" />
    <glyph glyph-name="onesuperior" unicode="&#xb9;" horiz-adv-x="285" 
d="M108 384v280h-94v76h14c26 0 49 5 66 17c15 11 24 31 24 58h105v-431h-115z" />
    <glyph glyph-name="ordmasculine" unicode="&#xba;" horiz-adv-x="508" 
d="M254 309c-134 0 -220 80 -220 221c0 142 85 221 220 221c127 0 220 -77 220 -221c0 -139 -92 -221 -220 -221zM254 653c-61 0 -77 -57 -77 -123c0 -70 20 -123 77 -123c63 0 77 58 77 123c0 70 -18 123 -77 123z" />
    <glyph glyph-name="guillemotright" unicode="&#xbb;" horiz-adv-x="518" 
d="M158 57h-117l98 206l-99 201h117l107 -203zM383 57h-117l98 206l-99 201h117l107 -203z" />
    <glyph glyph-name="onequarter" unicode="&#xbc;" horiz-adv-x="853" 
d="M108 334v280h-94v76h14c26 0 49 5 66 17c15 11 24 31 24 58h105v-431h-115zM64 -40l547 821h111l-547 -821h-111zM546 170h126v184h-3s-12 -32 -35 -63zM831 90h-56v-90h-107v90h-226v76l196 265h137v-256h56v-85z" />
    <glyph glyph-name="onehalf" unicode="&#xbd;" horiz-adv-x="898" 
d="M63 -40l547 821h111l-547 -821h-111zM108 334v280h-94v76h14c26 0 49 5 66 17c15 11 24 31 24 58h105v-431h-115zM625 280h-113c2 96 63 157 180 157c120 0 171 -56 171 -126c0 -65 -37 -102 -105 -158l-79 -65v-2h187v-86h-358v61l174 151c46 40 63 61 63 92
c0 32 -21 52 -54 52c-36 0 -66 -19 -66 -76z" />
    <glyph glyph-name="threequarters" unicode="&#xbe;" horiz-adv-x="932" 
d="M208 517h-50v71h41c33 0 61 19 61 52s-25 51 -57 51c-41 0 -58 -25 -59 -54h-113c2 63 46 136 179 136c108 0 166 -52 166 -117c0 -47 -28 -83 -85 -97v-2c63 -11 96 -47 96 -103c0 -67 -61 -129 -180 -129c-135 0 -178 69 -180 136h116c3 -35 30 -53 63 -53
c41 0 66 25 66 56c0 33 -24 53 -64 53zM161 -40l547 821h111l-547 -821h-111zM625 170h126v184h-3s-12 -32 -35 -63zM910 90h-56v-90h-107v90h-226v76l196 265h137v-256h56v-85z" />
    <glyph glyph-name="questiondown" unicode="&#xbf;" horiz-adv-x="571" 
d="M198 94c0 -56 37 -92 102 -92c64 0 118 35 118 143h152c3 -157 -94 -267 -273 -267c-180 0 -255 93 -255 208c0 92 39 142 104 196l67 56c21 17 28 26 28 54v43h137v-64c0 -63 -8 -79 -61 -122l-57 -47c-38 -32 -62 -58 -62 -108zM222 674h175v-152h-175v152z" />
    <glyph glyph-name="Agrave" unicode="&#xc0;" horiz-adv-x="741" 
d="M363 624c-1 -4 -10 -49 -30 -111l-71 -223h202l-70 222c-21 67 -29 112 -29 112h-2zM560 0l-56 170h-281l-56 -170h-157l267 765h184l271 -765h-172zM364 960l64 -133h-120l-103 133h159z" />
    <glyph glyph-name="Aacute" unicode="&#xc1;" horiz-adv-x="741" 
d="M363 624c-1 -4 -10 -49 -30 -111l-71 -223h202l-70 222c-21 67 -29 112 -29 112h-2zM560 0l-56 170h-281l-56 -170h-157l267 765h184l271 -765h-172zM306 827l64 133h158l-103 -133h-119z" />
    <glyph glyph-name="Acircumflex" unicode="&#xc2;" horiz-adv-x="741" 
d="M363 624c-1 -4 -10 -49 -30 -111l-71 -223h202l-70 222c-21 67 -29 112 -29 112h-2zM560 0l-56 170h-281l-56 -170h-157l267 765h184l271 -765h-172zM441 960l108 -133h-115l-66 56h-1l-64 -56h-106l108 133h136z" />
    <glyph glyph-name="Atilde" unicode="&#xc3;" horiz-adv-x="741" 
d="M363 624c-1 -4 -10 -49 -30 -111l-71 -223h202l-70 222c-21 67 -29 112 -29 112h-2zM560 0l-56 170h-281l-56 -170h-157l267 765h184l271 -765h-172zM180 819c2 85 30 155 116 155c63 0 104 -52 143 -52c20 0 39 14 49 53h71c-2 -85 -30 -155 -116 -155
c-63 0 -103 52 -144 52c-17 0 -38 -13 -47 -53h-72z" />
    <glyph glyph-name="Adieresis" unicode="&#xc4;" horiz-adv-x="741" 
d="M363 624c-1 -4 -10 -49 -30 -111l-71 -223h202l-70 222c-21 67 -29 112 -29 112h-2zM560 0l-56 170h-281l-56 -170h-157l267 765h184l271 -765h-172zM410 828v137h136v-137h-136zM195 828v137h136v-137h-136z" />
    <glyph glyph-name="Aring.original" horiz-adv-x="741" 
d="M363 624c-1 -4 -10 -49 -30 -111l-71 -223h202l-70 222c-21 67 -29 112 -29 112h-2zM560 0l-56 170h-281l-56 -170h-157l267 765h184l271 -765h-172zM369 797c-82 0 -131 49 -131 122s54 124 132 124c84 0 131 -51 131 -124s-53 -122 -132 -122zM369 980
c-32 0 -53 -25 -53 -61s20 -61 54 -61c32 0 52 25 52 61s-19 61 -53 61z" />
    <glyph glyph-name="AE" unicode="&#xc6;" horiz-adv-x="1073" 
d="M515 303v337h-47l-156 -337h203zM257 183l-85 -183h-170l372 765h642v-125h-336v-197h318v-122h-318v-197h345v-124h-510v183h-258z" />
    <glyph glyph-name="Ccedilla" unicode="&#xc7;" horiz-adv-x="746" 
d="M380 -232c-69 0 -104 37 -106 79h77c4 -12 13 -21 31 -21c23 0 32 13 32 32s-11 31 -32 31c-13 0 -21 -5 -27 -13h-65l50 111c-200 22 -300 162 -300 385c0 252 132 404 354 404c187 0 306 -98 317 -270h-169c-8 90 -64 148 -148 148c-103 0 -177 -94 -177 -276
c0 -175 67 -271 176 -271c90 0 141 57 150 153h167c-8 -165 -126 -276 -313 -276h-6l-20 -43h2c10 7 21 10 40 10c48 0 84 -34 84 -89c0 -48 -36 -94 -117 -94z" />
    <glyph glyph-name="Egrave" unicode="&#xc8;" horiz-adv-x="628" 
d="M318 960l64 -133h-120l-103 133h159zM67 0v765h504v-125h-340v-197h322v-122h-322v-197h349v-124h-513z" />
    <glyph glyph-name="Eacute" unicode="&#xc9;" horiz-adv-x="628" 
d="M261 827l64 133h158l-103 -133h-119zM67 0v765h504v-125h-340v-197h322v-122h-322v-197h349v-124h-513z" />
    <glyph glyph-name="Ecircumflex" unicode="&#xca;" horiz-adv-x="628" 
d="M395 960l108 -133h-115l-66 56h-1l-64 -56h-106l108 133h136zM67 0v765h504v-125h-340v-197h322v-122h-322v-197h349v-124h-513z" />
    <glyph glyph-name="Edieresis" unicode="&#xcb;" horiz-adv-x="628" 
d="M67 0v765h504v-125h-340v-197h322v-122h-322v-197h349v-124h-513zM363 828v137h136v-137h-136zM148 828v137h136v-137h-136z" />
    <glyph glyph-name="Igrave" unicode="&#xcc;" horiz-adv-x="298" 
d="M67 0v765h164v-765h-164zM143 960l64 -133h-120l-103 133h159z" />
    <glyph glyph-name="Iacute" unicode="&#xcd;" horiz-adv-x="298" 
d="M67 0v765h164v-765h-164zM86 827l64 133h158l-103 -133h-119z" />
    <glyph glyph-name="Icircumflex" unicode="&#xce;" horiz-adv-x="298" 
d="M67 0v765h164v-765h-164zM220 960l108 -133h-115l-66 56h-1l-64 -56h-106l108 133h136z" />
    <glyph glyph-name="Idieresis" unicode="&#xcf;" horiz-adv-x="298" 
d="M67 0v765h164v-765h-164zM188 828v137h136v-137h-136zM-27 828v137h136v-137h-136z" />
    <glyph glyph-name="Eth" unicode="&#xd0;" horiz-adv-x="772" 
d="M354 0h-265v329h-75v111h75v325h262c225 0 382 -111 382 -373s-155 -392 -379 -392zM253 124h89c132 0 217 66 217 264c0 189 -86 255 -212 255h-94v-203h166v-111h-166v-205z" />
    <glyph glyph-name="Ntilde" unicode="&#xd1;" horiz-adv-x="769" 
d="M195 819c2 85 30 155 116 155c63 0 104 -52 143 -52c20 0 39 14 49 53h71c-2 -85 -30 -155 -116 -155c-63 0 -103 52 -144 52c-17 0 -38 -13 -47 -53h-72zM67 0v765h181l247 -414c39 -66 55 -114 55 -114h3v528h150v-765h-173l-254 422c-41 67 -58 116 -58 116h-3v-538
h-148z" />
    <glyph glyph-name="Ograve" unicode="&#xd2;" horiz-adv-x="802" 
d="M395 960l64 -133h-120l-103 133h159zM40 380c0 252 147 396 361 396c224 0 361 -141 361 -396c0 -252 -142 -396 -361 -396c-229 0 -361 142 -361 396zM401 104c116 0 184 94 184 276c0 183 -76 278 -184 278c-116 0 -183 -93 -183 -278c0 -184 63 -276 183 -276z" />
    <glyph glyph-name="Oacute" unicode="&#xd3;" horiz-adv-x="802" 
d="M336 827l64 133h158l-103 -133h-119zM40 380c0 252 147 396 361 396c224 0 361 -141 361 -396c0 -252 -142 -396 -361 -396c-229 0 -361 142 -361 396zM401 104c116 0 184 94 184 276c0 183 -76 278 -184 278c-116 0 -183 -93 -183 -278c0 -184 63 -276 183 -276z" />
    <glyph glyph-name="Ocircumflex" unicode="&#xd4;" horiz-adv-x="802" 
d="M471 960l108 -133h-115l-66 56h-1l-64 -56h-106l108 133h136zM40 380c0 252 147 396 361 396c224 0 361 -141 361 -396c0 -252 -142 -396 -361 -396c-229 0 -361 142 -361 396zM401 104c116 0 184 94 184 276c0 183 -76 278 -184 278c-116 0 -183 -93 -183 -278
c0 -184 63 -276 183 -276z" />
    <glyph glyph-name="Otilde" unicode="&#xd5;" horiz-adv-x="802" 
d="M211 819c2 85 30 155 116 155c63 0 104 -52 143 -52c20 0 39 14 49 53h71c-2 -85 -30 -155 -116 -155c-63 0 -103 52 -144 52c-17 0 -38 -13 -47 -53h-72zM40 380c0 252 147 396 361 396c224 0 361 -141 361 -396c0 -252 -142 -396 -361 -396c-229 0 -361 142 -361 396z
M401 104c116 0 184 94 184 276c0 183 -76 278 -184 278c-116 0 -183 -93 -183 -278c0 -184 63 -276 183 -276z" />
    <glyph glyph-name="Odieresis" unicode="&#xd6;" horiz-adv-x="802" 
d="M440 828v137h136v-137h-136zM225 828v137h136v-137h-136zM40 380c0 252 147 396 361 396c224 0 361 -141 361 -396c0 -252 -142 -396 -361 -396c-229 0 -361 142 -361 396zM401 104c116 0 184 94 184 276c0 183 -76 278 -184 278c-116 0 -183 -93 -183 -278
c0 -184 63 -276 183 -276z" />
    <glyph glyph-name="multiply" unicode="&#xd7;" horiz-adv-x="612" 
d="M139 95l-86 86l169 166l-168 166l86 87l166 -168l166 168l86 -85l-168 -167l168 -166l-86 -87l-167 169z" />
    <glyph glyph-name="Oslash" unicode="&#xd8;" horiz-adv-x="802" 
d="M401 660c-119 0 -187 -93 -187 -280c0 -51 4 -98 14 -137l295 368c-33 35 -76 49 -122 49zM401 101c118 0 188 95 188 279c0 63 -8 113 -21 152l-300 -374c29 -36 72 -57 133 -57zM762 380c0 -252 -142 -396 -361 -396c-89 0 -164 22 -221 63l-58 -72h-108l105 131
c-52 66 -79 158 -79 274c0 252 147 396 361 396c82 0 153 -19 210 -56l58 73h108l-103 -129c57 -67 88 -162 88 -284z" />
    <glyph glyph-name="Ugrave" unicode="&#xd9;" horiz-adv-x="741" 
d="M365 960l64 -133h-120l-103 133h159zM59 267v498h164l-1 -446c0 -55 1 -118 30 -155c28 -35 68 -50 119 -50c55 0 96 15 123 50c28 37 26 100 26 155v446h162v-498c0 -193 -125 -283 -313 -283s-310 89 -310 283z" />
    <glyph glyph-name="Uacute" unicode="&#xda;" horiz-adv-x="741" 
d="M307 827l64 133h158l-103 -133h-119zM59 267v498h164l-1 -446c0 -55 1 -118 30 -155c28 -35 68 -50 119 -50c55 0 96 15 123 50c28 37 26 100 26 155v446h162v-498c0 -193 -125 -283 -313 -283s-310 89 -310 283z" />
    <glyph glyph-name="Ucircumflex" unicode="&#xdb;" horiz-adv-x="741" 
d="M442 960l108 -133h-115l-66 56h-1l-64 -56h-106l108 133h136zM59 267v498h164l-1 -446c0 -55 1 -118 30 -155c28 -35 68 -50 119 -50c55 0 96 15 123 50c28 37 26 100 26 155v446h162v-498c0 -193 -125 -283 -313 -283s-310 89 -310 283z" />
    <glyph glyph-name="Udieresis" unicode="&#xdc;" horiz-adv-x="741" 
d="M59 267v498h164l-1 -446c0 -55 1 -118 30 -155c28 -35 68 -50 119 -50c55 0 96 15 123 50c28 37 26 100 26 155v446h162v-498c0 -193 -125 -283 -313 -283s-310 89 -310 283zM409 828v137h136v-137h-136zM194 828v137h136v-137h-136z" />
    <glyph glyph-name="Yacute" unicode="&#xdd;" horiz-adv-x="677" 
d="M257 0v320l-256 445h181l161 -301h2l163 301h168l-255 -442v-323h-164zM282 827l64 133h158l-103 -133h-119z" />
    <glyph glyph-name="Thorn" unicode="&#xde;" horiz-adv-x="648" 
d="M348 161h-117v-161h-164v765h164v-148h128c152 0 266 -63 266 -224c0 -168 -117 -232 -277 -232zM340 276c79 2 126 39 126 116c0 82 -49 113 -130 113h-105v-229h109z" />
    <glyph glyph-name="germandbls" unicode="&#xdf;" horiz-adv-x="629" 
d="M58 0v555c0 147 84 237 262 237c152 0 237 -84 237 -201c0 -98 -57 -150 -116 -169v-3c91 -18 161 -81 161 -195c0 -143 -103 -224 -277 -224h-40v115h32c70 0 120 36 120 118c0 78 -51 126 -122 126h-16v115h15c56 0 95 34 95 110c0 75 -43 102 -96 102
c-51 0 -96 -31 -96 -116v-570h-159z" />
    <glyph glyph-name="agrave" unicode="&#xe0;" horiz-adv-x="564" 
d="M246 94c55 0 106 43 106 132v17c-84 -5 -126 -12 -151 -29c-18 -12 -26 -32 -26 -54c0 -39 27 -66 71 -66zM193 377h-152c6 107 91 171 231 171c173 0 233 -71 233 -214v-185c0 -29 9 -40 43 -40v-110h-53c-77 0 -114 15 -131 74h-2c-34 -50 -86 -79 -162 -79
c-112 0 -182 59 -182 159c0 62 28 106 81 134c57 30 138 35 252 40v29c0 59 -25 90 -79 90c-52 0 -77 -29 -79 -69zM293 788l51 -174h-121l-88 174h158z" />
    <glyph glyph-name="aacute" unicode="&#xe1;" horiz-adv-x="564" 
d="M246 94c55 0 106 43 106 132v17c-84 -5 -126 -12 -151 -29c-18 -12 -26 -32 -26 -54c0 -39 27 -66 71 -66zM193 377h-152c6 107 91 171 231 171c173 0 233 -71 233 -214v-185c0 -29 9 -40 43 -40v-110h-53c-77 0 -114 15 -131 74h-2c-34 -50 -86 -79 -162 -79
c-112 0 -182 59 -182 159c0 62 28 106 81 134c57 30 138 35 252 40v29c0 59 -25 90 -79 90c-52 0 -77 -29 -79 -69zM211 614l51 174h158l-88 -174h-121z" />
    <glyph glyph-name="acircumflex" unicode="&#xe2;" horiz-adv-x="564" 
d="M246 94c55 0 106 43 106 132v17c-84 -5 -126 -12 -151 -29c-18 -12 -26 -32 -26 -54c0 -39 27 -66 71 -66zM193 377h-152c6 107 91 171 231 171c173 0 233 -71 233 -214v-185c0 -29 9 -40 43 -40v-110h-53c-77 0 -114 15 -131 74h-2c-34 -50 -86 -79 -162 -79
c-112 0 -182 59 -182 159c0 62 28 106 81 134c57 30 138 35 252 40v29c0 59 -25 90 -79 90c-52 0 -77 -29 -79 -69zM347 788l110 -174h-109l-69 77h-1l-66 -77h-101l110 174h126z" />
    <glyph glyph-name="atilde" unicode="&#xe3;" horiz-adv-x="564" 
d="M246 94c55 0 106 43 106 132v17c-84 -5 -126 -12 -151 -29c-18 -12 -26 -32 -26 -54c0 -39 27 -66 71 -66zM193 377h-152c6 107 91 171 231 171c173 0 233 -71 233 -214v-185c0 -29 9 -40 43 -40v-110h-53c-77 0 -114 15 -131 74h-2c-34 -50 -86 -79 -162 -79
c-112 0 -182 59 -182 159c0 62 28 106 81 134c57 30 138 35 252 40v29c0 59 -25 90 -79 90c-52 0 -77 -29 -79 -69zM91 614c0 89 31 164 118 164c62 0 101 -51 140 -51c19 0 40 10 50 52h71c0 -91 -31 -165 -118 -165c-62 0 -100 51 -140 51c-18 0 -40 -10 -49 -51h-72z" />
    <glyph glyph-name="adieresis" unicode="&#xe4;" horiz-adv-x="564" 
d="M246 94c55 0 106 43 106 132v17c-84 -5 -126 -12 -151 -29c-18 -12 -26 -32 -26 -54c0 -39 27 -66 71 -66zM193 377h-152c6 107 91 171 231 171c173 0 233 -71 233 -214v-185c0 -29 9 -40 43 -40v-110h-53c-77 0 -114 15 -131 74h-2c-34 -50 -86 -79 -162 -79
c-112 0 -182 59 -182 159c0 62 28 106 81 134c57 30 138 35 252 40v29c0 59 -25 90 -79 90c-52 0 -77 -29 -79 -69zM316 636v137h137v-137h-137zM108 636v137h136v-137h-136z" />
    <glyph glyph-name="aring.original" horiz-adv-x="564" 
d="M246 94c55 0 106 43 106 132v17c-84 -5 -126 -12 -151 -29c-18 -12 -26 -32 -26 -54c0 -39 27 -66 71 -66zM193 377h-152c6 107 91 171 231 171c173 0 233 -71 233 -214v-185c0 -29 9 -40 43 -40v-110h-53c-77 0 -114 15 -131 74h-2c-34 -50 -86 -79 -162 -79
c-112 0 -182 59 -182 159c0 62 28 106 81 134c57 30 138 35 252 40v29c0 59 -25 90 -79 90c-52 0 -77 -29 -79 -69zM282 602c-82 0 -131 49 -131 123c0 72 54 123 132 123c84 0 131 -51 131 -123c0 -74 -53 -123 -132 -123zM282 785c-32 0 -53 -24 -53 -61
c0 -36 20 -60 54 -60c32 0 52 24 52 60c0 37 -19 61 -53 61z" />
    <glyph glyph-name="ae" unicode="&#xe6;" horiz-adv-x="895" 
d="M704 322v6c-6 77 -35 122 -100 122c-63 0 -96 -48 -103 -128h203zM246 94c56 0 107 45 107 132v13c-84 0 -127 -8 -152 -25c-18 -12 -26 -32 -26 -54c0 -40 28 -66 71 -66zM861 156c-17 -108 -106 -170 -251 -170c-117 0 -179 45 -210 101h-2c-39 -55 -101 -93 -198 -93
c-112 0 -182 59 -182 159c0 62 28 106 81 134c57 30 139 35 252 37v32c0 57 -25 90 -79 90c-53 0 -77 -30 -79 -69h-152c6 107 90 171 233 171c88 0 136 -27 163 -68h2c35 43 92 69 167 69c185 0 259 -120 259 -276v-42h-364c7 -98 43 -138 110 -138c63 0 84 31 93 63h157z
" />
    <glyph glyph-name="ccedilla" unicode="&#xe7;" horiz-adv-x="575" 
d="M297 -232c-69 0 -104 37 -106 79h77c4 -12 13 -21 31 -21c23 0 32 13 32 32s-11 31 -32 31c-13 0 -21 -5 -27 -13h-65l51 113c-148 16 -230 118 -230 279c0 174 104 281 271 281c143 0 244 -70 248 -205h-156c-5 57 -32 99 -92 99c-83 0 -108 -84 -108 -173
c0 -83 17 -174 107 -174c70 0 95 51 97 103h154c-4 -137 -104 -208 -240 -212l-21 -46h2c10 7 21 10 40 10c48 0 84 -34 84 -89c0 -48 -36 -94 -117 -94z" />
    <glyph glyph-name="egrave" unicode="&#xe8;" horiz-adv-x="581" 
d="M390 322v7c-5 76 -35 121 -95 121c-65 0 -99 -46 -107 -128h202zM547 156c-16 -104 -109 -170 -254 -170c-173 0 -265 111 -265 283c0 164 98 280 267 280c181 0 257 -119 257 -276v-42h-364c7 -96 43 -138 110 -138c63 0 83 31 93 63h156zM308 788l51 -174h-121l-88 174
h158z" />
    <glyph glyph-name="eacute" unicode="&#xe9;" horiz-adv-x="581" 
d="M224 614l51 174h158l-88 -174h-121zM390 322v7c-5 76 -35 121 -95 121c-65 0 -99 -46 -107 -128h202zM547 156c-16 -104 -109 -170 -254 -170c-173 0 -265 111 -265 283c0 164 98 280 267 280c181 0 257 -119 257 -276v-42h-364c7 -96 43 -138 110 -138c63 0 83 31 93 63
h156z" />
    <glyph glyph-name="ecircumflex" unicode="&#xea;" horiz-adv-x="581" 
d="M361 788l110 -174h-109l-69 77h-1l-66 -77h-101l110 174h126zM390 322v7c-5 76 -35 121 -95 121c-65 0 -99 -46 -107 -128h202zM547 156c-16 -104 -109 -170 -254 -170c-173 0 -265 111 -265 283c0 164 98 280 267 280c181 0 257 -119 257 -276v-42h-364
c7 -96 43 -138 110 -138c63 0 83 31 93 63h156z" />
    <glyph glyph-name="edieresis" unicode="&#xeb;" horiz-adv-x="581" 
d="M329 636v137h137v-137h-137zM121 636v137h136v-137h-136zM390 322v7c-5 76 -35 121 -95 121c-65 0 -99 -46 -107 -128h202zM547 156c-16 -104 -109 -170 -254 -170c-173 0 -265 111 -265 283c0 164 98 280 267 280c181 0 257 -119 257 -276v-42h-364
c7 -96 43 -138 110 -138c63 0 83 31 93 63h156z" />
    <glyph glyph-name="igrave" unicode="&#xec;" horiz-adv-x="275" 
d="M58 0v536h159v-536h-159zM153 788l51 -174h-121l-88 174h158z" />
    <glyph glyph-name="iacute" unicode="&#xed;" horiz-adv-x="275" 
d="M68 614l51 174h158l-88 -174h-121zM58 0v536h159v-536h-159z" />
    <glyph glyph-name="icircumflex" unicode="&#xee;" horiz-adv-x="275" 
d="M196 788l99 -174h-98l-62 77h-1l-59 -77h-91l99 174h113zM58 0v536h159v-536h-159z" />
    <glyph glyph-name="idieresis" unicode="&#xef;" horiz-adv-x="275" 
d="M171 636v137h123v-137h-123zM-16 636v137h122v-137h-122zM58 0v536h159v-536h-159z" />
    <glyph glyph-name="eth" unicode="&#xf0;" horiz-adv-x="602" 
d="M298 -14c-169 0 -270 101 -270 279c0 170 95 280 231 280c54 0 82 -18 109 -45h2c-23 46 -62 87 -107 124l-133 -52l-24 63l94 37c-35 25 -72 47 -106 68l117 55c46 -19 90 -41 129 -68l108 42l23 -63l-70 -27c104 -94 168 -224 168 -388c0 -211 -109 -305 -271 -305z
M300 444c-80 0 -108 -68 -108 -179c0 -101 28 -172 107 -172c80 0 106 71 106 172c0 109 -28 179 -105 179z" />
    <glyph glyph-name="ntilde" unicode="&#xf1;" horiz-adv-x="621" 
d="M410 0v313c0 38 -2 69 -16 89c-15 21 -39 31 -69 31c-71 0 -108 -45 -108 -123v-310h-159v536h153v-88h2c29 54 82 99 174 99c129 0 182 -67 182 -199v-348h-159zM127 613c0 89 31 164 118 164c62 0 101 -51 140 -51c19 0 40 10 50 52h71c0 -91 -31 -165 -118 -165
c-62 0 -100 51 -140 51c-18 0 -40 -10 -49 -51h-72z" />
    <glyph glyph-name="ograve" unicode="&#xf2;" horiz-adv-x="599" 
d="M299 -14c-169 0 -271 107 -271 282c0 176 104 281 272 281c164 0 271 -104 271 -281c0 -175 -111 -282 -272 -282zM300 442c-79 0 -108 -75 -108 -174c0 -104 30 -175 108 -175c80 0 106 76 106 175c0 103 -28 174 -106 174zM315 788l51 -174h-121l-88 174h158z" />
    <glyph glyph-name="oacute" unicode="&#xf3;" horiz-adv-x="599" 
d="M230 614l51 174h158l-88 -174h-121zM299 -14c-169 0 -271 107 -271 282c0 176 104 281 272 281c164 0 271 -104 271 -281c0 -175 -111 -282 -272 -282zM300 442c-79 0 -108 -75 -108 -174c0 -104 30 -175 108 -175c80 0 106 76 106 175c0 103 -28 174 -106 174z" />
    <glyph glyph-name="ocircumflex" unicode="&#xf4;" horiz-adv-x="599" 
d="M367 788l110 -174h-109l-69 77h-1l-66 -77h-101l110 174h126zM299 -14c-169 0 -271 107 -271 282c0 176 104 281 272 281c164 0 271 -104 271 -281c0 -175 -111 -282 -272 -282zM300 442c-79 0 -108 -75 -108 -174c0 -104 30 -175 108 -175c80 0 106 76 106 175
c0 103 -28 174 -106 174z" />
    <glyph glyph-name="otilde" unicode="&#xf5;" horiz-adv-x="599" 
d="M299 -14c-169 0 -271 107 -271 282c0 176 104 281 272 281c164 0 271 -104 271 -281c0 -175 -111 -282 -272 -282zM300 442c-79 0 -108 -75 -108 -174c0 -104 30 -175 108 -175c80 0 106 76 106 175c0 103 -28 174 -106 174zM110 614c0 89 31 164 118 164
c62 0 101 -51 140 -51c19 0 40 10 50 52h71c0 -91 -31 -165 -118 -165c-62 0 -100 51 -140 51c-18 0 -40 -10 -49 -51h-72z" />
    <glyph glyph-name="odieresis" unicode="&#xf6;" horiz-adv-x="599" 
d="M335 636v137h137v-137h-137zM127 636v137h136v-137h-136zM299 -14c-169 0 -271 107 -271 282c0 176 104 281 272 281c164 0 271 -104 271 -281c0 -175 -111 -282 -272 -282zM300 442c-79 0 -108 -75 -108 -174c0 -104 30 -175 108 -175c80 0 106 76 106 175
c0 103 -28 174 -106 174z" />
    <glyph glyph-name="divide" unicode="&#xf7;" horiz-adv-x="613" 
d="M229 492v143h153v-143h-153zM66 300v116h480v-116h-480zM382 78h-153v144h153v-144z" />
    <glyph glyph-name="oslash" unicode="&#xf8;" horiz-adv-x="599" 
d="M300 445c-84 0 -113 -77 -113 -177c0 -28 2 -52 6 -74l180 223c-17 18 -41 28 -73 28zM300 91c85 0 112 77 112 177c0 27 -2 51 -5 73l-181 -222c17 -18 42 -28 74 -28zM571 268c0 -175 -111 -282 -272 -282c-59 0 -109 13 -150 37l-50 -61h-94l87 108
c-41 48 -64 115 -64 198c0 176 104 281 272 281c58 0 109 -13 150 -37l49 60h95l-87 -108c41 -47 64 -114 64 -196z" />
    <glyph glyph-name="ugrave" unicode="&#xf9;" horiz-adv-x="617" 
d="M212 536v-313c0 -38 3 -68 16 -88c14 -21 37 -31 68 -31c70 0 105 48 105 139v293h159v-536h-153v87h-2c-28 -54 -80 -97 -168 -97c-129 0 -184 63 -184 189v357h159zM322 788l51 -174h-121l-88 174h158z" />
    <glyph glyph-name="uacute" unicode="&#xfa;" horiz-adv-x="617" 
d="M237 614l51 174h158l-88 -174h-121zM212 536v-313c0 -38 3 -68 16 -88c14 -21 37 -31 68 -31c70 0 105 48 105 139v293h159v-536h-153v87h-2c-28 -54 -80 -97 -168 -97c-129 0 -184 63 -184 189v357h159z" />
    <glyph glyph-name="ucircumflex" unicode="&#xfb;" horiz-adv-x="617" 
d="M374 788l110 -174h-109l-69 77h-1l-66 -77h-101l110 174h126zM212 536v-313c0 -38 3 -68 16 -88c14 -21 37 -31 68 -31c70 0 105 48 105 139v293h159v-536h-153v87h-2c-28 -54 -80 -97 -168 -97c-129 0 -184 63 -184 189v357h159z" />
    <glyph glyph-name="udieresis" unicode="&#xfc;" horiz-adv-x="617" 
d="M344 636v137h137v-137h-137zM136 636v137h136v-137h-136zM212 536v-313c0 -38 3 -68 16 -88c14 -21 37 -31 68 -31c70 0 105 48 105 139v293h159v-536h-153v87h-2c-28 -54 -80 -97 -168 -97c-129 0 -184 63 -184 189v357h159z" />
    <glyph glyph-name="yacute" unicode="&#xfd;" horiz-adv-x="551" 
d="M207 -3l-200 539h164l88 -282c18 -58 24 -105 24 -105h3s6 47 23 105l83 282h155l-188 -553c-43 -125 -95 -182 -234 -182c-52 0 -76 6 -79 7v116c9 -2 31 -5 54 -5c60 0 88 17 103 65zM216 614l51 174h158l-88 -174h-121z" />
    <glyph glyph-name="thorn" unicode="&#xfe;" horiz-adv-x="626" 
d="M215 239c0 -84 36 -146 110 -146c70 0 110 60 110 175c0 113 -35 171 -111 171c-64 0 -109 -53 -109 -142v-58zM58 -188v976h159v-332h2c27 49 83 92 163 92c124 0 215 -80 215 -278c0 -179 -91 -283 -230 -283c-77 0 -125 38 -147 80h-3v-255h-159z" />
    <glyph glyph-name="ydieresis" unicode="&#xff;" horiz-adv-x="551" 
d="M207 -3l-200 539h164l88 -282c18 -58 24 -105 24 -105h3s6 47 23 105l83 282h155l-188 -553c-43 -125 -95 -182 -234 -182c-52 0 -76 6 -79 7v116c9 -2 31 -5 54 -5c60 0 88 17 103 65zM321 636v137h137v-137h-137zM113 636v137h136v-137h-136z" />
    <glyph glyph-name="Amacron" unicode="&#x100;" horiz-adv-x="741" 
d="M363 624c-1 -4 -10 -49 -30 -111l-71 -223h202l-70 222c-21 67 -29 112 -29 112h-2zM560 0l-56 170h-281l-56 -170h-157l267 765h184l271 -765h-172zM198 838v104h342v-104h-342z" />
    <glyph glyph-name="amacron" unicode="&#x101;" horiz-adv-x="564" 
d="M246 94c55 0 106 43 106 132v17c-84 -5 -126 -12 -151 -29c-18 -12 -26 -32 -26 -54c0 -39 27 -66 71 -66zM193 377h-152c6 107 91 171 231 171c173 0 233 -71 233 -214v-185c0 -29 9 -40 43 -40v-110h-53c-77 0 -114 15 -131 74h-2c-34 -50 -86 -79 -162 -79
c-112 0 -182 59 -182 159c0 62 28 106 81 134c57 30 138 35 252 40v29c0 59 -25 90 -79 90c-52 0 -77 -29 -79 -69zM109 636v104h342v-104h-342z" />
    <glyph glyph-name="Abreve" unicode="&#x102;" horiz-adv-x="741" 
d="M363 624c-1 -4 -10 -49 -30 -111l-71 -223h202l-70 222c-21 67 -29 112 -29 112h-2zM560 0l-56 170h-281l-56 -170h-157l267 765h184l271 -765h-172zM369 815c-90 0 -163 45 -166 157h103c3 -40 30 -63 66 -63s63 23 67 63h97c-3 -112 -76 -157 -167 -157z" />
    <glyph glyph-name="abreve" unicode="&#x103;" horiz-adv-x="564" 
d="M246 94c55 0 106 43 106 132v17c-84 -5 -126 -12 -151 -29c-18 -12 -26 -32 -26 -54c0 -39 27 -66 71 -66zM193 377h-152c6 107 91 171 231 171c173 0 233 -71 233 -214v-185c0 -29 9 -40 43 -40v-110h-53c-77 0 -114 15 -131 74h-2c-34 -50 -86 -79 -162 -79
c-112 0 -182 59 -182 159c0 62 28 106 81 134c57 30 138 35 252 40v29c0 59 -25 90 -79 90c-52 0 -77 -29 -79 -69zM280 612c-92 0 -166 52 -166 176h105c0 -49 26 -74 64 -74s65 25 65 74h99c0 -124 -74 -176 -167 -176z" />
    <glyph glyph-name="Aogonek" unicode="&#x104;" horiz-adv-x="741" 
d="M10 0l267 765h184l268 -758c-46 -25 -64 -48 -64 -71s15 -34 51 -35v-89h-29c-107 0 -142 38 -142 90c0 37 25 75 77 98h-63l-56 170h-280l-56 -170h-157zM262 290h202l-70 222c-21 67 -29 112 -29 112h-2s-9 -46 -30 -111z" />
    <glyph glyph-name="aogonek" unicode="&#x105;" horiz-adv-x="564" 
d="M193 377h-152c6 107 91 171 231 171c173 0 233 -71 233 -214v-185c0 -29 9 -40 43 -40v-109c-39 -24 -54 -44 -54 -65c0 -22 15 -33 51 -34v-89h-29c-107 0 -143 37 -143 90c0 38 25 76 85 97v2c-49 7 -79 21 -94 72h-2c-34 -50 -86 -79 -162 -79
c-112 0 -182 59 -182 159c0 62 28 106 81 134c57 30 138 35 252 40v29c0 59 -25 90 -79 90c-52 0 -77 -29 -79 -69zM246 94c55 0 106 43 106 132v17c-84 -5 -126 -12 -151 -29c-18 -12 -26 -32 -26 -54c0 -39 27 -66 71 -66z" />
    <glyph glyph-name="Cacute" unicode="&#x106;" horiz-adv-x="746" 
d="M394 654c-103 0 -177 -94 -177 -276c0 -175 67 -271 176 -271c90 0 141 57 150 153h167c-8 -165 -126 -276 -313 -276c-238 0 -357 145 -357 388c0 252 132 404 354 404c187 0 306 -98 317 -270h-169c-8 90 -64 148 -148 148zM335 827l64 133h158l-103 -133h-119z" />
    <glyph glyph-name="cacute" unicode="&#x107;" horiz-adv-x="575" 
d="M234 614l51 174h158l-88 -174h-121zM547 344h-156c-5 57 -32 99 -92 99c-83 0 -108 -84 -108 -173c0 -83 17 -174 107 -174c70 0 95 51 97 103h154c-4 -141 -110 -212 -251 -212c-173 0 -270 106 -270 281c0 174 104 281 271 281c143 0 244 -70 248 -205z" />
    <glyph glyph-name="Ccircumflex" unicode="&#x108;" horiz-adv-x="746" 
d="M469 960l108 -133h-115l-66 56h-1l-64 -56h-106l108 133h136zM394 654c-103 0 -177 -94 -177 -276c0 -175 67 -271 176 -271c90 0 141 57 150 153h167c-8 -165 -126 -276 -313 -276c-238 0 -357 145 -357 388c0 252 132 404 354 404c187 0 306 -98 317 -270h-169
c-8 90 -64 148 -148 148z" />
    <glyph glyph-name="ccircumflex" unicode="&#x109;" horiz-adv-x="575" 
d="M371 788l110 -174h-109l-69 77h-1l-66 -77h-101l110 174h126zM547 344h-156c-5 57 -32 99 -92 99c-83 0 -108 -84 -108 -173c0 -83 17 -174 107 -174c70 0 95 51 97 103h154c-4 -141 -110 -212 -251 -212c-173 0 -270 106 -270 281c0 174 104 281 271 281
c143 0 244 -70 248 -205z" />
    <glyph glyph-name="Cdotaccent" unicode="&#x10a;" horiz-adv-x="746" 
d="M394 654c-103 0 -177 -94 -177 -276c0 -175 67 -271 176 -271c90 0 141 57 150 153h167c-8 -165 -126 -276 -313 -276c-238 0 -357 145 -357 388c0 252 132 404 354 404c187 0 306 -98 317 -270h-169c-8 90 -64 148 -148 148zM329 833v137h137v-137h-137z" />
    <glyph glyph-name="cdotaccent" unicode="&#x10b;" horiz-adv-x="575" 
d="M547 344h-156c-5 57 -32 99 -92 99c-83 0 -108 -84 -108 -173c0 -83 17 -174 107 -174c70 0 95 51 97 103h154c-4 -141 -110 -212 -251 -212c-173 0 -270 106 -270 281c0 174 104 281 271 281c143 0 244 -70 248 -205zM234 636v137h137v-137h-137z" />
    <glyph glyph-name="Ccaron" unicode="&#x10c;" horiz-adv-x="746" 
d="M323 827l-108 133h115l66 -56h1l64 56h106l-108 -133h-136zM394 654c-103 0 -177 -94 -177 -276c0 -175 67 -271 176 -271c90 0 141 57 150 153h167c-8 -165 -126 -276 -313 -276c-238 0 -357 145 -357 388c0 252 132 404 354 404c187 0 306 -98 317 -270h-169
c-8 90 -64 148 -148 148z" />
    <glyph glyph-name="ccaron" unicode="&#x10d;" horiz-adv-x="575" 
d="M234 614l-110 174h109l69 -77h1l66 77h101l-110 -174h-126zM547 344h-156c-5 57 -32 99 -92 99c-83 0 -108 -84 -108 -173c0 -83 17 -174 107 -174c70 0 95 51 97 103h154c-4 -141 -110 -212 -251 -212c-173 0 -270 106 -270 281c0 174 104 281 271 281
c143 0 244 -70 248 -205z" />
    <glyph glyph-name="Dcaron" unicode="&#x10e;" horiz-adv-x="750" 
d="M270 827l-108 133h115l66 -56h1l64 56h106l-108 -133h-136zM67 0v765h261c226 0 383 -111 383 -373s-155 -392 -379 -392h-265zM231 124h89c132 0 217 66 217 264c0 189 -86 255 -212 255h-94v-519z" />
    <glyph glyph-name="dcaron" unicode="&#x10f;" horiz-adv-x="629" 
d="M635 601l6 187h125l-56 -187h-75zM414 228v64c0 94 -42 147 -108 147c-71 0 -115 -56 -115 -173c0 -109 33 -173 111 -173c73 0 112 58 112 135zM571 788v-788h-152v79h-2c-28 -47 -76 -93 -160 -93c-142 0 -228 89 -228 275c0 189 101 286 234 286c69 0 122 -32 147 -82
h2v323h159z" />
    <glyph glyph-name="Dcroat" unicode="&#x110;" horiz-adv-x="772" 
d="M354 0h-265v329h-75v111h75v325h262c225 0 382 -111 382 -373s-155 -392 -379 -392zM253 124h89c132 0 217 66 217 264c0 189 -86 255 -212 255h-94v-203h166v-111h-166v-205z" />
    <glyph glyph-name="dcroat" unicode="&#x111;" horiz-adv-x="629" 
d="M414 228v64c0 94 -42 147 -108 147c-71 0 -115 -56 -115 -173c0 -109 33 -173 111 -173c73 0 112 58 112 135zM417 79c-28 -47 -76 -93 -160 -93c-142 0 -228 89 -228 275c0 189 101 286 234 286c69 0 122 -32 147 -82h2v142h-149v93h149v88h159v-88h79v-93h-79v-607
h-152v79h-2z" />
    <glyph glyph-name="Emacron" unicode="&#x112;" horiz-adv-x="628" 
d="M67 0v765h504v-125h-340v-197h322v-122h-322v-197h349v-124h-513zM152 838v104h342v-104h-342z" />
    <glyph glyph-name="emacron" unicode="&#x113;" horiz-adv-x="581" 
d="M390 322v7c-5 76 -35 121 -95 121c-65 0 -99 -46 -107 -128h202zM547 156c-16 -104 -109 -170 -254 -170c-173 0 -265 111 -265 283c0 164 98 280 267 280c181 0 257 -119 257 -276v-42h-364c7 -96 43 -138 110 -138c63 0 83 31 93 63h156zM122 636v104h342v-104h-342z
" />
    <glyph glyph-name="Ebreve" unicode="&#x114;" horiz-adv-x="628" 
d="M67 0v765h504v-125h-340v-197h322v-122h-322v-197h349v-124h-513zM323 815c-90 0 -163 45 -166 157h103c3 -40 30 -63 66 -63s63 23 67 63h97c-3 -112 -76 -157 -167 -157z" />
    <glyph glyph-name="ebreve" unicode="&#x115;" horiz-adv-x="581" 
d="M390 322v7c-5 76 -35 121 -95 121c-65 0 -99 -46 -107 -128h202zM547 156c-16 -104 -109 -170 -254 -170c-173 0 -265 111 -265 283c0 164 98 280 267 280c181 0 257 -119 257 -276v-42h-364c7 -96 43 -138 110 -138c63 0 83 31 93 63h156zM293 612
c-92 0 -166 52 -166 176h105c0 -49 26 -74 64 -74s65 25 65 74h99c0 -124 -74 -176 -167 -176z" />
    <glyph glyph-name="Edotaccent" unicode="&#x116;" horiz-adv-x="628" 
d="M254 833v137h137v-137h-137zM67 0v765h504v-125h-340v-197h322v-122h-322v-197h349v-124h-513z" />
    <glyph glyph-name="edotaccent" unicode="&#x117;" horiz-adv-x="581" 
d="M390 322v7c-5 76 -35 121 -95 121c-65 0 -99 -46 -107 -128h202zM547 156c-16 -104 -109 -170 -254 -170c-173 0 -265 111 -265 283c0 164 98 280 267 280c181 0 257 -119 257 -276v-42h-364c7 -96 43 -138 110 -138c63 0 83 31 93 63h156zM224 636v137h137v-137h-137z
" />
    <glyph glyph-name="Eogonek" unicode="&#x118;" horiz-adv-x="628" 
d="M580 -99v-89h-29c-107 0 -143 38 -143 90c0 38 26 76 80 98h-421v765h504v-125h-340v-197h322v-122h-322v-197h349v-124c-36 -24 -51 -43 -51 -64c0 -23 15 -34 51 -35z" />
    <glyph glyph-name="eogonek" unicode="&#x119;" horiz-adv-x="581" 
d="M391 156h156c-7 -43 -25 -81 -67 -115c-47 -39 -82 -73 -82 -105c0 -23 15 -34 51 -35v-89h-29c-107 0 -143 38 -143 88c0 40 28 69 87 92v2c-21 -3 -49 -8 -71 -8c-173 0 -265 111 -265 283c0 164 100 280 266 280c184 0 258 -119 258 -276v-42h-364
c6 -94 41 -138 110 -138c63 0 83 31 93 63zM188 322h202c-3 80 -33 128 -96 128s-99 -47 -106 -128z" />
    <glyph glyph-name="Ecaron" unicode="&#x11a;" horiz-adv-x="628" 
d="M249 827l-108 133h115l66 -56h1l64 56h106l-108 -133h-136zM67 0v765h504v-125h-340v-197h322v-122h-322v-197h349v-124h-513z" />
    <glyph glyph-name="ecaron" unicode="&#x11b;" horiz-adv-x="581" 
d="M224 614l-110 174h109l69 -77h1l66 77h101l-110 -174h-126zM390 322v7c-5 76 -35 121 -95 121c-65 0 -99 -46 -107 -128h202zM547 156c-16 -104 -109 -170 -254 -170c-173 0 -265 111 -265 283c0 164 98 280 267 280c181 0 257 -119 257 -276v-42h-364
c7 -96 43 -138 110 -138c63 0 83 31 93 63h156z" />
    <glyph glyph-name="Gcircumflex" unicode="&#x11c;" horiz-adv-x="790" 
d="M463 960l108 -133h-115l-66 56h-1l-64 -56h-106l108 133h136zM402 658c-119 0 -187 -97 -187 -279c0 -198 71 -276 187 -276c105 0 166 64 174 173l1 14h-181v118h334v-408h-130v104h-4c-36 -69 -109 -120 -222 -120c-218 0 -334 151 -334 387c0 248 145 405 362 405
c184 0 295 -87 313 -243h-167c-10 74 -65 125 -146 125z" />
    <glyph glyph-name="gcircumflex" unicode="&#x11d;" horiz-adv-x="626" 
d="M349 788l110 -174h-109l-69 77h-1l-66 -77h-101l110 174h126zM416 244v58c0 87 -45 137 -112 137c-66 0 -113 -53 -113 -161c0 -102 36 -160 113 -160c67 0 112 54 112 126zM299 -199c-167 0 -245 66 -253 167h153c10 -40 33 -63 102 -63c78 0 115 35 115 130v76h-3
c-19 -43 -66 -94 -156 -94c-140 0 -228 81 -228 261c0 175 102 269 232 269c82 0 131 -41 153 -84h2v73h152v-493c0 -162 -87 -242 -269 -242z" />
    <glyph glyph-name="Gbreve" unicode="&#x11e;" horiz-adv-x="790" 
d="M395 815c-90 0 -163 45 -166 157h103c3 -40 30 -63 66 -63s63 23 67 63h97c-3 -112 -76 -157 -167 -157zM402 658c-119 0 -187 -97 -187 -279c0 -198 71 -276 187 -276c105 0 166 64 174 173l1 14h-181v118h334v-408h-130v104h-4c-36 -69 -109 -120 -222 -120
c-218 0 -334 151 -334 387c0 248 145 405 362 405c184 0 295 -87 313 -243h-167c-10 74 -65 125 -146 125z" />
    <glyph glyph-name="gbreve" unicode="&#x11f;" horiz-adv-x="626" 
d="M416 244v58c0 87 -45 137 -112 137c-66 0 -113 -53 -113 -161c0 -102 36 -160 113 -160c67 0 112 54 112 126zM299 -199c-167 0 -245 66 -253 167h153c10 -40 33 -63 102 -63c78 0 115 35 115 130v76h-3c-19 -43 -66 -94 -156 -94c-140 0 -228 81 -228 261
c0 175 102 269 232 269c82 0 131 -41 153 -84h2v73h152v-493c0 -162 -87 -242 -269 -242zM282 612c-92 0 -166 52 -166 176h105c0 -49 26 -74 64 -74s65 25 65 74h99c0 -124 -74 -176 -167 -176z" />
    <glyph glyph-name="Gdotaccent" unicode="&#x120;" horiz-adv-x="790" 
d="M326 833v137h137v-137h-137zM402 658c-119 0 -187 -97 -187 -279c0 -198 71 -276 187 -276c105 0 166 64 174 173l1 14h-181v118h334v-408h-130v104h-4c-36 -69 -109 -120 -222 -120c-218 0 -334 151 -334 387c0 248 145 405 362 405c184 0 295 -87 313 -243h-167
c-10 74 -65 125 -146 125z" />
    <glyph glyph-name="gdotaccent" unicode="&#x121;" horiz-adv-x="626" 
d="M416 244v58c0 87 -45 137 -112 137c-66 0 -113 -53 -113 -161c0 -102 36 -160 113 -160c67 0 112 54 112 126zM299 -199c-167 0 -245 66 -253 167h153c10 -40 33 -63 102 -63c78 0 115 35 115 130v76h-3c-19 -43 -66 -94 -156 -94c-140 0 -228 81 -228 261
c0 175 102 269 232 269c82 0 131 -41 153 -84h2v73h152v-493c0 -162 -87 -242 -269 -242zM213 636v137h137v-137h-137z" />
    <glyph glyph-name="Gcommaaccent" unicode="&#x122;" horiz-adv-x="790" 
d="M293 -220l24 156h154l-73 -156h-105zM402 658c-119 0 -187 -97 -187 -279c0 -198 71 -276 187 -276c105 0 166 64 174 173l1 14h-181v118h334v-408h-130v104h-4c-36 -69 -109 -120 -222 -120c-218 0 -334 151 -334 387c0 248 145 405 362 405c184 0 295 -87 313 -243
h-167c-10 74 -65 125 -146 125z" />
    <glyph glyph-name="gcommaaccent" unicode="&#x123;" horiz-adv-x="626" 
d="M377 782l-27 -165h-157l79 165h105zM416 244v58c0 87 -45 137 -112 137c-66 0 -113 -53 -113 -161c0 -102 36 -160 113 -160c67 0 112 54 112 126zM299 -199c-167 0 -245 66 -253 167h153c10 -40 33 -63 102 -63c78 0 115 35 115 130v76h-3c-19 -43 -66 -94 -156 -94
c-140 0 -228 81 -228 261c0 175 102 269 232 269c82 0 131 -41 153 -84h2v73h152v-493c0 -162 -87 -242 -269 -242z" />
    <glyph glyph-name="Hcircumflex" unicode="&#x124;" horiz-adv-x="772" 
d="M231 318v-318h-164v765h164v-319h308v319h166v-765h-166v318h-308zM458 960l108 -133h-115l-66 56h-1l-64 -56h-106l108 133h136z" />
    <glyph glyph-name="hcircumflex" unicode="&#x125;" horiz-adv-x="621" 
d="M410 0v314c0 38 -2 68 -16 88c-15 21 -39 31 -69 31c-71 0 -108 -45 -108 -123v-310h-159v788h159v-338h2c24 49 80 97 168 97c129 0 182 -67 182 -199v-348h-159zM385 960l108 -133h-115l-66 56h-1l-64 -56h-106l108 133h136z" />
    <glyph glyph-name="Hbar" unicode="&#x126;" horiz-adv-x="772" 
d="M539 446v118h-308v-118h308zM231 318v-318h-164v564h-77v94h77v107h164v-107h308v107h166v-107h77v-94h-77v-564h-166v318h-308z" />
    <glyph glyph-name="hbar" unicode="&#x127;" horiz-adv-x="621" 
d="M217 310v-310h-159v607h-79v93h79v88h158v-88h151v-93h-151v-157h2c24 49 81 97 169 97c129 0 182 -67 182 -199v-348h-159v314c0 38 -2 68 -16 88c-15 21 -39 31 -69 31c-71 0 -108 -45 -108 -123z" />
    <glyph glyph-name="Itilde" unicode="&#x128;" horiz-adv-x="298" 
d="M67 0v765h164v-765h-164zM-41 819c2 85 30 155 116 155c63 0 104 -52 143 -52c20 0 39 14 49 53h71c-2 -85 -30 -155 -116 -155c-63 0 -103 52 -144 52c-17 0 -38 -13 -47 -53h-72z" />
    <glyph glyph-name="itilde" unicode="&#x129;" horiz-adv-x="275" 
d="M58 0v536h159v-536h-159zM-23 614c0 89 27 164 101 164c52 0 85 -51 119 -51c16 0 34 10 42 52h60c0 -91 -26 -165 -100 -165c-53 0 -85 51 -119 51c-15 0 -34 -10 -42 -51h-61z" />
    <glyph glyph-name="Imacron" unicode="&#x12a;" horiz-adv-x="298" 
d="M67 0v765h164v-765h-164zM-23 838v104h342v-104h-342z" />
    <glyph glyph-name="imacron" unicode="&#x12b;" horiz-adv-x="275" 
d="M58 0v536h159v-536h-159zM3 636v104h274v-104h-274z" />
    <glyph glyph-name="Ibreve" unicode="&#x12c;" horiz-adv-x="298" 
d="M67 0v765h164v-765h-164zM148 815c-90 0 -163 45 -166 157h103c3 -40 30 -63 66 -63s63 23 67 63h97c-3 -112 -76 -157 -167 -157z" />
    <glyph glyph-name="ibreve" unicode="&#x12d;" horiz-adv-x="275" 
d="M58 0v536h159v-536h-159zM139 612c-83 0 -150 52 -150 176h95c0 -49 23 -74 57 -74s59 25 59 74h89c0 -124 -67 -176 -150 -176z" />
    <glyph glyph-name="Iogonek" unicode="&#x12e;" horiz-adv-x="298" 
d="M67 0v765h164v-753c-52 -33 -67 -55 -67 -76c0 -23 15 -34 51 -35v-89h-29c-107 0 -142 38 -142 90c0 38 25 75 78 98h-55z" />
    <glyph glyph-name="iogonek" unicode="&#x12f;" horiz-adv-x="275" 
d="M57 629v144h161v-144h-161zM58 0v536h159v-527c-51 -30 -66 -51 -66 -73c0 -23 15 -34 51 -35v-89h-29c-106 0 -142 38 -142 90c0 40 28 77 79 98h-52z" />
    <glyph glyph-name="Idotaccent" unicode="&#x130;" horiz-adv-x="298" 
d="M67 0v765h164v-765h-164zM80 833v137h137v-137h-137z" />
    <glyph glyph-name="dotlessi" unicode="&#x131;" horiz-adv-x="275" 
d="M58 0v536h159v-536h-159z" />
    <glyph glyph-name="IJ" unicode="&#x132;" horiz-adv-x="729" 
d="M394 -3h-53v130h27c121 0 139 46 139 138v500h162v-520c0 -190 -101 -248 -275 -248zM67 0v765h164v-765h-164z" />
    <glyph glyph-name="ij" unicode="&#x133;" horiz-adv-x="574" 
d="M57 629v144h161v-144h-161zM58 0v536h159v-536h-159zM356 629v144h161v-144h-161zM325 -206c-44 0 -70 8 -75 9v111c4 -2 18 -5 39 -5c47 0 68 22 68 76v551h159v-552c0 -146 -82 -190 -191 -190z" />
    <glyph glyph-name="Jcircumflex" unicode="&#x134;" horiz-adv-x="428" 
d="M360 960l108 -133h-115l-66 56h-1l-64 -56h-106l108 133h136zM86 -3h-63v130h37c127 0 146 46 146 138v500h162v-520c0 -190 -105 -248 -282 -248z" />
    <glyph glyph-name="jcircumflex" unicode="&#x135;" horiz-adv-x="279" 
d="M-45 -197v111c4 -2 18 -5 39 -5c47 0 68 22 68 76v551h159v-552c0 -146 -82 -190 -191 -190c-44 0 -70 8 -75 9zM197 788l99 -174h-98l-62 77h-1l-59 -77h-91l99 174h113z" />
    <glyph glyph-name="Kcommaaccent" unicode="&#x136;" horiz-adv-x="715" 
d="M272 -220l24 156h154l-73 -156h-105zM231 232v-232h-164v765h164v-341l279 341h183l-275 -320l287 -445h-188l-210 321z" />
    <glyph glyph-name="kcommaaccent" unicode="&#x137;" horiz-adv-x="578" 
d="M210 -220l24 156h154l-73 -156h-105zM214 139v-139h-156v788h156v-474l183 222h168l-179 -210l188 -326h-172l-122 219z" />
    <glyph glyph-name="kgreenlandic" unicode="&#x138;" horiz-adv-x="578" 
d="M214 139v-139h-156v536h156v-222l183 222h168l-179 -210l188 -326h-172l-122 219z" />
    <glyph glyph-name="Lacute" unicode="&#x139;" horiz-adv-x="590" 
d="M90 827l64 133h158l-103 -133h-119zM67 0v765h164v-637h330v-128h-494z" />
    <glyph glyph-name="lacute" unicode="&#x13a;" horiz-adv-x="275" 
d="M70 829l64 133h158l-103 -133h-119zM58 0v788h159v-788h-159z" />
    <glyph glyph-name="Lcommaaccent" unicode="&#x13b;" horiz-adv-x="590" 
d="M214 -220l24 156h154l-73 -156h-105zM67 0v765h164v-637h330v-128h-494z" />
    <glyph glyph-name="lcommaaccent" unicode="&#x13c;" horiz-adv-x="275" 
d="M36 -220l24 156h154l-73 -156h-105zM58 0v788h159v-788h-159z" />
    <glyph glyph-name="Lcaron" unicode="&#x13d;" horiz-adv-x="590" 
d="M329 577l16 211h128l-65 -211h-79zM67 0v765h164v-637h330v-128h-494z" />
    <glyph glyph-name="lcaron" unicode="&#x13e;" horiz-adv-x="275" 
d="M280 601l6 187h125l-56 -187h-75zM58 0v788h159v-788h-159z" />
    <glyph glyph-name="Ldot" unicode="&#x13f;" horiz-adv-x="590" 
d="M67 0v765h164v-637h330v-128h-494zM369 340v157h166v-157h-166z" />
    <glyph glyph-name="ldot" unicode="&#x140;" horiz-adv-x="502" 
d="M58 0v788h159v-788h-159zM318 325v149h159v-149h-159z" />
    <glyph glyph-name="Lslash" unicode="&#x141;" horiz-adv-x="590" 
d="M67 0v263l-79 -29v119l79 29v383h164v-323l222 81v-119l-222 -81v-195h330v-128h-494z" />
    <glyph glyph-name="lslash" unicode="&#x142;" horiz-adv-x="277" 
d="M218 0h-159v292l-74 -44v119l74 44v377h159v-282l76 45v-120l-76 -45v-386z" />
    <glyph glyph-name="Nacute" unicode="&#x143;" horiz-adv-x="769" 
d="M321 827l64 133h158l-103 -133h-119zM67 0v765h181l247 -414c39 -66 55 -114 55 -114h3v528h150v-765h-173l-254 422c-41 67 -58 116 -58 116h-3v-538h-148z" />
    <glyph glyph-name="nacute" unicode="&#x144;" horiz-adv-x="621" 
d="M272 614l51 174h158l-88 -174h-121zM410 0v313c0 38 -2 69 -16 89c-15 21 -39 31 -69 31c-71 0 -108 -45 -108 -123v-310h-159v536h153v-88h2c29 54 82 99 174 99c129 0 182 -67 182 -199v-348h-159z" />
    <glyph glyph-name="Ncommaaccent" unicode="&#x145;" horiz-adv-x="769" 
d="M284 -220l24 156h154l-73 -156h-105zM67 0v765h181l247 -414c39 -66 55 -114 55 -114h3v528h150v-765h-173l-254 422c-41 67 -58 116 -58 116h-3v-538h-148z" />
    <glyph glyph-name="ncommaaccent" unicode="&#x146;" horiz-adv-x="621" 
d="M213 -220l24 156h154l-73 -156h-105zM410 0v313c0 38 -2 69 -16 89c-15 21 -39 31 -69 31c-71 0 -108 -45 -108 -123v-310h-159v536h153v-88h2c29 54 82 99 174 99c129 0 182 -67 182 -199v-348h-159z" />
    <glyph glyph-name="Ncaron" unicode="&#x147;" horiz-adv-x="769" 
d="M310 827l-108 133h115l66 -56h1l64 56h106l-108 -133h-136zM67 0v765h181l247 -414c39 -66 55 -114 55 -114h3v528h150v-765h-173l-254 422c-41 67 -58 116 -58 116h-3v-538h-148z" />
    <glyph glyph-name="ncaron" unicode="&#x148;" horiz-adv-x="621" 
d="M263 614l-110 174h109l69 -77h1l66 77h101l-110 -174h-126zM410 0v313c0 38 -2 69 -16 89c-15 21 -39 31 -69 31c-71 0 -108 -45 -108 -123v-310h-159v536h153v-88h2c29 54 82 99 174 99c129 0 182 -67 182 -199v-348h-159z" />
    <glyph glyph-name="napostrophe" unicode="&#x149;" horiz-adv-x="621" 
d="M3 632l24 156h154l-73 -156h-105zM410 0v313c0 38 -2 69 -16 89c-15 21 -39 31 -69 31c-71 0 -108 -45 -108 -123v-310h-159v536h153v-88h2c29 54 82 99 174 99c129 0 182 -67 182 -199v-348h-159z" />
    <glyph glyph-name="Eng" unicode="&#x14a;" horiz-adv-x="769" 
d="M426 -188h-59v124h33c83 0 123 22 140 63l-263 423c-42 67 -59 116 -59 116h-3v-538h-148v765h180l247 -400c40 -65 56 -115 56 -115h3v515h150v-713c0 -182 -105 -240 -277 -240z" />
    <glyph glyph-name="eng" unicode="&#x14b;" horiz-adv-x="621" 
d="M378 -206c-44 0 -69 8 -73 9v111c4 -2 16 -5 37 -5c47 0 68 22 68 76v328c0 38 -2 69 -16 89c-15 21 -39 31 -69 31c-71 0 -108 -45 -108 -123v-310h-159v536h153v-88h2c29 54 82 99 174 99c129 0 182 -67 182 -199v-364c0 -146 -82 -190 -191 -190z" />
    <glyph glyph-name="Omacron" unicode="&#x14c;" horiz-adv-x="802" 
d="M229 838v104h342v-104h-342zM40 380c0 252 147 396 361 396c224 0 361 -141 361 -396c0 -252 -142 -396 -361 -396c-229 0 -361 142 -361 396zM401 104c116 0 184 94 184 276c0 183 -76 278 -184 278c-116 0 -183 -93 -183 -278c0 -184 63 -276 183 -276z" />
    <glyph glyph-name="omacron" unicode="&#x14d;" horiz-adv-x="599" 
d="M128 636v104h342v-104h-342zM299 -14c-169 0 -271 107 -271 282c0 176 104 281 272 281c164 0 271 -104 271 -281c0 -175 -111 -282 -272 -282zM300 442c-79 0 -108 -75 -108 -174c0 -104 30 -175 108 -175c80 0 106 76 106 175c0 103 -28 174 -106 174z" />
    <glyph glyph-name="Obreve" unicode="&#x14e;" horiz-adv-x="802" 
d="M400 815c-90 0 -163 45 -166 157h103c3 -40 30 -63 66 -63s63 23 67 63h97c-3 -112 -76 -157 -167 -157zM40 380c0 252 147 396 361 396c224 0 361 -141 361 -396c0 -252 -142 -396 -361 -396c-229 0 -361 142 -361 396zM401 104c116 0 184 94 184 276
c0 183 -76 278 -184 278c-116 0 -183 -93 -183 -278c0 -184 63 -276 183 -276z" />
    <glyph glyph-name="obreve" unicode="&#x14f;" horiz-adv-x="599" 
d="M299 -14c-169 0 -271 107 -271 282c0 176 104 281 272 281c164 0 271 -104 271 -281c0 -175 -111 -282 -272 -282zM300 442c-79 0 -108 -75 -108 -174c0 -104 30 -175 108 -175c80 0 106 76 106 175c0 103 -28 174 -106 174zM299 612c-92 0 -166 52 -166 176h105
c0 -49 26 -74 64 -74s65 25 65 74h99c0 -124 -74 -176 -167 -176z" />
    <glyph glyph-name="Ohungarumlaut" unicode="&#x150;" horiz-adv-x="802" 
d="M430 831l35 133h126l-69 -133h-92zM265 831l22 133h125l-56 -133h-91zM40 380c0 252 147 396 361 396c224 0 361 -141 361 -396c0 -252 -142 -396 -361 -396c-229 0 -361 142 -361 396zM401 104c116 0 184 94 184 276c0 183 -76 278 -184 278c-116 0 -183 -93 -183 -278
c0 -184 63 -276 183 -276z" />
    <glyph glyph-name="ohungarumlaut" unicode="&#x151;" horiz-adv-x="599" 
d="M329 614l52 174h127l-86 -174h-93zM165 614l39 174h128l-73 -174h-94zM299 -14c-169 0 -271 107 -271 282c0 176 104 281 272 281c164 0 271 -104 271 -281c0 -175 -111 -282 -272 -282zM300 442c-79 0 -108 -75 -108 -174c0 -104 30 -175 108 -175c80 0 106 76 106 175
c0 103 -28 174 -106 174z" />
    <glyph glyph-name="OE" unicode="&#x152;" horiz-adv-x="1136" 
d="M578 324v104c0 148 -62 230 -176 230c-105 0 -184 -82 -184 -278c0 -183 67 -276 182 -276c122 0 178 90 178 220zM577 77c-38 -54 -104 -92 -206 -92c-197 0 -332 133 -332 395c0 265 151 396 341 396c81 0 155 -29 197 -96h1v85h501v-125h-336v-197h318v-122h-318v-197
h345v-124h-510v77h-1z" />
    <glyph glyph-name="oe" unicode="&#x153;" horiz-adv-x="952" 
d="M761 322v6c-5 77 -35 122 -99 122c-62 0 -95 -46 -103 -128h202zM300 442c-79 0 -108 -75 -108 -174c0 -104 30 -175 108 -175c80 0 106 76 106 175c0 103 -28 174 -106 174zM918 156c-16 -105 -112 -170 -255 -170c-86 0 -144 27 -182 76c-40 -49 -101 -76 -182 -76
c-169 0 -271 107 -271 282c0 176 104 281 272 281c83 0 144 -27 184 -76c38 48 96 76 178 76c185 0 261 -119 261 -276v-42h-364c7 -96 43 -138 110 -138c63 0 83 31 93 63h156z" />
    <glyph glyph-name="Racute" unicode="&#x154;" horiz-adv-x="694" 
d="M284 827l64 133h158l-103 -133h-119zM231 408h114c72 0 134 32 134 123c0 93 -71 120 -131 120h-117v-243zM493 0l-144 291h-118v-291h-164v765h299c49 0 105 -7 154 -28c72 -32 127 -91 127 -197c0 -121 -76 -182 -148 -210v-2l171 -328h-177z" />
    <glyph glyph-name="racute" unicode="&#x155;" horiz-adv-x="407" 
d="M158 614l51 174h158l-88 -174h-121zM58 0v536h150v-113h2c30 81 105 122 177 122h9v-144h-28c-97 0 -152 -33 -152 -136v-265h-158z" />
    <glyph glyph-name="Rcommaaccent" unicode="&#x156;" horiz-adv-x="694" 
d="M247 -220l24 156h154l-73 -156h-105zM231 408h114c72 0 134 32 134 123c0 93 -71 120 -131 120h-117v-243zM493 0l-144 291h-118v-291h-164v765h299c49 0 105 -7 154 -28c72 -32 127 -91 127 -197c0 -121 -76 -182 -148 -210v-2l171 -328h-177z" />
    <glyph glyph-name="rcommaaccent" unicode="&#x157;" horiz-adv-x="407" 
d="M34 -220l24 156h154l-73 -156h-105zM58 0v536h150v-113h2c30 81 105 122 177 122h9v-144h-28c-97 0 -152 -33 -152 -136v-265h-158z" />
    <glyph glyph-name="Rcaron" unicode="&#x158;" horiz-adv-x="694" 
d="M272 827l-108 133h115l66 -56h1l64 56h106l-108 -133h-136zM231 408h114c72 0 134 32 134 123c0 93 -71 120 -131 120h-117v-243zM493 0l-144 291h-118v-291h-164v765h299c49 0 105 -7 154 -28c72 -32 127 -91 127 -197c0 -121 -76 -182 -148 -210v-2l171 -328h-177z" />
    <glyph glyph-name="rcaron" unicode="&#x159;" horiz-adv-x="407" 
d="M158 614l-110 174h109l69 -77h1l66 77h101l-110 -174h-126zM58 0v536h150v-113h2c30 81 105 122 177 122h9v-144h-28c-97 0 -152 -33 -152 -136v-265h-158z" />
    <glyph glyph-name="Sacute" unicode="&#x15a;" horiz-adv-x="679" 
d="M625 557h-168c-4 51 -38 100 -114 100c-71 0 -115 -38 -115 -92c0 -51 28 -82 101 -95l116 -21c136 -25 202 -98 202 -211c0 -164 -112 -254 -307 -254c-191 0 -298 92 -306 235h171c8 -66 54 -115 139 -115c91 0 133 46 133 104c0 53 -29 81 -109 96l-114 22
c-118 23 -197 94 -197 216c0 135 104 234 287 234c194 0 276 -100 281 -219zM278 827l64 133h158l-103 -133h-119z" />
    <glyph glyph-name="sacute" unicode="&#x15b;" horiz-adv-x="516" 
d="M187 614l51 174h158l-88 -174h-121zM474 387h-140c-3 34 -28 61 -77 61s-75 -24 -75 -56c0 -30 16 -48 62 -54l91 -12c98 -13 155 -61 155 -158c0 -119 -97 -183 -233 -183c-160 0 -228 75 -235 171h146c2 -38 27 -69 90 -69c51 0 85 20 85 59c0 32 -14 48 -64 55l-86 12
c-100 14 -157 63 -157 160c0 93 70 176 222 176c140 0 209 -68 216 -162z" />
    <glyph glyph-name="Scircumflex" unicode="&#x15c;" horiz-adv-x="679" 
d="M412 960l108 -133h-115l-66 56h-1l-64 -56h-106l108 133h136zM625 557h-168c-4 51 -38 100 -114 100c-71 0 -115 -38 -115 -92c0 -51 28 -82 101 -95l116 -21c136 -25 202 -98 202 -211c0 -164 -112 -254 -307 -254c-191 0 -298 92 -306 235h171c8 -66 54 -115 139 -115
c91 0 133 46 133 104c0 53 -29 81 -109 96l-114 22c-118 23 -197 94 -197 216c0 135 104 234 287 234c194 0 276 -100 281 -219z" />
    <glyph glyph-name="scircumflex" unicode="&#x15d;" horiz-adv-x="516" 
d="M323 788l110 -174h-109l-69 77h-1l-66 -77h-101l110 174h126zM474 387h-140c-3 34 -28 61 -77 61s-75 -24 -75 -56c0 -30 16 -48 62 -54l91 -12c98 -13 155 -61 155 -158c0 -119 -97 -183 -233 -183c-160 0 -228 75 -235 171h146c2 -38 27 -69 90 -69c51 0 85 20 85 59
c0 32 -14 48 -64 55l-86 12c-100 14 -157 63 -157 160c0 93 70 176 222 176c140 0 209 -68 216 -162z" />
    <glyph glyph-name="Scedilla" unicode="&#x15e;" horiz-adv-x="679" 
d="M340 -232c-69 0 -104 37 -106 79h77c4 -12 13 -21 31 -21c23 0 32 13 32 32s-11 31 -32 31c-13 0 -21 -5 -27 -13h-65l49 109c-165 13 -258 102 -265 234h171c8 -66 54 -115 139 -115c91 0 133 46 133 104c0 53 -29 81 -109 96l-114 22c-118 23 -197 94 -197 216
c0 135 104 234 287 234c194 0 276 -100 281 -219h-168c-4 51 -38 100 -114 100c-71 0 -115 -38 -115 -92c0 -51 28 -82 101 -95l116 -21c136 -25 202 -98 202 -211c0 -161 -108 -251 -296 -254l-20 -43h2c10 7 21 10 40 10c48 0 84 -34 84 -89c0 -48 -36 -94 -117 -94z" />
    <glyph glyph-name="scedilla" unicode="&#x15f;" horiz-adv-x="516" 
d="M251 -232c-69 0 -104 37 -106 79h77c4 -12 13 -21 31 -21c23 0 32 13 32 32s-11 31 -32 31c-13 0 -21 -5 -27 -13h-65l50 111c-127 14 -183 83 -189 169h146c2 -38 27 -69 90 -69c51 0 85 20 85 59c0 32 -14 48 -64 55l-86 12c-100 14 -157 63 -157 160
c0 93 70 176 222 176c140 0 209 -68 216 -162h-140c-3 34 -28 61 -77 61s-75 -24 -75 -56c0 -30 16 -48 62 -54l91 -12c98 -13 155 -61 155 -158c0 -119 -97 -183 -228 -183l-20 -44h2c10 7 21 10 40 10c48 0 84 -34 84 -89c0 -48 -36 -94 -117 -94z" />
    <glyph glyph-name="Scaron" unicode="&#x160;" horiz-adv-x="679" 
d="M268 827l-108 133h115l66 -56h1l64 56h106l-108 -133h-136zM625 557h-168c-4 51 -38 100 -114 100c-71 0 -115 -38 -115 -92c0 -51 28 -82 101 -95l116 -21c136 -25 202 -98 202 -211c0 -164 -112 -254 -307 -254c-191 0 -298 92 -306 235h171c8 -66 54 -115 139 -115
c91 0 133 46 133 104c0 53 -29 81 -109 96l-114 22c-118 23 -197 94 -197 216c0 135 104 234 287 234c194 0 276 -100 281 -219z" />
    <glyph glyph-name="scaron" unicode="&#x161;" horiz-adv-x="516" 
d="M187 614l-110 174h109l69 -77h1l66 77h101l-110 -174h-126zM474 387h-140c-3 34 -28 61 -77 61s-75 -24 -75 -56c0 -30 16 -48 62 -54l91 -12c98 -13 155 -61 155 -158c0 -119 -97 -183 -233 -183c-160 0 -228 75 -235 171h146c2 -38 27 -69 90 -69c51 0 85 20 85 59
c0 32 -14 48 -64 55l-86 12c-100 14 -157 63 -157 160c0 93 70 176 222 176c140 0 209 -68 216 -162z" />
    <glyph glyph-name="Tcommaaccent" unicode="&#x162;" horiz-adv-x="642" 
d="M221 -220l24 156h154l-73 -156h-105zM629 765v-129h-226v-636h-164v636h-226v129h616z" />
    <glyph glyph-name="tcommaaccent" unicode="&#x163;" horiz-adv-x="381" 
d="M138 -220l24 156h154l-73 -156h-105zM109 687h136v-151h120v-110h-118v-237c0 -54 20 -78 74 -78c19 0 45 4 45 4v-116c-21 -2 -61 -6 -106 -6c-105 0 -170 45 -170 166v267h-79v109h18c68 0 80 14 80 111v41z" />
    <glyph glyph-name="Tcaron" unicode="&#x164;" horiz-adv-x="642" 
d="M252 827l-108 133h115l66 -56h1l64 56h106l-108 -133h-136zM629 765v-129h-226v-636h-164v636h-226v129h616z" />
    <glyph glyph-name="tcaron" unicode="&#x165;" horiz-adv-x="381" 
d="M329 601l6 187h125l-56 -187h-75zM109 687h136v-151h120v-110h-118v-237c0 -54 20 -78 74 -78c19 0 45 4 45 4v-116c-21 -2 -61 -6 -106 -6c-105 0 -170 45 -170 166v267h-79v109h18c68 0 80 14 80 111v41z" />
    <glyph glyph-name="Tbar" unicode="&#x166;" horiz-adv-x="642" 
d="M403 372v-372h-164v372h-177v100h177v164h-226v129h616v-129h-226v-164h178v-100h-178z" />
    <glyph glyph-name="tbar" unicode="&#x167;" horiz-adv-x="381" 
d="M366 -1c-21 -2 -61 -6 -106 -6c-105 0 -170 45 -170 166v71h-79v98h79v103h-79v104h18c68 0 80 14 80 111v41h136v-151h120v-105h-118v-103h118v-98h-118v-41c0 -54 20 -78 74 -78c19 0 45 4 45 4v-116z" />
    <glyph glyph-name="Utilde" unicode="&#x168;" horiz-adv-x="741" 
d="M59 267v498h164l-1 -446c0 -55 1 -118 30 -155c28 -35 68 -50 119 -50c55 0 96 15 123 50c28 37 26 100 26 155v446h162v-498c0 -193 -125 -283 -313 -283s-310 89 -310 283zM181 819c2 85 30 155 116 155c63 0 104 -52 143 -52c20 0 39 14 49 53h71
c-2 -85 -30 -155 -116 -155c-63 0 -103 52 -144 52c-17 0 -38 -13 -47 -53h-72z" />
    <glyph glyph-name="utilde" unicode="&#x169;" horiz-adv-x="617" 
d="M212 536v-313c0 -38 3 -68 16 -88c14 -21 37 -31 68 -31c70 0 105 48 105 139v293h159v-536h-153v87h-2c-28 -54 -80 -97 -168 -97c-129 0 -184 63 -184 189v357h159zM117 614c0 89 31 164 118 164c62 0 101 -51 140 -51c19 0 40 10 50 52h71c0 -91 -31 -165 -118 -165
c-62 0 -100 51 -140 51c-18 0 -40 -10 -49 -51h-72z" />
    <glyph glyph-name="Umacron" unicode="&#x16a;" horiz-adv-x="741" 
d="M59 267v498h164l-1 -446c0 -55 1 -118 30 -155c28 -35 68 -50 119 -50c55 0 96 15 123 50c28 37 26 100 26 155v446h162v-498c0 -193 -125 -283 -313 -283s-310 89 -310 283zM199 838v104h342v-104h-342z" />
    <glyph glyph-name="umacron" unicode="&#x16b;" horiz-adv-x="617" 
d="M212 536v-313c0 -38 3 -68 16 -88c14 -21 37 -31 68 -31c70 0 105 48 105 139v293h159v-536h-153v87h-2c-28 -54 -80 -97 -168 -97c-129 0 -184 63 -184 189v357h159zM135 636v104h342v-104h-342z" />
    <glyph glyph-name="Ubreve" unicode="&#x16c;" horiz-adv-x="741" 
d="M59 267v498h164l-1 -446c0 -55 1 -118 30 -155c28 -35 68 -50 119 -50c55 0 96 15 123 50c28 37 26 100 26 155v446h162v-498c0 -193 -125 -283 -313 -283s-310 89 -310 283zM370 815c-90 0 -163 45 -166 157h103c3 -40 30 -63 66 -63s63 23 67 63h97
c-3 -112 -76 -157 -167 -157z" />
    <glyph glyph-name="ubreve" unicode="&#x16d;" horiz-adv-x="617" 
d="M212 536v-313c0 -38 3 -68 16 -88c14 -21 37 -31 68 -31c70 0 105 48 105 139v293h159v-536h-153v87h-2c-28 -54 -80 -97 -168 -97c-129 0 -184 63 -184 189v357h159zM306 612c-92 0 -166 52 -166 176h105c0 -49 26 -74 64 -74s65 25 65 74h99c0 -124 -74 -176 -167 -176
z" />
    <glyph glyph-name="Uring" unicode="&#x16e;" horiz-adv-x="741" 
d="M59 267v498h164l-1 -446c0 -55 1 -118 30 -155c28 -35 68 -50 119 -50c55 0 96 15 123 50c28 37 26 100 26 155v446h162v-498c0 -193 -125 -283 -313 -283s-310 89 -310 283zM370 797c-82 0 -131 49 -131 122s54 124 132 124c84 0 131 -51 131 -124s-53 -122 -132 -122z
M370 980c-32 0 -53 -25 -53 -61s20 -61 54 -61c32 0 52 25 52 61s-19 61 -53 61z" />
    <glyph glyph-name="uring" unicode="&#x16f;" horiz-adv-x="617" 
d="M306 602c-82 0 -131 49 -131 123c0 72 54 123 132 123c84 0 131 -51 131 -123c0 -74 -53 -123 -132 -123zM306 785c-32 0 -53 -24 -53 -61c0 -36 20 -60 54 -60c32 0 52 24 52 60c0 37 -19 61 -53 61zM212 536v-313c0 -38 3 -68 16 -88c14 -21 37 -31 68 -31
c70 0 105 48 105 139v293h159v-536h-153v87h-2c-28 -54 -80 -97 -168 -97c-129 0 -184 63 -184 189v357h159z" />
    <glyph glyph-name="Uhungarumlaut" unicode="&#x170;" horiz-adv-x="741" 
d="M400 831l35 133h126l-69 -133h-92zM235 831l22 133h125l-56 -133h-91zM59 267v498h164l-1 -446c0 -55 1 -118 30 -155c28 -35 68 -50 119 -50c55 0 96 15 123 50c28 37 26 100 26 155v446h162v-498c0 -193 -125 -283 -313 -283s-310 89 -310 283z" />
    <glyph glyph-name="uhungarumlaut" unicode="&#x171;" horiz-adv-x="617" 
d="M212 536v-313c0 -38 3 -68 16 -88c14 -21 37 -31 68 -31c70 0 105 48 105 139v293h159v-536h-153v87h-2c-28 -54 -80 -97 -168 -97c-129 0 -184 63 -184 189v357h159zM336 614l52 174h127l-86 -174h-93zM172 614l39 174h128l-73 -174h-94z" />
    <glyph glyph-name="Uogonek" unicode="&#x172;" horiz-adv-x="741" 
d="M59 267v498h164l-1 -446c0 -55 1 -118 30 -155c27 -35 68 -50 119 -50c55 0 97 15 123 50c29 37 26 100 26 155v446h162v-498c0 -170 -99 -249 -208 -270c-70 -13 -85 -39 -85 -61c0 -23 15 -34 51 -35v-89h-29c-107 0 -143 38 -143 90c0 35 20 65 66 85
c-169 11 -275 98 -275 280z" />
    <glyph glyph-name="uogonek" unicode="&#x173;" horiz-adv-x="617" 
d="M407 0v87h-2c-28 -54 -80 -97 -168 -97c-129 0 -184 63 -184 189v357h159v-313c0 -38 3 -68 16 -88c14 -21 37 -31 68 -31c70 0 105 48 105 139v293h159v-528c-48 -27 -65 -50 -65 -72c0 -25 19 -34 55 -35v-89h-29c-107 0 -146 34 -146 90c0 40 28 77 80 98h-48z" />
    <glyph glyph-name="Wcircumflex" unicode="&#x174;" horiz-adv-x="1047" 
d="M606 960l108 -133h-115l-66 56h-1l-64 -56h-106l108 133h136zM378 0h-164l-203 765h170l106 -435c19 -77 23 -129 23 -129h2s5 52 26 128l119 436h150l120 -435c21 -77 30 -129 30 -129h1s5 52 23 128l105 436h150l-202 -765h-161l-123 452c-21 77 -24 121 -24 121h-2
s-4 -44 -24 -120z" />
    <glyph glyph-name="wcircumflex" unicode="&#x175;" horiz-adv-x="840" 
d="M492 788l110 -174h-109l-69 77h-1l-66 -77h-101l110 174h126zM163 0l-156 536h153l71 -270c14 -55 20 -113 20 -113h3s11 59 27 112l80 271h129l80 -271c16 -54 26 -112 26 -112h4s9 59 23 112l70 271h139l-155 -536h-153l-65 213c-20 65 -37 162 -37 162h-2
s-20 -98 -40 -162l-66 -213h-151z" />
    <glyph glyph-name="Ycircumflex" unicode="&#x176;" horiz-adv-x="677" 
d="M257 0v320l-256 445h181l161 -301h2l163 301h168l-255 -442v-323h-164zM417 960l108 -133h-115l-66 56h-1l-64 -56h-106l108 133h136z" />
    <glyph glyph-name="ycircumflex" unicode="&#x177;" horiz-adv-x="551" 
d="M207 -3l-200 539h164l88 -282c18 -58 24 -105 24 -105h3s6 47 23 105l83 282h155l-188 -553c-43 -125 -95 -182 -234 -182c-52 0 -76 6 -79 7v116c9 -2 31 -5 54 -5c60 0 88 17 103 65zM352 788l110 -174h-109l-69 77h-1l-66 -77h-101l110 174h126z" />
    <glyph glyph-name="Ydieresis" unicode="&#x178;" horiz-adv-x="677" 
d="M257 0v320l-256 445h181l161 -301h2l163 301h168l-255 -442v-323h-164zM385 828v137h136v-137h-136zM170 828v137h136v-137h-136z" />
    <glyph glyph-name="Zacute" unicode="&#x179;" horiz-adv-x="638" 
d="M261 827l64 133h158l-103 -133h-119zM43 638v127h560v-113l-383 -524h389v-128h-583v113l384 525h-367z" />
    <glyph glyph-name="zacute" unicode="&#x17a;" horiz-adv-x="524" 
d="M199 614l51 174h158l-88 -174h-121zM44 421v115h448v-103l-268 -316h273v-117h-463v104l268 317h-258z" />
    <glyph glyph-name="Zdotaccent" unicode="&#x17b;" horiz-adv-x="638" 
d="M43 638v127h560v-113l-383 -524h389v-128h-583v113l384 525h-367zM255 833v137h137v-137h-137z" />
    <glyph glyph-name="zdotaccent" unicode="&#x17c;" horiz-adv-x="524" 
d="M44 421v115h448v-103l-268 -316h273v-117h-463v104l268 317h-258zM199 636v137h137v-137h-137z" />
    <glyph glyph-name="Zcaron" unicode="&#x17d;" horiz-adv-x="638" 
d="M250 827l-108 133h115l66 -56h1l64 56h106l-108 -133h-136zM43 638v127h560v-113l-383 -524h389v-128h-583v113l384 525h-367z" />
    <glyph glyph-name="zcaron" unicode="&#x17e;" horiz-adv-x="524" 
d="M199 614l-110 174h109l69 -77h1l66 77h101l-110 -174h-126zM44 421v115h448v-103l-268 -316h273v-117h-463v104l268 317h-258z" />
    <glyph glyph-name="florin" unicode="&#x192;" horiz-adv-x="457" 
d="M276 348l-71 -537h-153l69 537h-101v111h115l14 110c21 176 108 223 219 223c37 0 67 -5 73 -6v-116c-4 1 -16 4 -40 4c-47 0 -84 -14 -96 -105l-15 -110h119v-111h-133z" />
    <glyph glyph-name="Aringacute" unicode="&#x1fa;" horiz-adv-x="741" 
d="M363 624c-1 -4 -10 -49 -30 -111l-71 -223h202l-70 222c-21 67 -29 112 -29 112h-2zM560 0l-56 170h-281l-56 -170h-157l267 765h184l271 -765h-172zM306 1069l64 133h158l-103 -133h-119zM369 797c-82 0 -131 49 -131 122s54 124 132 124c84 0 131 -51 131 -124
s-53 -122 -132 -122zM369 980c-32 0 -53 -25 -53 -61s20 -61 54 -61c32 0 52 25 52 61s-19 61 -53 61z" />
    <glyph glyph-name="aringacute" unicode="&#x1fb;" horiz-adv-x="564" 
d="M246 94c55 0 106 43 106 132v17c-84 -5 -126 -12 -151 -29c-18 -12 -26 -32 -26 -54c0 -39 27 -66 71 -66zM193 377h-152c6 107 91 171 231 171c173 0 233 -71 233 -214v-185c0 -29 9 -40 43 -40v-110h-53c-77 0 -114 15 -131 74h-2c-34 -50 -86 -79 -162 -79
c-112 0 -182 59 -182 159c0 62 28 106 81 134c57 30 138 35 252 40v29c0 59 -25 90 -79 90c-52 0 -77 -29 -79 -69zM287 584c-82 0 -131 49 -131 123c0 72 54 123 132 123c84 0 131 -51 131 -123c0 -74 -53 -123 -132 -123zM287 767c-32 0 -53 -24 -53 -61
c0 -36 20 -60 54 -60c32 0 52 24 52 60c0 37 -19 61 -53 61zM232 864l64 133h158l-103 -133h-119z" />
    <glyph glyph-name="AEacute" unicode="&#x1fc;" horiz-adv-x="1073" 
d="M541 827l64 133h158l-103 -133h-119zM515 303v337h-47l-156 -337h203zM257 183l-85 -183h-170l372 765h642v-125h-336v-197h318v-122h-318v-197h345v-124h-510v183h-258z" />
    <glyph glyph-name="aeacute" unicode="&#x1fd;" horiz-adv-x="895" 
d="M379 614l51 174h158l-88 -174h-121zM704 322v6c-6 77 -35 122 -100 122c-63 0 -96 -48 -103 -128h203zM246 94c56 0 107 45 107 132v13c-84 0 -127 -8 -152 -25c-18 -12 -26 -32 -26 -54c0 -40 28 -66 71 -66zM861 156c-17 -108 -106 -170 -251 -170
c-117 0 -179 45 -210 101h-2c-39 -55 -101 -93 -198 -93c-112 0 -182 59 -182 159c0 62 28 106 81 134c57 30 139 35 252 37v32c0 57 -25 90 -79 90c-53 0 -77 -30 -79 -69h-152c6 107 90 171 233 171c88 0 136 -27 163 -68h2c35 43 92 69 167 69c185 0 259 -120 259 -276
v-42h-364c7 -98 43 -138 110 -138c63 0 84 31 93 63h157z" />
    <glyph glyph-name="Oslashacute" unicode="&#x1fe;" horiz-adv-x="802" 
d="M401 660c-119 0 -187 -93 -187 -280c0 -51 4 -98 14 -137l295 368c-33 35 -76 49 -122 49zM401 101c118 0 188 95 188 279c0 63 -8 113 -21 152l-300 -374c29 -36 72 -57 133 -57zM762 380c0 -252 -142 -396 -361 -396c-89 0 -164 22 -221 63l-58 -72h-108l105 131
c-52 66 -79 158 -79 274c0 252 147 396 361 396c82 0 153 -19 210 -56l58 73h108l-103 -129c57 -67 88 -162 88 -284zM332 827l64 133h158l-103 -133h-119z" />
    <glyph glyph-name="oslashacute" unicode="&#x1ff;" horiz-adv-x="599" 
d="M300 445c-84 0 -113 -77 -113 -177c0 -28 2 -52 6 -74l180 223c-17 18 -41 28 -73 28zM300 91c85 0 112 77 112 177c0 27 -2 51 -5 73l-181 -222c17 -18 42 -28 74 -28zM571 268c0 -175 -111 -282 -272 -282c-59 0 -109 13 -150 37l-50 -61h-94l87 108
c-41 48 -64 115 -64 198c0 176 104 281 272 281c58 0 109 -13 150 -37l49 60h95l-87 -108c41 -47 64 -114 64 -196zM233 614l51 174h158l-88 -174h-121z" />
    <glyph glyph-name="Scommaaccent" unicode="&#x218;" horiz-adv-x="679" 
d="M241 -220l24 156h154l-73 -156h-105zM625 557h-168c-4 51 -38 100 -114 100c-71 0 -115 -38 -115 -92c0 -51 28 -82 101 -95l116 -21c136 -25 202 -98 202 -211c0 -164 -112 -254 -307 -254c-191 0 -298 92 -306 235h171c8 -66 54 -115 139 -115c91 0 133 46 133 104
c0 53 -29 81 -109 96l-114 22c-118 23 -197 94 -197 216c0 135 104 234 287 234c194 0 276 -100 281 -219z" />
    <glyph glyph-name="scommaaccent" unicode="&#x219;" horiz-adv-x="516" 
d="M156 -220l24 156h154l-73 -156h-105zM474 387h-140c-3 34 -28 61 -77 61s-75 -24 -75 -56c0 -30 16 -48 62 -54l91 -12c98 -13 155 -61 155 -158c0 -119 -97 -183 -233 -183c-160 0 -228 75 -235 171h146c2 -38 27 -69 90 -69c51 0 85 20 85 59c0 32 -14 48 -64 55
l-86 12c-100 14 -157 63 -157 160c0 93 70 176 222 176c140 0 209 -68 216 -162z" />
    <glyph glyph-name="uni021A" unicode="&#x21a;" horiz-adv-x="642" 
d="M221 -220l24 156h154l-73 -156h-105zM629 765v-129h-226v-636h-164v636h-226v129h616z" />
    <glyph glyph-name="uni021B" unicode="&#x21b;" horiz-adv-x="381" 
d="M138 -220l24 156h154l-73 -156h-105zM109 687h136v-151h120v-110h-118v-237c0 -54 20 -78 74 -78c19 0 45 4 45 4v-116c-21 -2 -61 -6 -106 -6c-105 0 -170 45 -170 166v267h-79v109h18c68 0 80 14 80 111v41z" />
    <glyph glyph-name="uni0237" unicode="&#x237;" horiz-adv-x="279" 
d="M-45 -197v111c4 -2 18 -5 39 -5c47 0 68 22 68 76v551h159v-552c0 -146 -82 -190 -191 -190c-44 0 -70 8 -75 9z" />
    <glyph glyph-name="circumflex" unicode="&#x2c6;" horiz-adv-x="349" 
d="M238 788l110 -174h-109l-69 77h-1l-66 -77h-101l110 174h126z" />
    <glyph glyph-name="caron" unicode="&#x2c7;" horiz-adv-x="349" 
d="M112 614l-110 174h109l69 -77h1l66 77h101l-110 -174h-126z" />
    <glyph glyph-name="breve" unicode="&#x2d8;" horiz-adv-x="349" 
d="M174 612c-92 0 -166 52 -166 176h105c0 -49 26 -74 64 -74s65 25 65 74h99c0 -124 -74 -176 -167 -176z" />
    <glyph glyph-name="dotaccent" unicode="&#x2d9;" horiz-adv-x="349" 
d="M106 636v137h137v-137h-137z" />
    <glyph glyph-name="ring" unicode="&#x2da;" horiz-adv-x="349" 
d="M178 602c-82 0 -131 49 -131 123c0 72 54 123 132 123c84 0 131 -51 131 -123c0 -74 -53 -123 -132 -123zM178 785c-32 0 -53 -24 -53 -61c0 -36 20 -60 54 -60c32 0 52 24 52 60c0 37 -19 61 -53 61z" />
    <glyph glyph-name="ogonek" unicode="&#x2db;" horiz-adv-x="349" 
d="M188 9c4 -1 64 -9 64 -9c-36 -24 -50 -43 -50 -64c0 -23 15 -34 51 -35v-89h-29c-107 0 -143 38 -143 90c0 44 34 87 107 107z" />
    <glyph glyph-name="tilde" unicode="&#x2dc;" horiz-adv-x="349" 
d="M-15 614c0 89 31 164 118 164c62 0 101 -51 140 -51c19 0 40 10 50 52h71c0 -91 -31 -165 -118 -165c-62 0 -100 51 -140 51c-18 0 -40 -10 -49 -51h-72z" />
    <glyph glyph-name="hungarumlaut" unicode="&#x2dd;" horiz-adv-x="393" 
d="M198 614l52 174h127l-86 -174h-93zM34 614l39 174h128l-73 -174h-94z" />
    <glyph glyph-name="Wgrave" unicode="&#x1e80;" horiz-adv-x="1047" 
d="M529 960l64 -133h-120l-103 133h159zM378 0h-164l-203 765h170l106 -435c19 -77 23 -129 23 -129h2s5 52 26 128l119 436h150l120 -435c21 -77 30 -129 30 -129h1s5 52 23 128l105 436h150l-202 -765h-161l-123 452c-21 77 -24 121 -24 121h-2s-4 -44 -24 -120z" />
    <glyph glyph-name="wgrave" unicode="&#x1e81;" horiz-adv-x="840" 
d="M163 0l-156 536h153l71 -270c14 -55 20 -113 20 -113h3s11 59 27 112l80 271h129l80 -271c16 -54 26 -112 26 -112h4s9 59 23 112l70 271h139l-155 -536h-153l-65 213c-20 65 -37 162 -37 162h-2s-20 -98 -40 -162l-66 -213h-151zM440 788l51 -174h-121l-88 174h158z" />
    <glyph glyph-name="Wacute" unicode="&#x1e82;" horiz-adv-x="1047" 
d="M471 827l64 133h158l-103 -133h-119zM378 0h-164l-203 765h170l106 -435c19 -77 23 -129 23 -129h2s5 52 26 128l119 436h150l120 -435c21 -77 30 -129 30 -129h1s5 52 23 128l105 436h150l-202 -765h-161l-123 452c-21 77 -24 121 -24 121h-2s-4 -44 -24 -120z" />
    <glyph glyph-name="wacute" unicode="&#x1e83;" horiz-adv-x="840" 
d="M355 614l51 174h158l-88 -174h-121zM163 0l-156 536h153l71 -270c14 -55 20 -113 20 -113h3s11 59 27 112l80 271h129l80 -271c16 -54 26 -112 26 -112h4s9 59 23 112l70 271h139l-155 -536h-153l-65 213c-20 65 -37 162 -37 162h-2s-20 -98 -40 -162l-66 -213h-151z" />
    <glyph glyph-name="Wdieresis" unicode="&#x1e84;" horiz-adv-x="1047" 
d="M574 828v137h136v-137h-136zM359 828v137h136v-137h-136zM378 0h-164l-203 765h170l106 -435c19 -77 23 -129 23 -129h2s5 52 26 128l119 436h150l120 -435c21 -77 30 -129 30 -129h1s5 52 23 128l105 436h150l-202 -765h-161l-123 452c-21 77 -24 121 -24 121h-2
s-4 -44 -24 -120z" />
    <glyph glyph-name="wdieresis" unicode="&#x1e85;" horiz-adv-x="840" 
d="M461 636v137h137v-137h-137zM253 636v137h136v-137h-136zM163 0l-156 536h153l71 -270c14 -55 20 -113 20 -113h3s11 59 27 112l80 271h129l80 -271c16 -54 26 -112 26 -112h4s9 59 23 112l70 271h139l-155 -536h-153l-65 213c-20 65 -37 162 -37 162h-2
s-20 -98 -40 -162l-66 -213h-151z" />
    <glyph glyph-name="Ygrave" unicode="&#x1ef2;" horiz-adv-x="677" 
d="M257 0v320l-256 445h181l161 -301h2l163 301h168l-255 -442v-323h-164zM339 960l64 -133h-120l-103 133h159z" />
    <glyph glyph-name="ygrave" unicode="&#x1ef3;" horiz-adv-x="551" 
d="M207 -3l-200 539h164l88 -282c18 -58 24 -105 24 -105h3s6 47 23 105l83 282h155l-188 -553c-43 -125 -95 -182 -234 -182c-52 0 -76 6 -79 7v116c9 -2 31 -5 54 -5c60 0 88 17 103 65zM300 788l51 -174h-121l-88 174h158z" />
    <glyph glyph-name="uni2009" unicode="&#x2009;" horiz-adv-x="48" 
 />
    <glyph glyph-name="endash" unicode="&#x2013;" horiz-adv-x="504" 
d="M47 256v113h410v-113h-410z" />
    <glyph glyph-name="emdash" unicode="&#x2014;" horiz-adv-x="874" 
d="M47 258v109h780v-109h-780z" />
    <glyph glyph-name="quoteleft" unicode="&#x2018;" horiz-adv-x="269" 
d="M241 765l-59 -261h-162l120 261h101z" />
    <glyph glyph-name="quoteright" unicode="&#x2019;" horiz-adv-x="269" 
d="M28 504l60 261h161l-120 -261h-101z" />
    <glyph glyph-name="quotesinglbase" unicode="&#x201a;" horiz-adv-x="269" 
d="M30 -113l60 261h162l-121 -261h-101z" />
    <glyph glyph-name="quotedblleft" unicode="&#x201c;" horiz-adv-x="476" 
d="M447 765l-60 -261h-158l117 261h101zM239 765l-59 -261h-159l117 261h101z" />
    <glyph glyph-name="quotedblright" unicode="&#x201d;" horiz-adv-x="475" 
d="M239 504l60 261h158l-117 -261h-101zM31 504l60 261h158l-117 -261h-101z" />
    <glyph glyph-name="quotedblbase" unicode="&#x201e;" horiz-adv-x="474" 
d="M238 -113l59 261h159l-117 -261h-101zM30 -113l60 261h158l-117 -261h-101z" />
    <glyph glyph-name="dagger" unicode="&#x2020;" horiz-adv-x="314" 
d="M212 558v-268h-110v268h-87v105h87v102h110v-102h88v-105h-88z" />
    <glyph glyph-name="daggerdbl" unicode="&#x2021;" horiz-adv-x="314" 
d="M212 392v-102h-110v102h-87v93h87v85h-87v93h87v102h110v-102h88v-93h-88v-85h88v-93h-88z" />
    <glyph glyph-name="bullet" unicode="&#x2022;" horiz-adv-x="320" 
d="M159 185c-70 0 -120 49 -120 123c0 72 55 123 121 123c72 0 121 -51 121 -123c0 -74 -55 -123 -122 -123z" />
    <glyph glyph-name="ellipsis" unicode="&#x2026;" horiz-adv-x="880" 
d="M660 0v159h169v-159h-169zM355 0v159h170v-159h-170zM51 0v159h169v-159h-169z" />
    <glyph glyph-name="perthousand" unicode="&#x2030;" horiz-adv-x="1297" 
d="M124 -40l534 821h114l-534 -821h-114zM220 381c-97 0 -175 61 -175 181c0 121 82 180 175 180c95 0 177 -59 177 -180c0 -120 -82 -181 -177 -181zM219 466c42 0 69 32 69 96s-27 97 -69 97s-67 -31 -67 -97c0 -64 25 -96 67 -96zM1075 -7c-97 0 -175 61 -175 181
c0 121 81 180 175 180c95 0 176 -59 176 -180c0 -120 -81 -181 -176 -181zM669 -7c-97 0 -175 61 -175 181c0 121 81 180 175 180c95 0 176 -59 176 -180c0 -120 -81 -181 -176 -181zM1074 78c41 0 69 32 69 96s-28 97 -69 97c-43 0 -68 -31 -68 -97c0 -64 25 -96 68 -96z
M668 78c41 0 69 32 69 96s-28 97 -69 97c-43 0 -68 -31 -68 -97c0 -64 25 -96 68 -96z" />
    <glyph glyph-name="uni2032" unicode="&#x2032;" horiz-adv-x="269" 
d="M47 504l21 261h162l-81 -261h-102z" />
    <glyph glyph-name="uni2033" unicode="&#x2033;" horiz-adv-x="475" 
d="M258 504l21 261h158l-78 -261h-101zM51 504l21 261h158l-78 -261h-101z" />
    <glyph glyph-name="guilsinglleft" unicode="&#x2039;" horiz-adv-x="293" 
d="M135 464h116l-97 -206l99 -201h-117l-108 204z" />
    <glyph glyph-name="guilsinglright" unicode="&#x203a;" horiz-adv-x="292" 
d="M158 57h-117l98 206l-99 201h117l107 -203z" />
    <glyph glyph-name="fraction" unicode="&#x2044;" horiz-adv-x="214" 
d="M-222 -40l547 821h111l-547 -821h-111z" />
    <glyph glyph-name="Euro" unicode="&#x20ac;" horiz-adv-x="696" 
d="M661 215c-5 -131 -98 -230 -274 -230c-167 0 -262 89 -290 265h-78v77h71c-1 13 -1 26 -1 40s0 28 1 41h-73v77h81c31 177 135 266 298 266c167 0 260 -99 268 -234h-164c-6 62 -37 122 -111 122c-71 0 -114 -45 -130 -154h179v-77h-185c-1 -12 -1 -25 -1 -39
c0 -15 0 -29 1 -42h187v-77h-181c16 -110 59 -151 130 -151c76 0 107 51 114 116h158z" />
    <glyph glyph-name="trademark" unicode="&#x2122;" horiz-adv-x="693" 
d="M264 765v-66h-92v-240h-76v240h-91v66h259zM299 459v306h122l50 -157c8 -27 11 -47 11 -47h3s3 20 12 47l50 157h120v-306h-75v224h-3s-7 -27 -19 -62l-54 -162h-68l-56 161c-12 35 -17 63 -17 63h-4v-224h-72z" />
    <glyph glyph-name="onethird" unicode="&#x2153;" horiz-adv-x="897" 
d="M688 183h-50v71h41c33 0 61 19 61 52s-25 51 -57 51c-41 0 -58 -25 -59 -54h-113c2 63 46 136 179 136c108 0 166 -52 166 -117c0 -47 -28 -83 -85 -97v-2c63 -11 96 -47 96 -103c0 -67 -61 -129 -180 -129c-135 0 -178 69 -180 136h116c3 -35 30 -53 63 -53
c41 0 66 25 66 56c0 33 -24 53 -64 53zM108 334v280h-94v76h14c26 0 49 5 66 17c15 11 24 31 24 58h105v-431h-115zM56 -40l547 821h111l-547 -821h-111z" />
    <glyph glyph-name="twothirds" unicode="&#x2154;" horiz-adv-x="997" 
d="M787 183h-50v71h41c33 0 61 19 61 52s-25 51 -57 51c-41 0 -58 -25 -59 -54h-113c2 63 46 136 179 136c108 0 166 -52 166 -117c0 -47 -28 -83 -85 -97v-2c63 -11 96 -47 96 -103c0 -67 -61 -129 -180 -129c-135 0 -178 69 -180 136h116c3 -35 30 -53 63 -53
c41 0 66 25 66 56c0 33 -24 53 -64 53zM137 614h-113c2 96 63 157 180 157c120 0 171 -56 171 -126c0 -65 -36 -103 -105 -158l-79 -65v-2h187v-86h-358v61l174 151c46 39 63 61 63 92c0 32 -21 52 -54 52c-36 0 -66 -19 -66 -76zM176 -40l547 821h111l-547 -821h-111z" />
    <glyph glyph-name="oneeighth" unicode="&#x215b;" horiz-adv-x="895" 
d="M516 319c0 70 55 118 168 118s168 -48 168 -119c0 -50 -27 -79 -66 -93v-2c50 -13 83 -43 83 -102c0 -75 -65 -130 -185 -130c-128 0 -184 52 -184 130c0 55 33 88 82 102v2c-39 13 -66 43 -66 94zM684 366c-34 0 -59 -17 -59 -56c0 -36 25 -56 59 -56s59 20 59 56
c0 39 -25 56 -59 56zM684 63c40 0 70 21 70 62c0 42 -29 63 -70 63s-71 -21 -71 -63c0 -41 32 -62 71 -62zM108 334v280h-94v76h14c26 0 49 5 66 17c15 11 24 31 24 58h105v-431h-115zM55 -40l547 821h111l-547 -821h-111z" />
    <glyph glyph-name="threeeighths" unicode="&#x215c;" horiz-adv-x="972" 
d="M593 320c0 70 55 118 168 118s168 -48 168 -119c0 -50 -27 -79 -66 -93v-2c50 -13 83 -43 83 -102c0 -75 -65 -130 -185 -130c-128 0 -184 52 -184 130c0 55 33 88 82 102v2c-39 13 -66 43 -66 94zM761 367c-34 0 -59 -17 -59 -56c0 -36 25 -56 59 -56s59 20 59 56
c0 39 -25 56 -59 56zM761 64c40 0 70 21 70 62c0 42 -29 63 -70 63s-71 -21 -71 -63c0 -41 32 -62 71 -62zM151 -40l547 821h111l-547 -821h-111zM208 517h-50v71h41c33 0 61 19 61 52s-25 51 -57 51c-41 0 -58 -25 -59 -54h-113c2 63 46 136 179 136
c108 0 166 -52 166 -117c0 -47 -28 -83 -85 -97v-2c63 -11 96 -47 96 -103c0 -67 -61 -129 -180 -129c-135 0 -178 69 -180 136h116c3 -35 30 -53 63 -53c41 0 66 25 66 56c0 33 -24 53 -64 53z" />
    <glyph glyph-name="fiveeighths" unicode="&#x215d;" horiz-adv-x="968" 
d="M589 319c0 70 55 118 168 118s168 -48 168 -119c0 -50 -27 -79 -66 -93v-2c50 -13 83 -43 83 -102c0 -75 -65 -130 -185 -130c-128 0 -184 52 -184 130c0 55 33 88 82 102v2c-39 13 -66 43 -66 94zM757 366c-34 0 -59 -17 -59 -56c0 -36 25 -56 59 -56s59 20 59 56
c0 39 -25 56 -59 56zM757 63c40 0 70 21 70 62c0 42 -29 63 -70 63s-71 -21 -71 -63c0 -41 32 -62 71 -62zM270 474c0 39 -27 66 -66 66c-28 0 -49 -11 -63 -29h-100l20 254h293v-88h-205l-9 -104h1c17 23 50 44 101 44c84 0 141 -47 141 -136c0 -86 -57 -156 -182 -156
c-133 0 -171 67 -176 134h115c3 -34 29 -51 63 -51c38 0 67 24 67 66zM144 -40l547 821h111l-547 -821h-111z" />
    <glyph glyph-name="seveneighths" unicode="&#x215e;" horiz-adv-x="900" 
d="M521 319c0 70 55 118 168 118s168 -48 168 -119c0 -50 -27 -79 -66 -93v-2c50 -13 83 -43 83 -102c0 -75 -65 -130 -185 -130c-128 0 -184 52 -184 130c0 55 33 88 82 102v2c-39 13 -66 43 -66 94zM689 366c-34 0 -59 -17 -59 -56c0 -36 25 -56 59 -56s59 20 59 56
c0 39 -25 56 -59 56zM689 63c40 0 70 21 70 62c0 42 -29 63 -70 63s-71 -21 -71 -63c0 -41 32 -62 71 -62zM51 334l169 343h-202v88h337v-62l-183 -369h-121zM53 -40l547 821h111l-547 -821h-111z" />
    <glyph glyph-name="minus" unicode="&#x2212;" horiz-adv-x="612" 
d="M66 300v116h480v-116h-480z" />
    <glyph glyph-name="approxequal" unicode="&#x2248;" horiz-adv-x="613" 
d="M70 380c0 89 43 165 136 165c65 0 147 -46 194 -46c24 0 41 11 46 50h91c0 -91 -39 -165 -127 -165c-68 0 -150 46 -196 46c-26 0 -42 -16 -45 -50h-99zM70 181c0 90 43 165 136 165c65 0 147 -46 194 -46c24 0 41 11 46 50h91c0 -90 -39 -165 -127 -165
c-68 0 -150 46 -196 46c-26 0 -42 -16 -45 -50h-99z" />
    <glyph glyph-name="notequal" unicode="&#x2260;" horiz-adv-x="613" 
d="M282 195l-48 -105h-94l48 105h-122v115h175l41 90h-216v115h269l51 111h94l-51 -111h117v-115h-170l-41 -90h211v-115h-264z" />
    <glyph glyph-name="lessequal" unicode="&#x2264;" horiz-adv-x="613" 
d="M550 167l-496 223v83l496 223v-126l-316 -135l316 -138v-130zM550 0h-496v115h496v-115z" />
    <glyph glyph-name="greaterequal" unicode="&#x2265;" horiz-adv-x="613" 
d="M63 696l496 -223v-83l-496 -223v126l316 136l-316 137v130zM559 0h-496v115h496v-115z" />
    <glyph glyph-name="uni24C5" unicode="&#x24c5;" horiz-adv-x="879" 
d="M45 380c0 224 168 397 394 397s395 -173 395 -397s-169 -396 -395 -396s-394 172 -394 396zM439 41c189 0 330 147 330 339s-141 340 -330 340s-329 -148 -329 -340s140 -339 329 -339zM395 172h-105v422h172c100 0 166 -49 166 -143c0 -100 -68 -147 -169 -147h-64v-132
zM395 381h54c47 0 78 21 78 69s-31 67 -77 67h-55v-136z" />
    <glyph glyph-name="quotedblright.sc" unicode="&#xf61d;" horiz-adv-x="475" 
d="M239 383l60 261h158l-117 -261h-101zM31 383l60 261h158l-117 -261h-101z" />
    <glyph glyph-name="Ibreve.sc" unicode="&#xf630;" horiz-adv-x="299" 
d="M70 0v644h159v-644h-159zM150 711c-92 0 -166 52 -166 176h105c0 -49 26 -74 64 -74s65 25 65 74h99c0 -124 -74 -176 -167 -176z" />
    <glyph glyph-name="exclamdown.uc" horiz-adv-x="310" 
d="M235 522l32 -545h-184l33 545h119zM88 765h175v-152h-175v152z" />
    <glyph glyph-name="hyphen.uc" horiz-adv-x="405" 
d="M47 300v121h312v-121h-312z" />
    <glyph glyph-name="endash.uc" horiz-adv-x="504" 
d="M47 301v113h410v-113h-410z" />
    <glyph glyph-name="emdash.uc" horiz-adv-x="874" 
d="M47 303v109h780v-109h-780z" />
    <glyph glyph-name="guilsinglleft.uc" horiz-adv-x="293" 
d="M135 524h116l-97 -206l99 -201h-117l-108 204z" />
    <glyph glyph-name="guilsinglright.uc" horiz-adv-x="292" 
d="M158 117h-117l98 206l-99 201h117l107 -203z" />
    <glyph glyph-name="guillemotleft.uc" horiz-adv-x="511" 
d="M354 524h116l-97 -206l98 -201h-116l-108 204zM135 524h116l-97 -206l99 -201h-117l-108 204z" />
    <glyph glyph-name="guillemotright.uc" horiz-adv-x="524" 
d="M165 117h-118l99 206l-100 201h118l106 -203zM389 117h-116l97 206l-98 201h116l108 -203z" />
    <glyph glyph-name="parenleft.uc" horiz-adv-x="346" 
d="M333 -100h-114c-72 100 -161 251 -161 459c0 210 89 359 161 459h114c-69 -122 -132 -268 -132 -459c0 -190 63 -336 132 -459z" />
    <glyph glyph-name="parenright.uc" horiz-adv-x="337" 
d="M13 -100c69 123 132 269 132 459c0 191 -63 337 -132 459h113c73 -100 161 -249 161 -459c0 -208 -88 -359 -161 -459h-113z" />
    <glyph glyph-name="space_uni0326" horiz-adv-x="349" 
d="M99 -207l24 156h154l-73 -156h-105z" />
    <glyph glyph-name="grave.uc" horiz-adv-x="348" 
d="M192 960l64 -133h-120l-103 133h159z" />
    <glyph glyph-name="bracketleft.uc" horiz-adv-x="366" 
d="M87 -100v918h264v-96h-133v-726h133v-96h-264z" />
    <glyph glyph-name="bracketright.uc" horiz-adv-x="366" 
d="M279 818v-918h-264v96h133v726h-133v96h264z" />
    <glyph glyph-name="braceleft.uc" horiz-adv-x="393" 
d="M62 303h-30v109h30c45 0 60 19 60 68v153c0 147 80 189 256 189v-92c-107 0 -130 -29 -130 -112v-128c0 -60 -15 -116 -80 -129v-4c65 -14 80 -69 80 -132v-125c0 -83 23 -112 130 -112v-92c-176 0 -256 42 -256 181v158c0 49 -15 68 -60 68z" />
    <glyph glyph-name="braceright.uc" horiz-adv-x="393" 
d="M362 415v-109h-30c-46 0 -60 -19 -60 -68v-153c0 -147 -81 -189 -257 -189v92c107 0 131 29 131 112v129c0 59 15 115 80 128v4c-65 14 -80 69 -80 132v125c0 83 -24 112 -131 112v92c176 0 257 -42 257 -181v-158c0 -49 14 -68 60 -68h30z" />
    <glyph glyph-name="slash.uc" horiz-adv-x="539" 
d="M-15 -91l432 902h120l-432 -902h-120z" />
    <glyph glyph-name="backslash.uc" horiz-adv-x="539" 
d="M433 -91l-431 902h120l431 -902h-120z" />
    <glyph glyph-name="bar.uc" horiz-adv-x="269" 
d="M79 -91v902h108v-902h-108z" />
    <glyph glyph-name="acute.uc" horiz-adv-x="348" 
d="M83 827l64 133h158l-103 -133h-119z" />
    <glyph glyph-name="at.uc" horiz-adv-x="1002" 
d="M710 126c-76 0 -131 33 -139 97h-3c-31 -55 -78 -95 -155 -95c-98 0 -156 66 -156 178c0 137 85 277 225 277c65 0 105 -34 119 -74h2l11 58h128l-59 -277c-12 -58 8 -90 55 -90c64 0 131 62 131 214c0 190 -148 333 -355 333c-218 0 -392 -178 -392 -411
c0 -235 155 -384 366 -384c108 0 199 37 257 84l44 -45c-67 -56 -167 -104 -308 -104c-253 0 -437 181 -437 449c0 274 207 476 472 476c248 0 433 -159 433 -392c0 -208 -117 -294 -239 -294zM458 218c48 0 93 46 107 116l9 44c12 61 -10 116 -65 116
c-81 0 -118 -107 -118 -188c0 -54 22 -88 67 -88z" />
    <glyph glyph-name="f.short" horiz-adv-x="351" 
d="M241 426v-426h-155v426h-77v110h77v72c0 142 77 186 193 186c41 0 73 -5 78 -6v-111c-3 1 -20 3 -44 3c-47 0 -72 -19 -72 -80v-64h105v-110h-105z" />
    <glyph glyph-name="f_f.short" horiz-adv-x="715" 
d="M241 426v-426h-155v426h-77v110h77v64c0 143 77 186 193 186c41 0 73 -5 78 -6v-111c-3 1 -20 4 -44 4c-47 0 -72 -20 -72 -80v-57h209v72c0 142 77 186 193 186c41 0 73 -5 78 -6v-111c-3 1 -20 3 -44 3c-47 0 -72 -19 -72 -80v-64h105v-110h-105v-426h-155v426h-209z
" />
    <glyph glyph-name="macron.uc" horiz-adv-x="349" 
d="M3 838v104h342v-104h-342z" />
    <glyph glyph-name="circumflex.uc" horiz-adv-x="349" 
d="M243 960l108 -133h-115l-66 56h-1l-64 -56h-106l108 133h136z" />
    <glyph glyph-name="caron.uc" horiz-adv-x="349" 
d="M107 827l-108 133h115l66 -56h1l64 56h106l-108 -133h-136z" />
    <glyph glyph-name="breve.uc" horiz-adv-x="349" 
d="M174 815c-90 0 -163 45 -166 157h103c3 -40 30 -63 66 -63s63 23 67 63h97c-3 -112 -76 -157 -167 -157z" />
    <glyph glyph-name="caron.alt" horiz-adv-x="349" 
d="M122 601l6 187h125l-56 -187h-75z" />
    <glyph glyph-name="dotaccent.uc" horiz-adv-x="349" 
d="M106 833v137h137v-137h-137z" />
    <glyph glyph-name="ring.uc" horiz-adv-x="349" 
d="M178 797c-82 0 -131 49 -131 122s54 124 132 124c84 0 131 -51 131 -124s-53 -122 -132 -122zM178 980c-32 0 -53 -25 -53 -61s20 -61 54 -61c32 0 52 25 52 61s-19 61 -53 61z" />
    <glyph glyph-name="sterling.tab" 
d="M555 126v-126h-518v92l40 29c63 46 83 91 57 181h-104v97h70l-9 27c-74 210 53 326 226 326c168 0 235 -87 238 -223h-150c-2 62 -23 115 -88 115c-81 0 -110 -72 -77 -190l15 -55h177v-97h-152c10 -73 -12 -123 -64 -165l-11 -9v-2h350z" />
    <glyph glyph-name="tilde.uc" horiz-adv-x="349" 
d="M-15 819c2 85 30 155 116 155c63 0 104 -52 143 -52c20 0 39 14 49 53h71c-2 -85 -30 -155 -116 -155c-63 0 -103 52 -144 52c-17 0 -38 -13 -47 -53h-72z" />
    <glyph glyph-name="cent.tab" unicode="&#xe459;" 
d="M403 199h140c-5 -129 -88 -200 -211 -210v-105h-69v104c-150 14 -229 117 -229 280c0 161 83 265 229 279v88h69v-87c124 -10 204 -80 208 -204h-141c-4 47 -24 88 -67 101v-352c50 15 69 61 71 106zM263 94v350c-62 -20 -82 -96 -82 -174c0 -73 14 -155 82 -176z" />
    <glyph glyph-name="plus.tab" 
d="M352 300v-196h-125v196h-190v116h190v194h125v-194h191v-116h-191z" />
    <glyph glyph-name="minus.tab" 
d="M50 300v116h480v-116h-480z" />
    <glyph glyph-name="multiply.tab" 
d="M123 95l-86 86l169 166l-168 166l86 87l166 -168l166 168l86 -85l-168 -167l168 -166l-86 -87l-167 169z" />
    <glyph glyph-name="divide.tab" 
d="M213 492v143h153v-143h-153zM50 300v116h480v-116h-480zM366 78h-153v144h153v-144z" />
    <glyph glyph-name="equal.tab" 
d="M50 400v115h480v-115h-480zM530 195h-480v115h480v-115z" />
    <glyph glyph-name="less.tab" 
d="M537 45l-497 252v72l497 253v-130l-316 -156l316 -157v-134z" />
    <glyph glyph-name="greater.tab" 
d="M43 618l497 -252v-71l-497 -253v130l316 156l-316 157v133z" />
    <glyph glyph-name="florin.tab" 
d="M352 348l-71 -537h-153l68 537h-101v111h115l14 110c22 176 108 223 219 223c38 0 68 -5 73 -6v-116c-3 1 -15 4 -40 4c-46 0 -83 -14 -95 -105l-15 -110h119v-111h-133z" />
    <glyph glyph-name="plusminus.tab" 
d="M352 369v-170h-125v170h-190v116h190v168h125v-168h191v-116h-191zM37 0v115h506v-115h-506z" />
    <glyph glyph-name="notequal.tab" 
d="M265 195l-48 -105h-94l48 105h-121v115h174l41 90h-215v115h268l51 111h94l-51 -111h118v-115h-171l-41 -90h212v-115h-265z" />
    <glyph glyph-name="approxequal.tab" 
d="M56 380c0 89 44 165 136 165c65 0 148 -46 194 -46c24 0 42 11 46 50h92c0 -91 -39 -165 -128 -165c-68 0 -150 46 -196 46c-26 0 -41 -16 -45 -50h-99zM56 181c0 90 44 165 136 165c65 0 148 -46 194 -46c24 0 42 11 46 50h92c0 -90 -39 -165 -128 -165
c-68 0 -150 46 -196 46c-26 0 -41 -16 -45 -50h-99z" />
    <glyph glyph-name="lessequal.tab" 
d="M537 167l-497 223v83l497 223v-126l-317 -135l317 -138v-130zM537 0h-497v115h497v-115z" />
    <glyph glyph-name="greaterequal.tab" 
d="M43 696l497 -223v-83l-497 -223v126l317 136l-317 137v130zM540 0h-497v115h497v-115z" />
    <glyph glyph-name="period.tab" horiz-adv-x="280" 
d="M55 0v159h169v-159h-169z" />
    <glyph glyph-name="comma.tab" horiz-adv-x="280" 
d="M28 -117l52 276h164l-110 -276h-106z" />
    <glyph glyph-name="colon.tab" horiz-adv-x="280" 
d="M56 368v159h167v-159h-167zM223 0h-167v159h167v-159z" />
    <glyph glyph-name="semicolon.tab" horiz-adv-x="280" 
d="M70 368v159h167v-159h-167zM125 -117h-106l52 276h164z" />
    <glyph glyph-name="hungarumlaut.uc" horiz-adv-x="393" 
d="M207 831l35 133h126l-69 -133h-92zM42 831l22 133h125l-56 -133h-91z" />
    <glyph glyph-name="currency.tab" 
d="M200 348c0 -55 35 -95 88 -95c54 0 89 40 89 95s-35 95 -89 95c-53 0 -88 -40 -88 -95zM103 348c0 30 7 58 18 83l-97 96l86 86l96 -98c24 12 52 19 82 19c31 0 60 -8 84 -20l98 100l86 -86l-101 -98c12 -24 19 -52 19 -82c0 -31 -7 -59 -19 -82l100 -98l-86 -86l-98 99
c-24 -12 -53 -18 -83 -18s-58 6 -82 17l-97 -99l-85 86l98 96c-12 25 -19 54 -19 85z" />
    <glyph glyph-name="percent.tab" horiz-adv-x="880" 
d="M118 -40l534 821h113l-534 -821h-113zM212 381c-92 0 -167 61 -167 181c0 121 79 180 167 180c90 0 168 -59 168 -180c0 -120 -78 -181 -168 -181zM211 466c40 0 64 32 64 96s-24 97 -64 97c-41 0 -62 -31 -62 -97c0 -64 21 -96 62 -96zM667 -7c-92 0 -167 61 -167 181
c0 121 78 180 167 180c90 0 168 -59 168 -180c0 -120 -78 -181 -168 -181zM666 78c40 0 63 32 63 96s-23 97 -63 97c-41 0 -63 -31 -63 -97c0 -64 22 -96 63 -96z" />
    <glyph glyph-name="perthousand.tab" horiz-adv-x="1180" 
d="M82 -40l534 821h114l-534 -821h-114zM45 562c0 121 74 180 157 180c85 0 158 -59 158 -180c0 -120 -73 -181 -158 -181c-87 0 -157 61 -157 181zM201 466c36 0 59 32 59 96s-23 97 -59 97s-57 -31 -57 -97c0 -64 21 -96 57 -96zM977 -7c-86 0 -156 61 -156 181
c0 121 73 180 156 180c85 0 158 -59 158 -180c0 -120 -73 -181 -158 -181zM607 -7c-87 0 -157 61 -157 181c0 121 72 180 157 180c84 0 157 -59 157 -180c0 -120 -73 -181 -157 -181zM976 78c35 0 59 32 59 96s-24 97 -59 97s-58 -31 -58 -97c0 -64 23 -96 58 -96zM606 78
c35 0 58 32 58 96s-23 97 -58 97c-36 0 -58 -31 -58 -97c0 -64 22 -96 58 -96z" />
    <glyph glyph-name="idotaccent" horiz-adv-x="275" 
d="M57 629v144h161v-144h-161zM58 0v536h159v-536h-159z" />
    <glyph glyph-name="A.sc" unicode="&#xf761;" horiz-adv-x="668" 
d="M327 514c-1 -3 -8 -40 -31 -111l-54 -165h168l-54 165c-24 73 -27 111 -27 111h-2zM491 0l-45 132h-240l-46 -132h-151l236 644h177l237 -644h-168z" />
    <glyph glyph-name="AE.sc" unicode="&#xf7e6;" horiz-adv-x="946" 
d="M449 254v277h-38l-131 -277h169zM231 151l-72 -151h-157l325 644h559v-113h-281v-154h267v-110h-267v-155h290v-112h-446v151h-218z" />
    <glyph glyph-name="B.sc" unicode="&#xf762;" horiz-adv-x="646" 
d="M357 0h-287v644h285c149 0 227 -52 227 -161c0 -79 -57 -122 -113 -137v-3c79 -13 143 -67 143 -154c0 -125 -101 -189 -255 -189zM229 381h100c61 0 100 24 100 81c0 52 -38 79 -98 79h-102v-160zM229 106h118c66 0 107 23 107 90c0 57 -41 84 -109 84h-116v-174z" />
    <glyph glyph-name="C.sc" unicode="&#xf763;" horiz-adv-x="674" 
d="M356 544c-83 0 -140 -72 -140 -224s51 -223 137 -223c70 0 110 45 117 125h161c-6 -149 -111 -236 -277 -236c-210 0 -307 126 -307 326c0 211 117 341 310 341c174 0 270 -81 275 -233h-163c-6 82 -44 124 -113 124z" />
    <glyph glyph-name="D.sc" unicode="&#xf764;" horiz-adv-x="688" 
d="M70 0v644h238c197 0 335 -95 335 -314c0 -220 -137 -330 -334 -330h-239zM229 111h75c102 0 171 54 171 216c0 154 -70 207 -167 207h-79v-423z" />
    <glyph glyph-name="Dcroat.sc" unicode="&#xf646;" horiz-adv-x="707" 
d="M330 0h-240v273h-61v99h61v272h238c198 0 335 -95 335 -314c0 -220 -137 -330 -333 -330zM250 111h74c102 0 171 54 171 216c0 154 -69 207 -167 207h-78v-162h130v-99h-130v-162z" />
    <glyph glyph-name="E.sc" unicode="&#xf765;" horiz-adv-x="574" 
d="M70 0v644h445v-113h-286v-154h271v-110h-271v-155h295v-112h-454z" />
    <glyph glyph-name="Eng.sc" unicode="&#xf62b;" horiz-adv-x="698" 
d="M378 -166h-57v113h42c67 0 101 13 115 50l-204 327c-38 61 -59 112 -59 112h-3v-436h-142v644h170l187 -316c37 -63 55 -108 55 -108h3v424h143v-596c0 -168 -94 -214 -250 -214z" />
    <glyph glyph-name="Eth.sc" unicode="&#xf7f0;" horiz-adv-x="707" 
d="M330 0h-240v273h-61v99h61v272h238c198 0 335 -95 335 -314c0 -220 -137 -330 -333 -330zM250 111h74c102 0 171 54 171 216c0 154 -69 207 -167 207h-78v-162h130v-99h-130v-162z" />
    <glyph glyph-name="F.sc" unicode="&#xf766;" horiz-adv-x="546" 
d="M229 239v-239h-159v644h436v-116h-277v-176h260v-113h-260z" />
    <glyph glyph-name="G.sc" unicode="&#xf767;" horiz-adv-x="707" 
d="M363 546c-95 0 -151 -75 -151 -227c0 -164 60 -224 149 -224c82 0 140 49 140 134v10h-142v106h286v-345h-117v86h-3c-32 -58 -93 -99 -188 -99c-198 0 -291 131 -291 323c0 209 124 343 319 343c167 0 263 -80 273 -209h-161c-8 64 -48 102 -114 102z" />
    <glyph glyph-name="H.sc" unicode="&#xf768;" horiz-adv-x="705" 
d="M229 263v-263h-159v644h159v-265h246v265h160v-644h-160v263h-246z" />
    <glyph glyph-name="I.sc" unicode="&#xf769;" horiz-adv-x="299" 
d="M70 0v644h159v-644h-159z" />
    <glyph glyph-name="IJ.sc" unicode="&#xf631;" horiz-adv-x="691" 
d="M379 -2h-48v119h24c103 0 117 40 117 114v413h157v-431c0 -166 -95 -215 -250 -215zM70 0v644h159v-644h-159z" />
    <glyph glyph-name="J.sc" unicode="&#xf76a;" horiz-adv-x="400" 
d="M89 -2h-63v119h36c104 0 119 40 119 114v413h157v-431c0 -166 -94 -215 -249 -215z" />
    <glyph glyph-name="K.sc" unicode="&#xf76b;" horiz-adv-x="658" 
d="M229 189v-189h-159v644h159v-284l237 284h167l-232 -274l239 -370h-180l-167 263z" />
    <glyph glyph-name="L.sc" unicode="&#xf76c;" horiz-adv-x="551" 
d="M70 0v644h159v-525h274v-119h-433z" />
    <glyph glyph-name="M.sc" unicode="&#xf76d;" horiz-adv-x="860" 
d="M70 0v644h225l107 -332c17 -53 26 -99 26 -99h3s9 46 26 99l105 332h228v-644h-153v504h-2s-15 -64 -41 -145l-114 -359h-112l-115 360c-26 80 -39 144 -39 144h-3v-504h-141z" />
    <glyph glyph-name="N.sc" unicode="&#xf76e;" horiz-adv-x="698" 
d="M70 0v644h170l186 -317c37 -63 56 -109 56 -109h3v426h143v-644h-161l-193 324c-37 62 -59 113 -59 113h-3v-437h-142z" />
    <glyph glyph-name="O.sc" unicode="&#xf76f;" horiz-adv-x="722" 
d="M47 320c0 209 123 333 314 333c200 0 314 -121 314 -333c0 -210 -120 -333 -314 -333c-206 0 -314 121 -314 333zM361 96c94 0 146 76 146 224c0 149 -61 226 -146 226c-94 0 -145 -75 -145 -226c0 -150 46 -224 145 -224z" />
    <glyph glyph-name="OE.sc" unicode="&#xf6fa;" horiz-adv-x="1002" 
d="M508 265v105c0 106 -52 176 -140 176c-81 0 -150 -64 -150 -225c0 -148 56 -225 148 -225c94 0 142 66 142 169zM504 65c-29 -44 -85 -77 -170 -77c-173 0 -287 113 -287 332s129 333 294 333c69 0 134 -28 164 -81h2v72h435v-113h-281v-154h267v-110h-267v-155h290v-112
h-444v65h-3z" />
    <glyph glyph-name="Oslash.sc" unicode="&#xf7f8;" horiz-adv-x="722" 
d="M361 549c-98 0 -152 -76 -152 -229c0 -44 4 -80 11 -111l244 296c-26 30 -61 44 -103 44zM361 93c97 0 153 76 153 227c0 45 -5 83 -14 114l-246 -299c25 -28 60 -42 107 -42zM675 320c0 -210 -120 -333 -314 -333c-74 0 -138 17 -187 51l-49 -59h-95l89 108
c-47 56 -72 135 -72 233c0 209 123 333 314 333c73 0 135 -17 185 -49l53 64h95l-93 -113c48 -56 74 -136 74 -235z" />
    <glyph glyph-name="P.sc" unicode="&#xf770;" horiz-adv-x="596" 
d="M302 214h-73v-214h-159v644h246c148 0 255 -59 255 -210c0 -161 -108 -220 -269 -220zM229 325h75c72 0 116 36 116 109s-45 103 -115 103h-76v-212z" />
    <glyph glyph-name="Q.sc" unicode="&#xf771;" horiz-adv-x="721" 
d="M47 320c0 208 120 334 315 333c198 0 313 -122 314 -333c-1 -123 -43 -222 -126 -267v-4c65 -8 101 -39 130 -96l-131 -72c-44 79 -79 110 -145 110c-20 0 -25 -2 -44 -2c-208 0 -313 120 -313 331zM361 94c96 0 146 70 146 224c0 151 -59 228 -145 228
c-97 0 -146 -78 -146 -228s48 -224 145 -224z" />
    <glyph glyph-name="R.sc" unicode="&#xf772;" horiz-adv-x="643" 
d="M229 344h89c59 0 113 26 113 100c0 68 -52 97 -111 97h-91v-197zM447 0l-127 245h-91v-245h-159v644h268c41 0 86 -3 132 -20c63 -22 123 -77 123 -171c0 -103 -61 -153 -127 -177v-2l150 -274h-169z" />
    <glyph glyph-name="S.sc" unicode="&#xf773;" horiz-adv-x="610" 
d="M553 469h-156c-3 41 -31 77 -92 77c-53 0 -91 -27 -91 -72c0 -42 24 -65 81 -74l105 -17c115 -19 170 -84 170 -180c0 -143 -108 -217 -268 -217c-165 0 -262 81 -265 199h158c4 -54 42 -91 112 -91c74 0 105 35 105 81c0 38 -23 66 -85 77l-104 18
c-101 17 -166 78 -166 184c0 111 89 199 250 199c172 0 239 -81 246 -184z" />
    <glyph glyph-name="T.sc" unicode="&#xf774;" horiz-adv-x="572" 
d="M554 644v-120h-188v-524h-160v524h-188v120h536z" />
    <glyph glyph-name="Tbar.sc" unicode="&#xf637;" horiz-adv-x="572" 
d="M554 644v-120h-188v-131h145v-90h-145v-303h-160v303h-147v90h147v131h-188v120h536z" />
    <glyph glyph-name="Thorn.sc" unicode="&#xf7fe;" horiz-adv-x="593" 
d="M324 133h-95v-133h-159v644h159v-122h104c135 0 234 -54 234 -190c0 -146 -103 -199 -243 -199zM314 237c63 2 101 33 101 93c0 65 -41 90 -105 90h-81v-183h85z" />
    <glyph glyph-name="U.sc" unicode="&#xf775;" horiz-adv-x="673" 
d="M64 228v416h158v-393c0 -39 3 -80 22 -106s49 -40 94 -40c46 0 77 14 96 41c18 25 20 66 20 105v393h155v-416c0 -164 -107 -242 -272 -242c-169 0 -273 74 -273 242z" />
    <glyph glyph-name="V.sc" unicode="&#xf776;" horiz-adv-x="632" 
d="M228 0l-221 644h167l120 -385c22 -71 26 -117 26 -117h3s6 46 29 118l121 384h152l-219 -644h-178z" />
    <glyph glyph-name="W.sc" unicode="&#xf777;" horiz-adv-x="907" 
d="M336 0h-156l-170 644h164l78 -337c15 -66 20 -128 20 -128h2s6 56 24 121l93 344h142l95 -347c18 -65 25 -118 25 -118h2s4 57 19 122l77 343h146l-169 -644h-153l-98 356c-17 63 -21 116 -21 116h-2s-4 -54 -21 -116z" />
    <glyph glyph-name="X.sc" unicode="&#xf778;" horiz-adv-x="657" 
d="M9 0l228 333l-204 311h178l122 -201h1l127 201h162l-207 -306l228 -338h-186l-139 222h-2l-144 -222h-164z" />
    <glyph glyph-name="Y.sc" unicode="&#xf779;" horiz-adv-x="603" 
d="M223 0v271l-220 373h171l133 -248h2l132 248h159l-219 -373v-271h-158z" />
    <glyph glyph-name="Z.sc" unicode="&#xf77a;" horiz-adv-x="586" 
d="M52 528v116h494v-104l-325 -423h328v-117h-513v104l326 424h-310z" />
    <glyph glyph-name="ampersand.sc" unicode="&#xf726;" horiz-adv-x="683" 
d="M241 495c0 -33 9 -48 54 -95c47 31 74 58 74 101c0 38 -25 62 -62 62c-40 0 -66 -29 -66 -68zM237 282l-4 -3c-30 -20 -55 -48 -55 -90c0 -61 41 -96 101 -96c42 0 74 16 101 43zM642 0h-33c-71 0 -104 14 -152 59c-49 -45 -111 -72 -195 -72c-146 0 -226 72 -226 184
c0 77 52 136 138 185c-43 44 -67 82 -67 140c0 87 74 157 201 157c120 0 189 -62 189 -141c0 -81 -53 -122 -135 -178l87 -90c15 32 30 68 46 105h136c-33 -69 -62 -135 -96 -191c39 -38 58 -43 107 -43v-115z" />
    <glyph glyph-name="uni0237.sc" horiz-adv-x="400" 
d="M89 -2h-63v119h36c104 0 119 40 119 114v413h157v-431c0 -166 -94 -215 -249 -215z" />
    <glyph glyph-name="exclam.sc" unicode="&#xf721;" horiz-adv-x="325" 
d="M107 206l-31 438h172l-31 -438h-110zM242 0h-160v134h160v-134z" />
    <glyph glyph-name="exclamdown.sc" unicode="&#xf7a1;" horiz-adv-x="325" 
d="M242 644v-134h-160v134h160zM217 438l31 -438h-172l32 438h109z" />
    <glyph glyph-name="germandbls.sc" unicode="&#xf667;" horiz-adv-x="1239" 
d="M553 469h-156c-3 41 -31 77 -92 77c-53 0 -91 -27 -91 -72c0 -42 24 -65 81 -74l105 -17c115 -19 170 -84 170 -180c0 -143 -108 -217 -268 -217c-165 0 -262 81 -265 199h158c4 -54 42 -91 112 -91c74 0 105 35 105 81c0 38 -23 66 -85 77l-104 18
c-101 17 -166 78 -166 184c0 111 89 199 250 199c172 0 239 -81 246 -184zM1183 469h-156c-3 41 -31 77 -92 77c-53 0 -91 -27 -91 -72c0 -42 24 -65 81 -74l105 -17c115 -19 170 -84 170 -180c0 -143 -108 -217 -268 -217c-165 0 -262 81 -265 199h158
c4 -54 42 -91 112 -91c74 0 105 35 105 81c0 38 -23 66 -85 77l-104 18c-101 17 -166 78 -166 184c0 111 89 199 250 199c172 0 239 -81 246 -184z" />
    <glyph glyph-name="question.sc" unicode="&#xf73f;" horiz-adv-x="546" 
d="M337 206h-128v42c0 39 8 63 49 96l53 43c38 31 48 51 48 85c0 43 -31 75 -85 75c-67 0 -100 -42 -100 -113h-137c-2 125 81 219 240 219c149 0 229 -75 229 -176c0 -80 -34 -123 -89 -166l-58 -45c-21 -16 -22 -22 -22 -48v-12zM191 0v138h161v-138h-161z" />
    <glyph glyph-name="questiondown.sc" unicode="&#xf7bf;" horiz-adv-x="546" 
d="M354 644v-137h-161v137h161zM268 -9c-149 0 -229 75 -229 177c0 79 35 121 89 165l58 46c20 16 22 21 22 47v12h128v-42c0 -39 -8 -63 -49 -96l-53 -43c-38 -30 -48 -51 -48 -85c0 -43 31 -74 84 -74c68 0 101 41 101 112h137c2 -124 -81 -219 -240 -219z" />
    <glyph glyph-name="quotedblleft.sc" unicode="&#xf61c;" horiz-adv-x="476" 
d="M447 644l-60 -261h-158l117 261h101zM239 644l-59 -261h-159l117 261h101z" />
    <glyph glyph-name="space.tab" horiz-adv-x="300" 
 />
    <glyph glyph-name="quoteleft.sc" unicode="&#xf61f;" horiz-adv-x="269" 
d="M241 644l-59 -261h-162l120 261h101z" />
    <glyph glyph-name="quoteright.sc" unicode="&#xf620;" horiz-adv-x="269" 
d="M28 383l60 261h161l-120 -261h-101z" />
    <glyph glyph-name="Lslash.sc" unicode="&#xf6f9;" horiz-adv-x="551" 
d="M70 0v216l-64 -22v106l64 22v322h159v-266l187 65v-105l-187 -66v-153h274v-119h-433z" />
    <glyph glyph-name="AEacute.sc" unicode="&#xf624;" horiz-adv-x="946" 
d="M487 713l51 174h158l-88 -174h-121zM449 254v277h-38l-131 -277h169zM231 151l-72 -151h-157l325 644h559v-113h-281v-154h267v-110h-267v-155h290v-112h-446v151h-218z" />
    <glyph glyph-name="Aacute.sc" unicode="&#xf7e1;" horiz-adv-x="668" 
d="M273 713l51 174h158l-88 -174h-121zM327 514c-1 -3 -8 -40 -31 -111l-54 -165h168l-54 165c-24 73 -27 111 -27 111h-2zM491 0l-45 132h-240l-46 -132h-151l236 644h177l237 -644h-168z" />
    <glyph glyph-name="Abreve.sc" unicode="&#xf640;" horiz-adv-x="668" 
d="M327 514c-1 -3 -8 -40 -31 -111l-54 -165h168l-54 165c-24 73 -27 111 -27 111h-2zM491 0l-45 132h-240l-46 -132h-151l236 644h177l237 -644h-168zM333 711c-92 0 -166 52 -166 176h105c0 -49 26 -74 64 -74s65 25 65 74h99c0 -124 -74 -176 -167 -176z" />
    <glyph glyph-name="Acircumflex.sc" unicode="&#xf7e2;" horiz-adv-x="668" 
d="M401 887l110 -174h-109l-69 77h-1l-66 -77h-101l110 174h126zM327 514c-1 -3 -8 -40 -31 -111l-54 -165h168l-54 165c-24 73 -27 111 -27 111h-2zM491 0l-45 132h-240l-46 -132h-151l236 644h177l237 -644h-168z" />
    <glyph glyph-name="Adieresis.sc" unicode="&#xf7e4;" horiz-adv-x="668" 
d="M369 735v137h137v-137h-137zM161 735v137h136v-137h-136zM327 514c-1 -3 -8 -40 -31 -111l-54 -165h168l-54 165c-24 73 -27 111 -27 111h-2zM491 0l-45 132h-240l-46 -132h-151l236 644h177l237 -644h-168z" />
    <glyph glyph-name="Agrave.sc" unicode="&#xf7e0;" horiz-adv-x="668" 
d="M327 514c-1 -3 -8 -40 -31 -111l-54 -165h168l-54 165c-24 73 -27 111 -27 111h-2zM491 0l-45 132h-240l-46 -132h-151l236 644h177l237 -644h-168zM349 887l51 -174h-121l-88 174h158z" />
    <glyph glyph-name="Amacron.sc" unicode="&#xf641;" horiz-adv-x="668" 
d="M327 514c-1 -3 -8 -40 -31 -111l-54 -165h168l-54 165c-24 73 -27 111 -27 111h-2zM491 0l-45 132h-240l-46 -132h-151l236 644h177l237 -644h-168zM162 735v104h342v-104h-342z" />
    <glyph glyph-name="Aogonek.sc" unicode="&#xf642;" horiz-adv-x="668" 
d="M656 -188h-29c-106 0 -142 38 -142 90c0 36 22 71 72 98h-65l-46 132h-240l-46 -132h-151l236 644h177l235 -640c-38 -26 -52 -45 -52 -67c0 -24 16 -35 51 -36v-89zM327 514c-1 -3 -8 -40 -31 -111l-54 -165h168l-54 165c-24 73 -27 111 -27 111h-2z" />
    <glyph glyph-name="Aring.sc" unicode="&#xf7e5;" horiz-adv-x="668" 
d="M333 701c-82 0 -131 49 -131 123c0 72 54 123 132 123c84 0 131 -51 131 -123c0 -74 -53 -123 -132 -123zM333 884c-32 0 -53 -24 -53 -61c0 -36 20 -60 54 -60c32 0 52 24 52 60c0 37 -19 61 -53 61zM327 514c-1 -3 -8 -40 -31 -111l-54 -165h168l-54 165
c-24 73 -27 111 -27 111h-2zM491 0l-45 132h-240l-46 -132h-151l236 644h177l237 -644h-168z" />
    <glyph glyph-name="uni01FA.sc" horiz-adv-x="668" 
d="M333 701c-82 0 -131 49 -131 123c0 72 54 123 132 123c84 0 131 -51 131 -123c0 -74 -53 -123 -132 -123zM333 884c-32 0 -53 -24 -53 -61c0 -36 20 -60 54 -60c32 0 52 24 52 60c0 37 -19 61 -53 61zM327 514c-1 -3 -8 -40 -31 -111l-54 -165h168l-54 165
c-24 73 -27 111 -27 111h-2zM491 0l-45 132h-240l-46 -132h-151l236 644h177l237 -644h-168zM272 986l64 133h158l-103 -133h-119z" />
    <glyph glyph-name="Atilde.sc" unicode="&#xf7e3;" horiz-adv-x="668" 
d="M327 514c-1 -3 -8 -40 -31 -111l-54 -165h168l-54 165c-24 73 -27 111 -27 111h-2zM491 0l-45 132h-240l-46 -132h-151l236 644h177l237 -644h-168zM144 713c0 89 31 164 118 164c62 0 101 -51 140 -51c19 0 40 10 50 52h71c0 -91 -31 -165 -118 -165
c-62 0 -100 51 -140 51c-18 0 -40 -10 -49 -51h-72z" />
    <glyph glyph-name="Cacute.sc" unicode="&#xf643;" horiz-adv-x="674" 
d="M293 713l51 174h158l-88 -174h-121zM356 544c-83 0 -140 -72 -140 -224s51 -223 137 -223c70 0 110 45 117 125h161c-6 -149 -111 -236 -277 -236c-210 0 -307 126 -307 326c0 211 117 341 310 341c174 0 270 -81 275 -233h-163c-6 82 -44 124 -113 124z" />
    <glyph glyph-name="Ccaron.sc" unicode="&#xf644;" horiz-adv-x="674" 
d="M284 713l-110 174h109l69 -77h1l66 77h101l-110 -174h-126zM356 544c-83 0 -140 -72 -140 -224s51 -223 137 -223c70 0 110 45 117 125h161c-6 -149 -111 -236 -277 -236c-210 0 -307 126 -307 326c0 211 117 341 310 341c174 0 270 -81 275 -233h-163
c-6 82 -44 124 -113 124z" />
    <glyph glyph-name="Ccedilla.sc" unicode="&#xf7e7;" horiz-adv-x="674" 
d="M353 -232c-69 0 -104 37 -106 79h77c4 -12 13 -21 31 -21c23 0 32 13 32 32s-11 31 -32 31c-13 0 -21 -5 -27 -13h-65l50 112c-182 15 -266 138 -266 324c0 211 117 341 310 341c174 0 270 -81 275 -233h-163c-6 82 -44 124 -113 124c-83 0 -140 -72 -140 -224
s51 -223 137 -223c70 0 110 45 117 125h161c-6 -146 -106 -232 -266 -236l-21 -45h2c10 7 21 10 40 10c48 0 84 -34 84 -89c0 -48 -36 -94 -117 -94z" />
    <glyph glyph-name="Ccircumflex.sc" unicode="&#xf628;" horiz-adv-x="674" 
d="M421 887l110 -174h-109l-69 77h-1l-66 -77h-101l110 174h126zM356 544c-83 0 -140 -72 -140 -224s51 -223 137 -223c70 0 110 45 117 125h161c-6 -149 -111 -236 -277 -236c-210 0 -307 126 -307 326c0 211 117 341 310 341c174 0 270 -81 275 -233h-163
c-6 82 -44 124 -113 124z" />
    <glyph glyph-name="Cdotaccent.sc" unicode="&#xf629;" horiz-adv-x="674" 
d="M356 544c-83 0 -140 -72 -140 -224s51 -223 137 -223c70 0 110 45 117 125h161c-6 -149 -111 -236 -277 -236c-210 0 -307 126 -307 326c0 211 117 341 310 341c174 0 270 -81 275 -233h-163c-6 82 -44 124 -113 124zM284 735v137h137v-137h-137z" />
    <glyph glyph-name="Dcaron.sc" unicode="&#xf645;" horiz-adv-x="688" 
d="M70 0v644h238c197 0 335 -95 335 -314c0 -220 -137 -330 -334 -330h-239zM229 111h75c102 0 171 54 171 216c0 154 -70 207 -167 207h-79v-423zM259 713l-110 174h109l69 -77h1l66 77h101l-110 -174h-126z" />
    <glyph glyph-name="Eacute.sc" unicode="&#xf7e9;" horiz-adv-x="574" 
d="M237 713l51 174h158l-88 -174h-121zM70 0v644h445v-113h-286v-154h271v-110h-271v-155h295v-112h-454z" />
    <glyph glyph-name="Ecaron.sc" unicode="&#xf647;" horiz-adv-x="574" 
d="M228 713l-110 174h109l69 -77h1l66 77h101l-110 -174h-126zM70 0v644h445v-113h-286v-154h271v-110h-271v-155h295v-112h-454z" />
    <glyph glyph-name="Ecircumflex.sc" unicode="&#xf7ea;" horiz-adv-x="574" 
d="M364 887l110 -174h-109l-69 77h-1l-66 -77h-101l110 174h126zM70 0v644h445v-113h-286v-154h271v-110h-271v-155h295v-112h-454z" />
    <glyph glyph-name="Edieresis.sc" unicode="&#xf7eb;" horiz-adv-x="574" 
d="M333 735v137h137v-137h-137zM125 735v137h136v-137h-136zM70 0v644h445v-113h-286v-154h271v-110h-271v-155h295v-112h-454z" />
    <glyph glyph-name="Edotaccent.sc" unicode="&#xf648;" horiz-adv-x="574" 
d="M228 735v137h137v-137h-137zM70 0v644h445v-113h-286v-154h271v-110h-271v-155h295v-112h-454z" />
    <glyph glyph-name="Egrave.sc" unicode="&#xf7e8;" horiz-adv-x="574" 
d="M312 887l51 -174h-121l-88 174h158zM70 0v644h445v-113h-286v-154h271v-110h-271v-155h295v-112h-454z" />
    <glyph glyph-name="Emacron.sc" unicode="&#xf649;" horiz-adv-x="574" 
d="M126 735v104h342v-104h-342zM70 0v644h445v-113h-286v-154h271v-110h-271v-155h295v-112h-454z" />
    <glyph glyph-name="Eogonek.sc" unicode="&#xf64a;" horiz-adv-x="574" 
d="M525 -99v-89h-29c-107 0 -143 38 -143 90c0 38 26 76 80 98h-363v644h445v-113h-286v-154h271v-110h-271v-155h295v-112c-36 -24 -50 -43 -50 -64c0 -23 15 -34 51 -35z" />
    <glyph glyph-name="Gbreve.sc" unicode="&#xf64b;" horiz-adv-x="707" 
d="M363 546c-95 0 -151 -75 -151 -227c0 -164 60 -224 149 -224c82 0 140 49 140 134v10h-142v106h286v-345h-117v86h-3c-32 -58 -93 -99 -188 -99c-198 0 -291 131 -291 323c0 209 124 343 319 343c167 0 263 -80 273 -209h-161c-8 64 -48 102 -114 102zM352 711
c-92 0 -166 52 -166 176h105c0 -49 26 -74 64 -74s65 25 65 74h99c0 -124 -74 -176 -167 -176z" />
    <glyph glyph-name="Gcircumflex.sc" unicode="&#xf62c;" horiz-adv-x="707" 
d="M419 887l110 -174h-109l-69 77h-1l-66 -77h-101l110 174h126zM363 546c-95 0 -151 -75 -151 -227c0 -164 60 -224 149 -224c82 0 140 49 140 134v10h-142v106h286v-345h-117v86h-3c-32 -58 -93 -99 -188 -99c-198 0 -291 131 -291 323c0 209 124 343 319 343
c167 0 263 -80 273 -209h-161c-8 64 -48 102 -114 102z" />
    <glyph glyph-name="Gcommaaccent.sc" unicode="&#xf64c;" horiz-adv-x="707" 
d="M252 -220l24 156h154l-73 -156h-105zM363 546c-95 0 -151 -75 -151 -227c0 -164 60 -224 149 -224c82 0 140 49 140 134v10h-142v106h286v-345h-117v86h-3c-32 -58 -93 -99 -188 -99c-198 0 -291 131 -291 323c0 209 124 343 319 343c167 0 263 -80 273 -209h-161
c-8 64 -48 102 -114 102z" />
    <glyph glyph-name="Gdotaccent.sc" unicode="&#xf62d;" horiz-adv-x="707" 
d="M363 546c-95 0 -151 -75 -151 -227c0 -164 60 -224 149 -224c82 0 140 49 140 134v10h-142v106h286v-345h-117v86h-3c-32 -58 -93 -99 -188 -99c-198 0 -291 131 -291 323c0 209 124 343 319 343c167 0 263 -80 273 -209h-161c-8 64 -48 102 -114 102zM283 735v137h137
v-137h-137z" />
    <glyph glyph-name="Hcircumflex.sc" unicode="&#xf62f;" horiz-adv-x="705" 
d="M420 887l110 -174h-109l-69 77h-1l-66 -77h-101l110 174h126zM229 263v-263h-159v644h159v-265h246v265h160v-644h-160v263h-246z" />
    <glyph glyph-name="Iacute.sc" unicode="&#xf7ed;" horiz-adv-x="299" 
d="M90 713l51 174h158l-88 -174h-121zM70 0v644h159v-644h-159z" />
    <glyph glyph-name="questiondown.uc" horiz-adv-x="571" 
d="M198 185c0 -56 37 -92 102 -92c64 0 118 35 118 143h152c3 -157 -94 -267 -273 -267c-180 0 -255 93 -255 208c0 92 39 142 104 196l67 56c21 17 28 26 28 54v43h137v-64c0 -63 -8 -79 -61 -122l-57 -47c-38 -32 -62 -58 -62 -108zM222 765h175v-152h-175v152z" />
    <glyph glyph-name="Icircumflex.sc" unicode="&#xf7ee;" horiz-adv-x="299" 
d="M217 887l110 -174h-109l-69 77h-1l-66 -77h-101l110 174h126zM70 0v644h159v-644h-159z" />
    <glyph glyph-name="Idieresis.sc" unicode="&#xf7ef;" horiz-adv-x="299" 
d="M186 735v137h137v-137h-137zM-22 735v137h136v-137h-136zM70 0v644h159v-644h-159z" />
    <glyph glyph-name="Igrave.sc" unicode="&#xf7ec;" horiz-adv-x="299" 
d="M70 0v644h159v-644h-159zM165 887l51 -174h-121l-88 174h158z" />
    <glyph glyph-name="Imacron.sc" unicode="&#xf64d;" horiz-adv-x="299" 
d="M70 0v644h159v-644h-159zM-21 735v104h342v-104h-342z" />
    <glyph glyph-name="Iogonek.sc" unicode="&#xf64e;" horiz-adv-x="299" 
d="M228 -188h-29c-106 0 -142 38 -142 90c0 38 25 76 79 98h-66v644h159v-641c-36 -24 -52 -43 -52 -66c0 -24 15 -35 51 -36v-89z" />
    <glyph glyph-name="Itilde.sc" unicode="&#xf632;" horiz-adv-x="299" 
d="M70 0v644h159v-644h-159zM-39 713c0 89 31 164 118 164c62 0 101 -51 140 -51c19 0 40 10 50 52h71c0 -91 -31 -165 -118 -165c-62 0 -100 51 -140 51c-18 0 -40 -10 -49 -51h-72z" />
    <glyph glyph-name="Jcircumflex.sc" unicode="&#xf633;" horiz-adv-x="400" 
d="M327 887l110 -174h-109l-69 77h-1l-66 -77h-101l110 174h126zM89 -2h-63v119h36c104 0 119 40 119 114v413h157v-431c0 -166 -94 -215 -249 -215z" />
    <glyph glyph-name="Kcommaaccent.sc" unicode="&#xf64f;" horiz-adv-x="658" 
d="M248 -220l24 156h154l-73 -156h-105zM229 189v-189h-159v644h159v-284l237 284h167l-232 -274l239 -370h-180l-167 263z" />
    <glyph glyph-name="Lacute.sc" unicode="&#xf650;" horiz-adv-x="551" 
d="M70 0v644h159v-525h274v-119h-433zM93 713l51 174h158l-88 -174h-121z" />
    <glyph glyph-name="Lcaron.sc" unicode="&#xf651;" horiz-adv-x="551" 
d="M70 0v644h159v-525h274v-119h-433zM304 457l6 187h125l-56 -187h-75z" />
    <glyph glyph-name="Lcommaaccent.sc" unicode="&#xf652;" horiz-adv-x="551" 
d="M70 0v644h159v-525h274v-119h-433zM186 -220l24 156h154l-73 -156h-105z" />
    <glyph glyph-name="Nacute.sc" unicode="&#xf653;" horiz-adv-x="698" 
d="M289 713l51 174h158l-88 -174h-121zM70 0v644h170l186 -317c37 -63 56 -109 56 -109h3v426h143v-644h-161l-193 324c-37 62 -59 113 -59 113h-3v-437h-142z" />
    <glyph glyph-name="Ncaron.sc" unicode="&#xf654;" horiz-adv-x="698" 
d="M280 713l-110 174h109l69 -77h1l66 77h101l-110 -174h-126zM70 0v644h170l186 -317c37 -63 56 -109 56 -109h3v426h143v-644h-161l-193 324c-37 62 -59 113 -59 113h-3v-437h-142z" />
    <glyph glyph-name="Ncommaaccent.sc" unicode="&#xf655;" horiz-adv-x="698" 
d="M249 -220l24 156h154l-73 -156h-105zM70 0v644h170l186 -317c37 -63 56 -109 56 -109h3v426h143v-644h-161l-193 324c-37 62 -59 113 -59 113h-3v-437h-142z" />
    <glyph glyph-name="Ntilde.sc" unicode="&#xf7f1;" horiz-adv-x="698" 
d="M70 0v644h170l186 -317c37 -63 56 -109 56 -109h3v426h143v-644h-161l-193 324c-37 62 -59 113 -59 113h-3v-437h-142zM160 713c0 89 31 164 118 164c62 0 101 -51 140 -51c19 0 40 10 50 52h71c0 -91 -31 -165 -118 -165c-62 0 -100 51 -140 51c-18 0 -40 -10 -49 -51
h-72z" />
    <glyph glyph-name="Oacute.sc" unicode="&#xf7f3;" horiz-adv-x="722" 
d="M47 320c0 209 123 333 314 333c200 0 314 -121 314 -333c0 -210 -120 -333 -314 -333c-206 0 -314 121 -314 333zM361 96c94 0 146 76 146 224c0 149 -61 226 -146 226c-94 0 -145 -75 -145 -226c0 -150 46 -224 145 -224zM301 713l51 174h158l-88 -174h-121z" />
    <glyph glyph-name="Obreve.sc" unicode="&#xf635;" horiz-adv-x="722" 
d="M47 320c0 209 123 333 314 333c200 0 314 -121 314 -333c0 -210 -120 -333 -314 -333c-206 0 -314 121 -314 333zM361 96c94 0 146 76 146 224c0 149 -61 226 -146 226c-94 0 -145 -75 -145 -226c0 -150 46 -224 145 -224zM361 711c-92 0 -166 52 -166 176h105
c0 -49 26 -74 64 -74s65 25 65 74h99c0 -124 -74 -176 -167 -176z" />
    <glyph glyph-name="Ocircumflex.sc" unicode="&#xf7f4;" horiz-adv-x="722" 
d="M429 887l110 -174h-109l-69 77h-1l-66 -77h-101l110 174h126zM47 320c0 209 123 333 314 333c200 0 314 -121 314 -333c0 -210 -120 -333 -314 -333c-206 0 -314 121 -314 333zM361 96c94 0 146 76 146 224c0 149 -61 226 -146 226c-94 0 -145 -75 -145 -226
c0 -150 46 -224 145 -224z" />
    <glyph glyph-name="Odieresis.sc" unicode="&#xf7f6;" horiz-adv-x="722" 
d="M397 735v137h137v-137h-137zM189 735v137h136v-137h-136zM47 320c0 209 123 333 314 333c200 0 314 -121 314 -333c0 -210 -120 -333 -314 -333c-206 0 -314 121 -314 333zM361 96c94 0 146 76 146 224c0 149 -61 226 -146 226c-94 0 -145 -75 -145 -226
c0 -150 46 -224 145 -224z" />
    <glyph glyph-name="Ograve.sc" unicode="&#xf7f2;" horiz-adv-x="722" 
d="M47 320c0 209 123 333 314 333c200 0 314 -121 314 -333c0 -210 -120 -333 -314 -333c-206 0 -314 121 -314 333zM361 96c94 0 146 76 146 224c0 149 -61 226 -146 226c-94 0 -145 -75 -145 -226c0 -150 46 -224 145 -224zM376 887l51 -174h-121l-88 174h158z" />
    <glyph glyph-name="Ohungarumlaut.sc" unicode="&#xf656;" horiz-adv-x="722" 
d="M47 320c0 209 123 333 314 333c200 0 314 -121 314 -333c0 -210 -120 -333 -314 -333c-206 0 -314 121 -314 333zM361 96c94 0 146 76 146 224c0 149 -61 226 -146 226c-94 0 -145 -75 -145 -226c0 -150 46 -224 145 -224zM391 713l52 174h127l-86 -174h-93zM227 713
l39 174h128l-73 -174h-94z" />
    <glyph glyph-name="Omacron.sc" unicode="&#xf657;" horiz-adv-x="722" 
d="M47 320c0 209 123 333 314 333c200 0 314 -121 314 -333c0 -210 -120 -333 -314 -333c-206 0 -314 121 -314 333zM361 96c94 0 146 76 146 224c0 149 -61 226 -146 226c-94 0 -145 -75 -145 -226c0 -150 46 -224 145 -224zM190 735v104h342v-104h-342z" />
    <glyph glyph-name="Oslashacute.sc" unicode="&#xf627;" horiz-adv-x="722" 
d="M302 713l51 174h158l-88 -174h-121zM361 549c-98 0 -152 -76 -152 -229c0 -44 4 -80 11 -111l244 296c-26 30 -61 44 -103 44zM361 93c97 0 153 76 153 227c0 45 -5 83 -14 114l-246 -299c25 -28 60 -42 107 -42zM675 320c0 -210 -120 -333 -314 -333
c-74 0 -138 17 -187 51l-49 -59h-95l89 108c-47 56 -72 135 -72 233c0 209 123 333 314 333c73 0 135 -17 185 -49l53 64h95l-93 -113c48 -56 74 -136 74 -235z" />
    <glyph glyph-name="Otilde.sc" unicode="&#xf7f5;" horiz-adv-x="722" 
d="M47 320c0 209 123 333 314 333c200 0 314 -121 314 -333c0 -210 -120 -333 -314 -333c-206 0 -314 121 -314 333zM361 96c94 0 146 76 146 224c0 149 -61 226 -146 226c-94 0 -145 -75 -145 -226c0 -150 46 -224 145 -224zM172 713c0 89 31 164 118 164
c62 0 101 -51 140 -51c19 0 40 10 50 52h71c0 -91 -31 -165 -118 -165c-62 0 -100 51 -140 51c-18 0 -40 -10 -49 -51h-72z" />
    <glyph glyph-name="Racute.sc" unicode="&#xf658;" horiz-adv-x="643" 
d="M248 713l51 174h158l-88 -174h-121zM229 344h89c59 0 113 26 113 100c0 68 -52 97 -111 97h-91v-197zM447 0l-127 245h-91v-245h-159v644h268c41 0 86 -3 132 -20c63 -22 123 -77 123 -171c0 -103 -61 -153 -127 -177v-2l150 -274h-169z" />
    <glyph glyph-name="Rcaron.sc" unicode="&#xf659;" horiz-adv-x="643" 
d="M239 713l-110 174h109l69 -77h1l66 77h101l-110 -174h-126zM229 344h89c59 0 113 26 113 100c0 68 -52 97 -111 97h-91v-197zM447 0l-127 245h-91v-245h-159v644h268c41 0 86 -3 132 -20c63 -22 123 -77 123 -171c0 -103 -61 -153 -127 -177v-2l150 -274h-169z" />
    <glyph glyph-name="Rcommaaccent.sc" unicode="&#xf65a;" horiz-adv-x="636" 
d="M228 -207l24 156h154l-73 -156h-105zM229 344h89c59 0 113 26 113 100c0 68 -52 97 -111 97h-91v-197zM447 0l-127 245h-91v-245h-159v644h268c41 0 86 -3 132 -20c63 -22 123 -77 123 -171c0 -103 -61 -153 -127 -177v-2l150 -274h-169z" />
    <glyph glyph-name="Sacute.sc" unicode="&#xf65b;" horiz-adv-x="610" 
d="M246 713l51 174h158l-88 -174h-121zM553 469h-156c-3 41 -31 77 -92 77c-53 0 -91 -27 -91 -72c0 -42 24 -65 81 -74l105 -17c115 -19 170 -84 170 -180c0 -143 -108 -217 -268 -217c-165 0 -262 81 -265 199h158c4 -54 42 -91 112 -91c74 0 105 35 105 81
c0 38 -23 66 -85 77l-104 18c-101 17 -166 78 -166 184c0 111 89 199 250 199c172 0 239 -81 246 -184z" />
    <glyph glyph-name="Scaron.sc" unicode="&#xf6fd;" horiz-adv-x="610" 
d="M237 713l-110 174h109l69 -77h1l66 77h101l-110 -174h-126zM553 469h-156c-3 41 -31 77 -92 77c-53 0 -91 -27 -91 -72c0 -42 24 -65 81 -74l105 -17c115 -19 170 -84 170 -180c0 -143 -108 -217 -268 -217c-165 0 -262 81 -265 199h158c4 -54 42 -91 112 -91
c74 0 105 35 105 81c0 38 -23 66 -85 77l-104 18c-101 17 -166 78 -166 184c0 111 89 199 250 199c172 0 239 -81 246 -184z" />
    <glyph glyph-name="Scedilla.sc" unicode="&#xf65c;" horiz-adv-x="610" 
d="M306 -232c-69 0 -104 37 -106 79h77c4 -12 13 -21 31 -21c23 0 32 13 32 32s-11 31 -32 31c-13 0 -21 -5 -27 -13h-65l50 111c-143 11 -226 89 -229 198h158c4 -54 42 -91 112 -91c74 0 105 35 105 81c0 38 -23 66 -85 77l-104 18c-101 17 -166 78 -166 184
c0 111 89 199 250 199c172 0 239 -81 246 -184h-156c-3 41 -31 77 -92 77c-53 0 -91 -27 -91 -72c0 -42 24 -65 81 -74l105 -17c115 -19 170 -84 170 -180c0 -138 -101 -212 -252 -217l-21 -45h2c10 7 21 10 40 10c48 0 84 -34 84 -89c0 -48 -36 -94 -117 -94z" />
    <glyph glyph-name="Scircumflex.sc" unicode="&#xf636;" horiz-adv-x="610" 
d="M374 887l110 -174h-109l-69 77h-1l-66 -77h-101l110 174h126zM553 469h-156c-3 41 -31 77 -92 77c-53 0 -91 -27 -91 -72c0 -42 24 -65 81 -74l105 -17c115 -19 170 -84 170 -180c0 -143 -108 -217 -268 -217c-165 0 -262 81 -265 199h158c4 -54 42 -91 112 -91
c74 0 105 35 105 81c0 38 -23 66 -85 77l-104 18c-101 17 -166 78 -166 184c0 111 89 199 250 199c172 0 239 -81 246 -184z" />
    <glyph glyph-name="Scommaaccent.sc" unicode="&#xf65d;" horiz-adv-x="610" 
d="M207 -220l24 156h154l-73 -156h-105zM553 469h-156c-3 41 -31 77 -92 77c-53 0 -91 -27 -91 -72c0 -42 24 -65 81 -74l105 -17c115 -19 170 -84 170 -180c0 -143 -108 -217 -268 -217c-165 0 -262 81 -265 199h158c4 -54 42 -91 112 -91c74 0 105 35 105 81
c0 38 -23 66 -85 77l-104 18c-101 17 -166 78 -166 184c0 111 89 199 250 199c172 0 239 -81 246 -184z" />
    <glyph glyph-name="Tcaron.sc" unicode="&#xf65e;" horiz-adv-x="572" 
d="M554 644v-120h-188v-524h-160v524h-188v120h536zM217 713l-110 174h109l69 -77h1l66 77h101l-110 -174h-126z" />
    <glyph glyph-name="Tcommaaccent.sc" unicode="&#xf65f;" horiz-adv-x="572" 
d="M554 644v-120h-188v-524h-160v524h-188v120h536zM186 -220l24 156h154l-73 -156h-105z" />
    <glyph glyph-name="Uacute.sc" unicode="&#xf7fa;" horiz-adv-x="673" 
d="M276 713l51 174h158l-88 -174h-121zM64 228v416h158v-393c0 -39 3 -80 22 -106s49 -40 94 -40c46 0 77 14 96 41c18 25 20 66 20 105v393h155v-416c0 -164 -107 -242 -272 -242c-169 0 -273 74 -273 242z" />
    <glyph glyph-name="Ubreve.sc" unicode="&#xf638;" horiz-adv-x="673" 
d="M64 228v416h158v-393c0 -39 3 -80 22 -106s49 -40 94 -40c46 0 77 14 96 41c18 25 20 66 20 105v393h155v-416c0 -164 -107 -242 -272 -242c-169 0 -273 74 -273 242zM336 711c-92 0 -166 52 -166 176h105c0 -49 26 -74 64 -74s65 25 65 74h99c0 -124 -74 -176 -167 -176
z" />
    <glyph glyph-name="Ucircumflex.sc" unicode="&#xf7fb;" horiz-adv-x="673" 
d="M404 887l110 -174h-109l-69 77h-1l-66 -77h-101l110 174h126zM64 228v416h158v-393c0 -39 3 -80 22 -106s49 -40 94 -40c46 0 77 14 96 41c18 25 20 66 20 105v393h155v-416c0 -164 -107 -242 -272 -242c-169 0 -273 74 -273 242z" />
    <glyph glyph-name="Udieresis.sc" unicode="&#xf7fc;" horiz-adv-x="673" 
d="M372 735v137h137v-137h-137zM164 735v137h136v-137h-136zM64 228v416h158v-393c0 -39 3 -80 22 -106s49 -40 94 -40c46 0 77 14 96 41c18 25 20 66 20 105v393h155v-416c0 -164 -107 -242 -272 -242c-169 0 -273 74 -273 242z" />
    <glyph glyph-name="Ugrave.sc" unicode="&#xf7f9;" horiz-adv-x="673" 
d="M352 887l51 -174h-121l-88 174h158zM64 228v416h158v-393c0 -39 3 -80 22 -106s49 -40 94 -40c46 0 77 14 96 41c18 25 20 66 20 105v393h155v-416c0 -164 -107 -242 -272 -242c-169 0 -273 74 -273 242z" />
    <glyph glyph-name="Uhungarumlaut.sc" unicode="&#xf660;" horiz-adv-x="673" 
d="M366 713l52 174h127l-86 -174h-93zM202 713l39 174h128l-73 -174h-94zM64 228v416h158v-393c0 -39 3 -80 22 -106s49 -40 94 -40c46 0 77 14 96 41c18 25 20 66 20 105v393h155v-416c0 -164 -107 -242 -272 -242c-169 0 -273 74 -273 242z" />
    <glyph glyph-name="Umacron.sc" unicode="&#xf661;" horiz-adv-x="673" 
d="M165 735v104h342v-104h-342zM64 228v416h158v-393c0 -39 3 -80 22 -106s49 -40 94 -40c46 0 77 14 96 41c18 25 20 66 20 105v393h155v-416c0 -164 -107 -242 -272 -242c-169 0 -273 74 -273 242z" />
    <glyph glyph-name="Uogonek.sc" unicode="&#xf662;" horiz-adv-x="673" 
d="M64 228v416h158v-393c0 -39 3 -80 22 -106s49 -40 94 -40c46 0 77 14 96 41c18 25 20 66 20 105v393h155v-416c0 -139 -76 -205 -173 -230c-65 -16 -87 -40 -87 -70c0 -23 18 -34 52 -34v-89h-29c-107 0 -143 37 -143 90c0 37 22 70 70 92v1c-147 11 -235 84 -235 240z
" />
    <glyph glyph-name="Uring.sc" unicode="&#xf663;" horiz-adv-x="673" 
d="M336 701c-82 0 -131 49 -131 123c0 72 54 123 132 123c84 0 131 -51 131 -123c0 -74 -53 -123 -132 -123zM336 884c-32 0 -53 -24 -53 -61c0 -36 20 -60 54 -60c32 0 52 24 52 60c0 37 -19 61 -53 61zM64 228v416h158v-393c0 -39 3 -80 22 -106s49 -40 94 -40
c46 0 77 14 96 41c18 25 20 66 20 105v393h155v-416c0 -164 -107 -242 -272 -242c-169 0 -273 74 -273 242z" />
    <glyph glyph-name="Utilde.sc" unicode="&#xf639;" horiz-adv-x="673" 
d="M64 228v416h158v-393c0 -39 3 -80 22 -106s49 -40 94 -40c46 0 77 14 96 41c18 25 20 66 20 105v393h155v-416c0 -164 -107 -242 -272 -242c-169 0 -273 74 -273 242zM147 713c0 89 31 164 118 164c62 0 101 -51 140 -51c19 0 40 10 50 52h71c0 -91 -31 -165 -118 -165
c-62 0 -100 51 -140 51c-18 0 -40 -10 -49 -51h-72z" />
    <glyph glyph-name="Wacute.sc" unicode="&#xf63a;" horiz-adv-x="907" 
d="M336 0h-156l-170 644h164l78 -337c15 -66 20 -128 20 -128h2s6 56 24 121l93 344h142l95 -347c18 -65 25 -118 25 -118h2s4 57 19 122l77 343h146l-169 -644h-153l-98 356c-17 63 -21 116 -21 116h-2s-4 -54 -21 -116zM402 713l51 174h158l-88 -174h-121z" />
    <glyph glyph-name="Wcircumflex.sc" unicode="&#xf63b;" horiz-adv-x="907" 
d="M521 887l110 -174h-109l-69 77h-1l-66 -77h-101l110 174h126zM336 0h-156l-170 644h164l78 -337c15 -66 20 -128 20 -128h2s6 56 24 121l93 344h142l95 -347c18 -65 25 -118 25 -118h2s4 57 19 122l77 343h146l-169 -644h-153l-98 356c-17 63 -21 116 -21 116h-2
s-4 -54 -21 -116z" />
    <glyph glyph-name="Wdieresis.sc" unicode="&#xf63c;" horiz-adv-x="907" 
d="M489 735v137h137v-137h-137zM281 735v137h136v-137h-136zM336 0h-156l-170 644h164l78 -337c15 -66 20 -128 20 -128h2s6 56 24 121l93 344h142l95 -347c18 -65 25 -118 25 -118h2s4 57 19 122l77 343h146l-169 -644h-153l-98 356c-17 63 -21 116 -21 116h-2
s-4 -54 -21 -116z" />
    <glyph glyph-name="Wgrave.sc" unicode="&#xf63d;" horiz-adv-x="907" 
d="M336 0h-156l-170 644h164l78 -337c15 -66 20 -128 20 -128h2s6 56 24 121l93 344h142l95 -347c18 -65 25 -118 25 -118h2s4 57 19 122l77 343h146l-169 -644h-153l-98 356c-17 63 -21 116 -21 116h-2s-4 -54 -21 -116zM469 887l51 -174h-121l-88 174h158z" />
    <glyph glyph-name="Yacute.sc" unicode="&#xf7fd;" horiz-adv-x="603" 
d="M242 713l51 174h158l-88 -174h-121zM223 0v271l-220 373h171l133 -248h2l132 248h159l-219 -373v-271h-158z" />
    <glyph glyph-name="Ycircumflex.sc" unicode="&#xf63e;" horiz-adv-x="603" 
d="M370 887l110 -174h-109l-69 77h-1l-66 -77h-101l110 174h126zM223 0v271l-220 373h171l133 -248h2l132 248h159l-219 -373v-271h-158z" />
    <glyph glyph-name="Ydieresis.sc" unicode="&#xf7ff;" horiz-adv-x="603" 
d="M338 735v137h137v-137h-137zM130 735v137h136v-137h-136zM223 0v271l-220 373h171l133 -248h2l132 248h159l-219 -373v-271h-158z" />
    <glyph glyph-name="Ygrave.sc" unicode="&#xf63f;" horiz-adv-x="603" 
d="M223 0v271l-220 373h171l133 -248h2l132 248h159l-219 -373v-271h-158zM318 887l51 -174h-121l-88 174h158z" />
    <glyph glyph-name="Zacute.sc" unicode="&#xf664;" horiz-adv-x="586" 
d="M234 713l51 174h158l-88 -174h-121zM52 528v116h494v-104l-325 -423h328v-117h-513v104l326 424h-310z" />
    <glyph glyph-name="Zcaron.sc" unicode="&#xf6ff;" horiz-adv-x="586" 
d="M225 713l-110 174h109l69 -77h1l66 77h101l-110 -174h-126zM52 528v116h494v-104l-325 -423h328v-117h-513v104l326 424h-310z" />
    <glyph glyph-name="Zdotaccent.sc" unicode="&#xf665;" horiz-adv-x="586" 
d="M52 528v116h494v-104l-325 -423h328v-117h-513v104l326 424h-310zM226 735v137h137v-137h-137z" />
    <glyph glyph-name="Ldot.sc" unicode="&#xf634;" horiz-adv-x="551" 
d="M369 298v129h133v-129h-133zM70 0v644h159v-525h274v-119h-433z" />
    <glyph glyph-name="napostrophe.sc" horiz-adv-x="698" 
d="M70 0v644h170l186 -317c38 -62 56 -109 56 -109h3v426h143v-644h-161l-193 324c-39 61 -59 113 -59 113h-3v-437h-142z" />
    <glyph glyph-name="Hbar.sc" unicode="&#xf62e;" horiz-adv-x="705" 
d="M475 378v95h-246v-95h246zM229 263v-263h-159v473h-65v84h65v87h159v-87h246v87h160v-87h66v-84h-66v-473h-160v263h-246z" />
    <glyph glyph-name="Idotaccent.sc" unicode="&#xf666;" horiz-adv-x="299" 
d="M70 0v644h159v-644h-159zM81 735v137h137v-137h-137z" />
    <glyph glyph-name="Ebreve.sc" unicode="&#xf62a;" horiz-adv-x="574" 
d="M70 0v644h445v-113h-286v-154h271v-110h-271v-155h295v-112h-454zM290 711c-92 0 -166 52 -166 176h105c0 -49 26 -74 64 -74s65 25 65 74h99c0 -124 -74 -176 -167 -176z" />
    <glyph glyph-name="yen.tab" 
d="M212 0v148h-185v76h185v81h-187v76h173l-197 360h176l118 -240h2l121 240h161l-199 -360h173v-76h-185v-81h187v-76h-187v-148h-156z" />
    <glyph glyph-name="eight.den" horiz-adv-x="420" 
d="M42 319c0 70 55 118 168 118s168 -48 168 -119c0 -50 -27 -79 -66 -93v-2c50 -13 83 -43 83 -102c0 -75 -65 -130 -185 -130c-128 0 -184 52 -184 130c0 55 33 88 82 102v2c-39 13 -66 43 -66 94zM210 366c-34 0 -59 -17 -59 -56c0 -36 25 -56 59 -56s59 20 59 56
c0 39 -25 56 -59 56zM210 63c40 0 70 21 70 62c0 42 -29 63 -70 63s-71 -21 -71 -63c0 -41 32 -62 71 -62z" />
    <glyph glyph-name="five.den" horiz-adv-x="413" 
d="M270 140c0 39 -27 66 -66 66c-28 0 -49 -11 -63 -29h-100l20 254h293v-88h-205l-9 -104h1c17 23 50 44 101 44c84 0 141 -47 141 -136c0 -86 -57 -156 -182 -156c-133 0 -171 67 -176 134h115c3 -34 29 -51 63 -51c38 0 67 24 67 66z" />
    <glyph glyph-name="four.den" horiz-adv-x="430" 
d="M123 170h126v184h-3s-12 -32 -35 -63zM408 90h-56v-90h-107v90h-226v76l196 265h137v-256h56v-85z" />
    <glyph glyph-name="nine.den" horiz-adv-x="429" 
d="M209 357c-32 0 -68 -20 -68 -68c0 -47 31 -70 68 -70c38 0 68 23 68 70c0 46 -36 68 -68 68zM32 107c3 0 114 1 114 1c6 -26 26 -40 58 -40c54 0 78 48 78 127h-2c-20 -32 -56 -49 -105 -49c-76 0 -146 41 -146 139c0 81 62 151 184 151c118 0 189 -73 189 -211
c0 -155 -76 -234 -204 -234c-101 0 -160 50 -166 116z" />
    <glyph glyph-name="one.den" horiz-adv-x="285" 
d="M108 0v280h-94v76h14c26 0 49 5 66 17c15 11 24 31 24 58h105v-431h-115z" />
    <glyph glyph-name="seven.den" horiz-adv-x="370" 
d="M51 0l169 343h-202v88h337v-62l-183 -369h-121z" />
    <glyph glyph-name="six.den" horiz-adv-x="431" 
d="M395 325h-113c-5 22 -23 36 -52 36c-46 0 -80 -37 -82 -128h2c25 35 60 55 113 55c82 0 141 -47 141 -140c0 -82 -60 -157 -183 -157c-113 0 -190 61 -190 211c0 155 83 234 201 234c114 0 154 -48 163 -111zM224 69c34 0 68 22 68 73c0 46 -28 73 -68 73
c-41 0 -69 -24 -69 -73c0 -51 34 -73 69 -73z" />
    <glyph glyph-name="three.den" horiz-adv-x="417" 
d="M208 183h-50v71h41c33 0 61 19 61 52s-25 51 -57 51c-41 0 -58 -25 -59 -54h-113c2 63 46 136 179 136c108 0 166 -52 166 -117c0 -47 -28 -83 -85 -97v-2c63 -11 96 -47 96 -103c0 -67 -61 -129 -180 -129c-135 0 -178 69 -180 136h116c3 -35 30 -53 63 -53
c41 0 66 25 66 56c0 33 -24 53 -64 53z" />
    <glyph glyph-name="two.den" horiz-adv-x="410" 
d="M137 280h-113c2 96 63 157 180 157c120 0 171 -56 171 -126c0 -65 -37 -102 -105 -158l-79 -65v-2h187v-86h-358v61l174 151c46 40 63 61 63 92c0 32 -21 52 -54 52c-36 0 -66 -19 -66 -76z" />
    <glyph glyph-name="zero.den" horiz-adv-x="455" 
d="M30 213c0 151 79 225 196 225c127 0 199 -72 199 -225c0 -150 -75 -223 -199 -223c-127 0 -196 72 -196 223zM226 74c41 0 72 34 72 140c0 108 -34 142 -72 142c-39 0 -70 -34 -70 -142c0 -112 29 -140 70 -140z" />
    <glyph glyph-name="zero.num" horiz-adv-x="455" 
d="M30 547c0 151 79 225 196 225c127 0 199 -72 199 -225c0 -150 -75 -223 -199 -223c-127 0 -196 72 -196 223zM226 408c41 0 72 34 72 140c0 108 -34 142 -72 142c-39 0 -70 -34 -70 -142c0 -112 29 -140 70 -140z" />
    <glyph glyph-name="one.num" horiz-adv-x="285" 
d="M108 334v280h-94v76h14c26 0 49 5 66 17c15 11 24 31 24 58h105v-431h-115z" />
    <glyph glyph-name="two.num" horiz-adv-x="410" 
d="M137 614h-113c2 96 63 157 180 157c120 0 171 -56 171 -126c0 -65 -36 -103 -105 -158l-79 -65v-2h187v-86h-358v61l174 151c46 39 63 61 63 92c0 32 -21 52 -54 52c-36 0 -66 -19 -66 -76z" />
    <glyph glyph-name="three.num" horiz-adv-x="417" 
d="M208 517h-50v71h41c33 0 61 19 61 52s-25 51 -57 51c-41 0 -58 -25 -59 -54h-113c2 63 46 136 179 136c108 0 166 -52 166 -117c0 -47 -28 -83 -85 -97v-2c63 -11 96 -47 96 -103c0 -67 -61 -129 -180 -129c-135 0 -178 69 -180 136h116c3 -35 30 -53 63 -53
c41 0 66 25 66 56c0 33 -24 53 -64 53z" />
    <glyph glyph-name="four.num" horiz-adv-x="430" 
d="M123 504h126v184h-3s-12 -32 -35 -63zM408 424h-56v-90h-107v90h-226v76l196 265h137v-256h56v-85z" />
    <glyph glyph-name="five.num" horiz-adv-x="413" 
d="M270 474c0 39 -27 66 -66 66c-28 0 -49 -11 -63 -29h-100l20 254h293v-88h-205l-9 -104h1c17 23 50 44 101 44c84 0 141 -47 141 -136c0 -86 -57 -156 -182 -156c-133 0 -171 67 -176 134h115c3 -34 29 -51 63 -51c38 0 67 24 67 66z" />
    <glyph glyph-name="six.num" horiz-adv-x="431" 
d="M395 659h-113c-5 22 -23 36 -52 36c-46 0 -80 -37 -82 -128h2c25 35 60 55 113 55c82 0 141 -47 141 -140c0 -82 -60 -157 -183 -157c-113 0 -190 61 -190 211c0 155 83 234 201 234c114 0 154 -48 163 -111zM224 403c34 0 68 22 68 73c0 46 -28 73 -68 73
c-41 0 -69 -24 -69 -73c0 -51 34 -73 69 -73z" />
    <glyph glyph-name="seven.num" horiz-adv-x="370" 
d="M51 334l169 343h-202v88h337v-62l-183 -369h-121z" />
    <glyph glyph-name="eight.num" horiz-adv-x="420" 
d="M42 653c0 70 55 118 168 118s168 -48 168 -119c0 -50 -27 -79 -66 -93v-2c50 -13 83 -43 83 -102c0 -75 -65 -130 -185 -130c-128 0 -184 52 -184 130c0 55 33 88 82 102v2c-39 13 -66 43 -66 94zM210 700c-34 0 -59 -17 -59 -56c0 -36 25 -56 59 -56s59 20 59 56
c0 39 -25 56 -59 56zM210 397c40 0 70 21 70 62c0 42 -29 63 -70 63s-71 -21 -71 -63c0 -41 32 -62 71 -62z" />
    <glyph glyph-name="nine.num" horiz-adv-x="429" 
d="M209 691c-32 0 -68 -20 -68 -68c0 -47 31 -70 68 -70c38 0 68 23 68 70c0 46 -36 68 -68 68zM32 441c3 0 114 1 114 1c6 -26 26 -40 58 -40c54 0 78 48 78 127h-2c-20 -32 -56 -49 -105 -49c-76 0 -146 41 -146 139c0 81 62 151 184 151c118 0 189 -73 189 -211
c0 -155 -76 -234 -204 -234c-101 0 -160 50 -166 116z" />
    <glyph glyph-name="minus.num" horiz-adv-x="388" 
d="M48 512v59h294v-59h-294z" />
    <glyph glyph-name="plus.num" horiz-adv-x="390" 
d="M226 513v-113h-63v113h-119v57h119v112h63v-112h119v-57h-119z" />
    <glyph glyph-name="minus.den" horiz-adv-x="400" 
d="M47 169v78h305v-78h-305z" />
    <glyph glyph-name="plus.den" horiz-adv-x="400" 
d="M245 169v-115h-91v115h-118v78h118v114h91v-114h119v-78h-119z" />
    <glyph glyph-name="parenleft.tab" horiz-adv-x="280" 
d="M317 -130h-114c-70 100 -146 254 -146 459c0 206 76 359 146 459h114c-67 -122 -130 -272 -130 -459s63 -336 130 -459z" />
    <glyph glyph-name="parenright.tab" horiz-adv-x="280" 
d="M-37 -130c67 122 130 272 130 459s-63 336 -130 459h114c70 -100 147 -253 147 -459s-77 -359 -147 -459h-114z" />
    <glyph glyph-name="bracketleft.tab" horiz-adv-x="280" 
d="M61 -130v918h245v-96h-120v-726h120v-96h-245z" />
    <glyph glyph-name="bracketright.tab" horiz-adv-x="280" 
d="M219 788v-918h-245v96h120v726h-120v96h245z" />
    <glyph glyph-name="braceleft.tab" horiz-adv-x="280" 
d="M30 273h-22v109h22c46 0 61 19 60 68l-4 153c-5 147 44 189 221 189v-92c-107 0 -105 -29 -102 -112l4 -128c2 -60 -18 -116 -83 -129v-4c65 -14 86 -69 83 -132l-4 -125c-3 -83 -5 -112 102 -112v-92c-177 0 -225 42 -221 181l4 158c1 49 -14 68 -60 68z" />
    <glyph glyph-name="braceright.tab" horiz-adv-x="280" 
d="M272 385v-109h-22c-45 0 -61 -19 -60 -68l4 -153c5 -147 -44 -189 -221 -189v92c107 0 105 29 102 112l-4 129c-2 59 18 115 83 128v4c-65 14 -86 69 -83 132l4 125c3 83 5 112 -102 112v92c177 0 226 -42 221 -181l-4 -158c-1 -49 15 -68 60 -68h22z" />
    <glyph glyph-name="eight.sub" horiz-adv-x="420" 
d="M42 259c0 70 55 118 168 118s168 -48 168 -119c0 -50 -27 -79 -66 -93v-2c50 -13 83 -43 83 -102c0 -75 -65 -130 -185 -130c-128 0 -184 52 -184 130c0 55 33 88 82 102v2c-39 13 -66 43 -66 94zM210 306c-34 0 -59 -17 -59 -56c0 -36 25 -56 59 -56s59 20 59 56
c0 39 -25 56 -59 56zM210 3c40 0 70 21 70 62c0 42 -29 63 -70 63s-71 -21 -71 -63c0 -41 32 -62 71 -62z" />
    <glyph glyph-name="eight.sup" horiz-adv-x="420" 
d="M42 703c0 70 55 118 168 118s168 -48 168 -119c0 -50 -27 -79 -66 -93v-2c50 -13 83 -43 83 -102c0 -75 -65 -130 -185 -130c-128 0 -184 52 -184 130c0 55 33 88 82 102v2c-39 13 -66 43 -66 94zM210 750c-34 0 -59 -17 -59 -56c0 -36 25 -56 59 -56s59 20 59 56
c0 39 -25 56 -59 56zM210 447c40 0 70 21 70 62c0 42 -29 63 -70 63s-71 -21 -71 -63c0 -41 32 -62 71 -62z" />
    <glyph glyph-name="five.sub" horiz-adv-x="413" 
d="M270 80c0 39 -27 66 -66 66c-28 0 -49 -11 -63 -29h-100l20 254h293v-88h-205l-9 -104h1c17 23 50 44 101 44c84 0 141 -47 141 -136c0 -86 -57 -156 -182 -156c-133 0 -171 67 -176 134h115c3 -34 29 -51 63 -51c38 0 67 24 67 66z" />
    <glyph glyph-name="five.sup" horiz-adv-x="413" 
d="M270 524c0 39 -27 66 -66 66c-28 0 -49 -11 -63 -29h-100l20 254h293v-88h-205l-9 -104h1c17 23 50 44 101 44c84 0 141 -47 141 -136c0 -86 -57 -156 -182 -156c-133 0 -171 67 -176 134h115c3 -34 29 -51 63 -51c38 0 67 24 67 66z" />
    <glyph glyph-name="four.sub" horiz-adv-x="430" 
d="M123 110h126v184h-3s-12 -32 -35 -63zM408 30h-56v-90h-107v90h-226v76l196 265h137v-256h56v-85z" />
    <glyph glyph-name="four.sup" horiz-adv-x="430" 
d="M123 554h126v184h-3s-12 -32 -35 -63zM408 474h-56v-90h-107v90h-226v76l196 265h137v-256h56v-85z" />
    <glyph glyph-name="minus.sub" horiz-adv-x="400" 
d="M47 109v78h305v-78h-305z" />
    <glyph glyph-name="minus.sup" horiz-adv-x="400" 
d="M47 553v78h305v-78h-305z" />
    <glyph glyph-name="nine.sub" horiz-adv-x="429" 
d="M209 297c-32 0 -68 -20 -68 -68c0 -47 31 -70 68 -70c38 0 68 23 68 70c0 46 -36 68 -68 68zM32 47c3 0 114 1 114 1c6 -26 26 -40 58 -40c54 0 78 48 78 127h-2c-20 -32 -56 -49 -105 -49c-76 0 -146 41 -146 139c0 81 62 151 184 151c118 0 189 -73 189 -211
c0 -155 -76 -234 -204 -234c-101 0 -160 50 -166 116z" />
    <glyph glyph-name="nine.sup" horiz-adv-x="429" 
d="M209 741c-32 0 -68 -20 -68 -68c0 -47 31 -70 68 -70c38 0 68 23 68 70c0 46 -36 68 -68 68zM32 491c3 0 114 1 114 1c6 -26 26 -40 58 -40c54 0 78 48 78 127h-2c-20 -32 -56 -49 -105 -49c-76 0 -146 41 -146 139c0 81 62 151 184 151c118 0 189 -73 189 -211
c0 -155 -76 -234 -204 -234c-101 0 -160 50 -166 116z" />
    <glyph glyph-name="one.sub" horiz-adv-x="285" 
d="M108 -60v280h-94v76h14c26 0 49 5 66 17c15 11 24 31 24 58h105v-431h-115z" />
    <glyph glyph-name="one.sup" horiz-adv-x="285" 
d="M108 384v280h-94v76h14c26 0 49 5 66 17c15 11 24 31 24 58h105v-431h-115z" />
    <glyph glyph-name="plus.sub" horiz-adv-x="400" 
d="M245 109v-115h-91v115h-118v78h118v114h91v-114h119v-78h-119z" />
    <glyph glyph-name="plus.sup" horiz-adv-x="400" 
d="M245 553v-115h-91v115h-118v78h118v114h91v-114h119v-78h-119z" />
    <glyph glyph-name="seven.sub" horiz-adv-x="370" 
d="M51 -60l169 343h-202v88h337v-62l-183 -369h-121z" />
    <glyph glyph-name="seven.sup" horiz-adv-x="370" 
d="M51 384l169 343h-202v88h337v-62l-183 -369h-121z" />
    <glyph glyph-name="six.sub" horiz-adv-x="431" 
d="M395 265h-113c-5 22 -23 36 -52 36c-46 0 -80 -37 -82 -128h2c25 35 60 55 113 55c82 0 141 -47 141 -140c0 -82 -60 -157 -183 -157c-113 0 -190 61 -190 211c0 155 83 234 201 234c114 0 154 -48 163 -111zM224 9c34 0 68 22 68 73c0 46 -28 73 -68 73
c-41 0 -69 -24 -69 -73c0 -51 34 -73 69 -73z" />
    <glyph glyph-name="six.sup" horiz-adv-x="431" 
d="M395 709h-113c-5 22 -23 36 -52 36c-46 0 -80 -37 -82 -128h2c25 35 60 55 113 55c82 0 141 -47 141 -140c0 -82 -60 -157 -183 -157c-113 0 -190 61 -190 211c0 155 83 234 201 234c114 0 154 -48 163 -111zM224 453c34 0 68 22 68 73c0 46 -28 73 -68 73
c-41 0 -69 -24 -69 -73c0 -51 34 -73 69 -73z" />
    <glyph glyph-name="three.sub" horiz-adv-x="417" 
d="M208 123h-50v71h41c33 0 61 19 61 52s-25 51 -57 51c-41 0 -58 -25 -59 -54h-113c2 63 46 136 179 136c108 0 166 -52 166 -117c0 -47 -28 -83 -85 -97v-2c63 -11 96 -47 96 -103c0 -67 -61 -129 -180 -129c-135 0 -178 69 -180 136h116c3 -35 30 -53 63 -53
c41 0 66 25 66 56c0 33 -24 53 -64 53z" />
    <glyph glyph-name="three.sup" horiz-adv-x="417" 
d="M208 567h-50v71h41c33 0 61 19 61 52s-25 51 -57 51c-41 0 -58 -25 -59 -54h-113c2 63 46 136 179 136c108 0 166 -52 166 -117c0 -47 -28 -83 -85 -97v-2c63 -11 96 -47 96 -103c0 -67 -61 -129 -180 -129c-135 0 -178 69 -180 136h116c3 -35 30 -53 63 -53
c41 0 66 25 66 56c0 33 -24 53 -64 53z" />
    <glyph glyph-name="two.sub" horiz-adv-x="410" 
d="M137 220h-113c2 96 63 157 180 157c120 0 171 -56 171 -126c0 -65 -36 -103 -105 -158l-79 -65v-2h187v-86h-358v61l174 151c46 39 63 61 63 92c0 32 -21 52 -54 52c-36 0 -66 -19 -66 -76z" />
    <glyph glyph-name="two.sup" horiz-adv-x="410" 
d="M137 664h-113c2 96 63 157 180 157c120 0 171 -56 171 -126c0 -65 -36 -103 -105 -158l-79 -65v-2h187v-86h-358v61l174 151c46 39 63 61 63 92c0 32 -21 52 -54 52c-36 0 -66 -19 -66 -76z" />
    <glyph glyph-name="zero.sub" horiz-adv-x="455" 
d="M30 153c0 151 79 225 196 225c127 0 199 -72 199 -225c0 -150 -75 -223 -199 -223c-127 0 -196 72 -196 223zM226 14c41 0 72 34 72 140c0 108 -34 142 -72 142c-39 0 -70 -34 -70 -142c0 -112 29 -140 70 -140z" />
    <glyph glyph-name="zero.sup" horiz-adv-x="455" 
d="M30 597c0 151 79 225 196 225c127 0 199 -72 199 -225c0 -150 -75 -223 -199 -223c-127 0 -196 72 -196 223zM226 458c41 0 72 34 72 140c0 108 -34 142 -72 142c-39 0 -70 -34 -70 -142c0 -112 29 -140 70 -140z" />
    <glyph glyph-name="Q.old" horiz-adv-x="802" 
d="M587 -99l-76 99c-32 -10 -67 -16 -110 -16c-229 0 -361 142 -361 396c0 252 147 396 361 396c224 0 361 -141 361 -396c0 -157 -54 -265 -139 -326l62 -82zM218 380c0 -184 63 -279 183 -279c11 0 21 1 31 2l-62 80l99 72l69 -90c31 45 47 115 47 215
c0 183 -76 278 -184 278c-116 0 -183 -93 -183 -278z" />
    <glyph glyph-name="Q.scold" horiz-adv-x="722" 
d="M528 -89l-68 92c-30 -10 -62 -16 -99 -16c-206 0 -314 121 -314 333c0 209 123 333 314 333c200 0 314 -121 314 -333c0 -123 -46 -214 -121 -269l59 -80zM214 318c0 -150 47 -227 147 -227c11 0 22 1 32 3l-61 82l86 59l60 -81c20 37 31 91 31 164
c0 151 -62 228 -148 228c-96 0 -147 -76 -147 -228z" />
    <glyph glyph-name="Euro.tab" unicode="&#xe45b;" 
d="M567 215c-3 -126 -85 -230 -238 -230c-154 0 -232 89 -253 265h-71v77h65c-1 13 -1 26 -1 40s0 28 1 41h-65v77h72c24 173 108 266 261 266c147 0 221 -99 228 -234h-130c-11 64 -37 116 -101 116c-61 0 -95 -46 -108 -148h158v-77h-163c-1 -12 -1 -25 -1 -39
c0 -15 0 -29 1 -42h164v-77h-158c15 -104 52 -145 108 -145c61 0 90 44 100 110h131z" />
    <glyph glyph-name="dollar.tab" unicode="&#xe45a;" 
d="M255 456v184c-62 -10 -88 -49 -88 -92c0 -58 37 -82 86 -92h2zM320 102h4c67 11 95 52 95 97c0 55 -33 84 -95 96l-4 1v-194zM320 -116h-66v105c-143 11 -231 91 -242 226h144c7 -55 35 -101 101 -112v205l-23 5c-130 26 -206 87 -206 219c0 114 79 204 227 215v81h66
v-81c154 -11 219 -101 228 -212h-145c-4 48 -26 93 -86 104v-196l21 -4c156 -31 222 -96 222 -218c0 -135 -81 -222 -241 -232v-105z" />
    <glyph glyph-name="dieresis.uc" horiz-adv-x="349" 
d="M214 828v137h136v-137h-136zM-1 828v137h136v-137h-136z" />
    <glyph glyph-name="zero.tab" unicode="&#xe44f;" 
d="M24 368c0 252 102 383 264 383c173 0 268 -128 268 -383c0 -252 -98 -383 -268 -383c-173 0 -264 129 -264 383zM289 109c70 0 110 79 110 258c0 186 -38 260 -109 260s-110 -77 -110 -260c0 -186 37 -258 109 -258z" />
    <glyph glyph-name="one.tab" unicode="&#xe450;" 
d="M536 0h-452v123h155v385h-153v102h16c46 0 87 8 114 30c26 20 40 55 41 102h138v-619h141v-123z" />
    <glyph glyph-name="nine.tab" unicode="&#xe458;" 
d="M281 631c-53 0 -104 -36 -104 -129c0 -85 47 -129 104 -129c62 0 106 43 106 129c0 88 -51 129 -106 129zM35 181h141c13 -48 47 -78 98 -78c85 0 124 79 127 237h-2c-27 -41 -79 -75 -155 -75c-116 0 -223 78 -223 235c0 137 97 252 266 252c173 0 268 -116 268 -357
c0 -273 -103 -410 -281 -410c-150 0 -224 78 -239 196z" />
    <glyph glyph-name="eight.tab" unicode="&#xe457;" 
d="M41 550c0 113 88 202 249 202s249 -89 249 -202c0 -86 -48 -142 -111 -165v-3c77 -20 135 -79 135 -180c0 -124 -109 -218 -273 -218c-172 0 -273 91 -273 217c0 101 59 161 135 181v3c-63 21 -111 80 -111 165zM290 641c-56 0 -101 -35 -101 -105
c0 -68 46 -106 101 -106c56 0 100 38 100 106c0 70 -45 105 -100 105zM290 92c65 0 118 41 118 115c0 75 -52 114 -118 114c-65 0 -117 -39 -117 -114c0 -74 53 -115 117 -115z" />
    <glyph glyph-name="seven.tab" unicode="&#xe456;" 
d="M89 0l284 614h-348v127h528v-90l-301 -651h-163z" />
    <glyph glyph-name="six.tab" unicode="&#xe455;" 
d="M544 563h-148c-9 45 -43 73 -90 73c-83 0 -122 -79 -130 -238h3c34 52 87 85 166 85c119 0 213 -83 213 -235c0 -144 -84 -263 -264 -263c-157 0 -269 98 -269 350c0 275 102 417 286 417c145 0 223 -84 233 -189zM298 104c56 0 105 41 105 133c0 85 -45 131 -105 131
c-62 0 -106 -42 -106 -131c0 -92 47 -133 106 -133z" />
    <glyph glyph-name="five.tab" unicode="&#xe454;" 
d="M30 209h151c6 -73 48 -105 111 -105c62 0 115 44 115 136c0 88 -49 136 -114 136c-49 0 -82 -19 -105 -57h-134l22 422h439v-126h-310l-10 -183h2c29 32 72 59 144 59c123 0 217 -87 217 -242c0 -146 -85 -264 -266 -264c-192 0 -255 113 -262 224z" />
    <glyph glyph-name="space_uni0326.alt" horiz-adv-x="349" 
d="M270 782l-27 -165h-157l79 165h105z" />
    <glyph glyph-name="four.tab" unicode="&#xe453;" 
d="M153 284h189v320h-3s-12 -37 -44 -90zM568 164h-85v-164h-145v164h-325v111l296 466h174v-455h85v-122z" />
    <glyph glyph-name="three.tab" unicode="&#xe452;" 
d="M284 319h-56v113h47c63 0 107 39 107 102c0 58 -36 98 -98 98c-70 0 -107 -42 -111 -108h-145c3 113 78 229 260 229c161 0 245 -89 245 -204c0 -75 -43 -135 -118 -163v-2c80 -23 138 -79 138 -178c0 -119 -92 -221 -266 -221c-192 0 -260 111 -267 228h153
c7 -71 56 -106 116 -106c65 0 115 41 115 106c0 67 -43 106 -120 106z" />
    <glyph glyph-name="uni021A.sc" horiz-adv-x="572" 
d="M554 644v-120h-188v-524h-160v524h-188v120h536zM186 -220l24 156h154l-73 -156h-105z" />
    <glyph glyph-name="two.tab" unicode="&#xe451;" 
d="M188 497h-152c2 160 101 255 264 255c171 0 246 -97 246 -210c0 -109 -47 -172 -157 -275l-148 -139v-1h305v-127h-524v92l251 249c82 81 116 130 116 191c0 63 -35 100 -94 100c-52 0 -107 -28 -107 -135z" />
    <glyph glyph-name="Aring" unicode="&#xc5;" horiz-adv-x="2913" 
d="M315 361c93 0 128 46 128 131c0 88 -42 142 -123 142h-74v-269c18 -2 43 -4 69 -4zM1871 71c20 0 40 3 57 7l19 -45s-7 -7 -19 -13c-22 -15 -64 -30 -112 -30c-94 0 -143 33 -143 131v316h-66v55l77 21l26 121h87v-121h123v-76h-123v-293c0 -52 19 -73 74 -73zM2226 523
c155 0 254 -100 254 -264c0 -167 -113 -272 -252 -272c-158 0 -255 105 -255 266c0 167 113 270 253 270zM2229 62c64 0 120 43 120 189c0 152 -59 198 -124 198s-122 -42 -122 -189c0 -151 59 -198 126 -198zM2856 523c9 0 22 -2 27 -4v-109c-12 3 -30 4 -42 4
c-47 0 -84 -10 -116 -29v-315l78 -16v-54h-270v54l67 16v355l-68 16v58l174 23l13 -7v-69h6c28 40 74 77 131 77zM313 714c193 0 269 -93 269 -215c0 -142 -90 -209 -241 -209c-35 0 -68 3 -95 8v-219l94 -18v-61h-310v61l80 18v556l-80 18v61h283zM896 94v133l-81 -6
c-58 -4 -78 -31 -78 -79c0 -49 24 -77 78 -77c33 0 65 15 81 29zM1411 303c96 -27 133 -74 133 -148c0 -96 -68 -168 -216 -168c-56 0 -127 12 -174 30v139h63l24 -77c16 -9 54 -20 94 -20c55 0 93 22 93 66s-22 57 -83 76l-56 16c-85 24 -133 67 -133 149
c0 87 65 157 202 157c60 0 116 -10 153 -22v-131h-69l-18 68c-16 7 -38 14 -73 14c-49 0 -86 -15 -86 -60c0 -37 23 -54 88 -73zM1062 61h22v-54c-14 -7 -51 -18 -90 -18c-46 0 -76 15 -85 56h-5c-27 -31 -72 -58 -138 -58c-92 0 -154 55 -154 140c0 93 66 125 168 145
l116 23v43c0 69 -16 93 -109 93c-42 0 -98 -5 -130 -9v65c43 17 117 36 190 36c119 0 173 -50 173 -158v-269c0 -29 17 -35 42 -35z" />
    <glyph glyph-name="aring" unicode="&#xe5;" horiz-adv-x="3632" 
d="M2588 729v-659l67 -16v-54h-259v54l68 16v570l-74 15v59l186 22zM316 362c92 0 127 45 127 130c0 88 -42 142 -123 142h-74v-269c18 -2 43 -3 70 -3zM859 523c156 0 255 -100 255 -264c0 -168 -114 -272 -253 -272c-158 0 -254 104 -254 266c0 167 112 270 252 270z
M862 62c64 0 120 43 120 189c0 152 -59 198 -124 198s-121 -42 -121 -189c0 -151 59 -198 125 -198zM1436 61c80 0 132 44 132 196c0 130 -46 174 -124 174c-41 0 -75 -12 -95 -21v-324c18 -12 39 -25 87 -25zM3576 523c9 0 22 -2 26 -4v-109c-11 3 -29 4 -41 4
c-47 0 -85 -10 -116 -29v-315l78 -16v-54h-271v54l67 16v355l-68 15v59l175 23l13 -7v-69h6c27 40 74 77 131 77zM313 714c193 0 269 -93 269 -215c0 -141 -90 -208 -241 -208c-35 0 -68 3 -95 8v-220l94 -18v-61h-310v61l80 18v556l-80 18v61h283zM2996 94v133l-81 -6
c-58 -3 -78 -31 -78 -78c0 -50 24 -78 78 -78c33 0 65 15 81 29zM2265 514v-444l67 -16v-54h-172l-13 13v39h-6c-39 -38 -93 -63 -164 -63c-104 0 -147 56 -147 148v294l-68 15v57l179 18l12 -7v-344c0 -61 17 -90 84 -90c51 0 78 13 104 24v327l-65 15v57l176 18zM3004 45
c-27 -31 -72 -58 -139 -58c-91 0 -153 55 -153 140c0 93 66 125 168 145l116 23v43c0 69 -16 94 -109 94c-42 0 -98 -5 -130 -10v65c42 17 117 36 190 36c119 0 173 -50 173 -158v-276c0 -29 17 -35 42 -35h22v-54c-22 -4 -51 -11 -90 -11c-46 0 -76 16 -86 56h-4zM1504 523
c95 0 193 -52 193 -247c0 -197 -109 -288 -262 -288c-39 0 -62 2 -86 7v-123l78 -15v-53h-269v53l66 14v553l-68 16v58l174 23l12 -6v-49h6c37 30 86 57 156 57z" />
    </font>
</defs>
</svg>
